<?xml version="1.0" encoding="UTF-8"?>
<svg id="svg4026" width="64px" height="64px" version="1.1" viewBox="0 0 64 64" xml:space="preserve" xmlns="http://www.w3.org/2000/svg">
 <!-- Generator: Sketch 3.4 (15575) - http://www.bohemiancoding.com/sketch --><title id="title4015">c-document</title><desc id="desc4017">Created with Sketch.</desc><path id="Oval-1" d="m32 64c17.673 0 32-14.327 32-32s-14.327-32-32-32-32 14.327-32 32 14.327 32 32 32z" fill="#4da6bf" fill-rule="evenodd"/><g id="g9668" transform="translate(1.5,-4)" fill="#fff" fill-rule="evenodd"><path id="Rectangle-50" d="m18 14h29v36h-29zm19 0h10v10h-10z"/><path id="Rectangle-52" d="m39 15.5 6.5 6.5h-6.5z"/></g><g id="g5979" transform="matrix(.48438 0 0 .48438 9.0859 27.006)" fill-rule="evenodd"><path id="Oval-1-4" d="m32 64c17.673 0 32-14.327 32-32s-14.327-32-32-32-32 14.327-32 32 14.327 32 32 32z" fill="#8ee481"/><path id="Rectangle-1-4" d="m37 27v-16h-10v16h-16v10h16v16h10v-16h16v-10z" fill="#fff"/></g></svg>
