<?xml version="1.0" encoding="UTF-8" standalone="no"?>
<svg
   height="64"
   style="clip-rule:evenodd;fill-rule:evenodd;image-rendering:optimizeQuality;shape-rendering:geometricPrecision;text-rendering:geometricPrecision"
   version="1.0"
   viewBox="0 0 15590.621 15597"
   width="64"
   xml:space="preserve"
   id="svg2"
   inkscape:version="1.2 (dc2aeda, 2022-05-15)"
   sodipodi:docname="c-bug.svg"
   xmlns:inkscape="http://www.inkscape.org/namespaces/inkscape"
   xmlns:sodipodi="http://sodipodi.sourceforge.net/DTD/sodipodi-0.dtd"
   xmlns="http://www.w3.org/2000/svg"
   xmlns:svg="http://www.w3.org/2000/svg"
   xmlns:rdf="http://www.w3.org/1999/02/22-rdf-syntax-ns#"
   xmlns:cc="http://creativecommons.org/ns#"
   xmlns:dc="http://purl.org/dc/elements/1.1/"
   xmlns:sketch="http://www.bohemiancoding.com/sketch/ns"><metadata
     id="metadata13"><rdf:RDF><cc:Work
         rdf:about=""><dc:format>image/svg+xml</dc:format><dc:type
           rdf:resource="http://purl.org/dc/dcmitype/StillImage" /></cc:Work></rdf:RDF></metadata><sodipodi:namedview
     pagecolor="#ffffff"
     bordercolor="#666666"
     borderopacity="1"
     objecttolerance="10"
     gridtolerance="10"
     guidetolerance="10"
     inkscape:pageopacity="0"
     inkscape:pageshadow="2"
     inkscape:window-width="1710"
     inkscape:window-height="982"
     id="namedview11"
     showgrid="false"
     inkscape:zoom="3.6875"
     inkscape:cx="-7.4576271"
     inkscape:cy="63.457627"
     inkscape:window-x="0"
     inkscape:window-y="39"
     inkscape:window-maximized="0"
     inkscape:current-layer="Layer_x0020_1"
     inkscape:showpageshadow="2"
     inkscape:pagecheckerboard="0"
     inkscape:deskcolor="#d1d1d1" /><defs
     id="defs4"><style
       type="text/css"
       id="style6"><![CDATA[
    .fil0 {fill:#27afb7;fill-rule:nonzero}
   ]]></style></defs><g
     id="Layer_x0020_1"
     transform="translate(731.10932,5e-5)"><path
       d="m 7064.2012,15597 c 4306.9918,0 7798.4998,-3491.508 7798.4998,-7798.4999 C 14862.701,3491.5073 11371.193,-9.3750001e-5 7064.2012,-9.3750001e-5 2757.2086,-9.3750001e-5 -734.29872,3491.5073 -734.29872,7798.5001 -734.29872,12105.492 2757.2086,15597 7064.2012,15597 Z"
       id="Oval-1"
       fill="#1191bb"
       sketch:type="MSShapeGroup"
       style="fill:#4da6bf;fill-opacity:1;fill-rule:evenodd;stroke:none;stroke-width:243.703" /><path
       class="fil0"
       d="m 5857.8707,6189.1064 -2.3287,0.7763 -3.8815,2.3288 -4.6576,2.3289 -3.8814,2.3287 -4.6576,2.3289 c -340.0082,170.0041 -646.6367,407.5441 -906.6885,697.8707 -91.6005,102.4682 -176.9906,210.3704 -256.1706,325.259 l -3.1051,5.4339 c -5.4339,9.3153 -10.8679,17.078 -17.8543,24.8407 -386.5847,572.1144 -616.3619,1285.5105 -616.3619,2061.0087 0,720.383 197.9499,1387.98 536.4056,1937.581 l 2.3288,3.882 5.4339,8.539 2.3289,3.881 v 0.776 c 103.2444,165.346 218.9094,319.825 346.2183,461.884 546.4972,610.927 1301.036,988.973 2133.9784,988.973 660.6096,0 1271.5376,-237.54 1769.1295,-641.202 L 7675.1292,10918.947 c -316.72,133.519 -659.0571,178.543 -985.8686,133.519 -364.849,-49.681 -711.8436,-211.923 -985.8685,-485.172 l -11.6441,-12.42 c -247.6315,-252.289 -401.3339,-565.1282 -461.8833,-896.5972 l -1.5525,-8.539 c -60.5494,-341.5608 -21.7357,-702.5284 115.6649,-1037.1026 39.5899,-96.2581 149.8209,-142.0583 246.079,-102.4683 24.0645,10.0916 44.2476,24.0646 61.3256,41.1426 l 0.7763,-0.7763 1112.4012,1112.4012 710.2912,-710.291 -1112.4013,-1112.4013 c -73.7461,-73.7461 -73.7461,-194.0686 0,-267.8147 22.512,-22.512 49.6816,-38.8137 78.4037,-47.3527 331.4692,-132.743 690.1079,-169.2278 1027.7874,-107.1259 h 0.7763 v 0 c 336.1267,61.3257 653.623,218.9094 908.241,473.5274 l 0.7763,0.7763 0.7763,-0.7763 c 274.0249,274.0249 435.4899,621.0196 485.1715,985.8686 45.0239,326.8115 0,669.1485 -133.5192,985.8682 l 1020.8006,1020.025 c 216.5805,-468.869 339.233,-1002.1708 339.233,-1568.0745 0,-774.7218 -229.0019,-1488.1181 -615.5865,-2059.456 -6.9864,-7.7628 -13.1967,-16.3018 -18.6305,-25.6171 l -3.8814,-6.9865 c -79.18,-114.1123 -164.5702,-222.0144 -255.3943,-323.7064 -259.2757,-290.3267 -566.6803,-527.8666 -906.6885,-697.8707 l -4.6577,-2.3288 -13.1966,-6.2102 -2.3288,-1.5526 -2.3289,-0.7763 c -369.5066,-180.8719 -777.827,-280.235 -1205.5541,-280.235 -429.2799,0 -837.6001,100.9156 -1207.8831,281.7876 z M 9114.342,11820.202 c 28.7221,-29.499 57.4443,-60.55 85.3902,-91.601 127.3089,-142.058 242.9739,-296.537 346.2183,-461.883 l 2.3289,-3.882 5.4339,-9.315 13.9729,-22.512 -1196.2389,-1195.463 v 0 c -56.668,-56.6677 -72.9697,-144.3871 -34.9323,-219.6856 143.6107,-281.7875 195.6211,-594.6261 154.4786,-890.3867 -38.8138,-283.3401 -165.3465,-554.2599 -378.8219,-767.7353 l 0.7763,-0.7763 c -198.7263,-198.7263 -447.1342,-321.3777 -709.5149,-369.5067 v 0 c -179.3194,-32.6035 -365.6252,-30.2746 -549.6022,6.2103 l 1023.9059,1023.9059 c 73.746,73.746 73.746,194.0687 0,267.8147 l -978.1058,978.1057 c -73.746,73.746 -194.0686,73.746 -267.8147,0 L 5607.9104,9039.5861 c -36.4849,181.6482 -38.8138,366.4015 -6.9865,544.1684 l 0.7763,5.4338 c 47.3527,258.4997 167.6752,503.8017 360.9676,700.9757 l 9.3153,8.539 c 214.2517,214.252 484.3952,340.009 768.5117,378.823 292.6554,40.366 600.8364,-10.093 880.2952,-149.821 72.1935,-42.695 167.6752,-32.604 229.7772,29.498 l 1263.7748,1263.774 z m 138.1768,392.018 -6.9865,7.762 -17.8542,15.526 -3.8815,3.105 c -587.6397,536.406 -1339.0733,857.783 -2158.0428,857.783 -943.1735,0 -1797.0754,-426.174 -2414.2135,-1116.282 -103.2446,-114.889 -199.5025,-237.54 -288.7741,-366.401 l -1092.9944,651.294 -177.7669,1422.135 c -12.4203,103.244 -107.1258,176.99 -210.3703,164.569 -103.2445,-12.42 -176.9906,-107.125 -164.5702,-210.37 l 189.4109,-1513.735 c 7.7628,-64.431 47.3528,-117.217 101.692,-145.163 l 1156.6489,-689.332 C 3845.7674,10716.34 3661.0141,10037.875 3661.0141,9312.8347 v -0.7762 H 2616.1487 l -700.1995,874.8615 c -64.4307,80.733 -183.2008,93.929 -264.7095,29.498 -80.7326,-64.431 -93.9293,-183.2 -29.4984,-264.7098 l 755.315,-943.9494 c 34.1561,-44.2476 88.4953,-72.9697 149.0446,-72.9697 h 1151.9912 c 57.4443,-641.2028 259.2757,-1235.8289 569.0092,-1742.7362 L 3008.9436,6453.816 c -53.5629,-27.9459 -93.9293,-80.7326 -101.6919,-145.1634 L 2717.8406,4794.9175 c -12.4203,-103.2445 61.3258,-197.9499 164.5703,-210.3703 103.2444,-12.4205 197.9499,61.3256 210.3704,164.5701 l 177.7668,1422.1348 1188.4761,707.9623 c 61.3257,-80.7325 125.7565,-159.1363 192.5161,-234.4349 252.2892,-281.7877 544.1684,-520.1039 865.5459,-703.3046 -27.9459,-69.8647 -52.7866,-142.0583 -71.4172,-216.5806 v 0 h -0.7763 c -34.156,-133.5192 -52.0103,-272.4723 -52.0103,-416.0831 0,-383.4795 129.6378,-737.4607 347.7709,-1020.0246 29.4985,-38.8137 60.5494,-76.0748 93.9292,-111.0073 -38.8137,-360.1913 -279.4588,-1831.2313 -1641.0442,-2058.6797 -102.4681,-17.078 -172.3329,-114.1123 -155.2548,-217.3568 17.078,-102.4683 114.1123,-172.333 217.3568,-155.255 1398.8465,232.8824 1804.0618,1525.3793 1918.1741,2147.1751 101.6919,-63.6545 210.3704,-117.9937 324.4827,-159.1363 v -158.3599 c 0,-156.0311 63.6545,-298.8656 166.1227,-401.3339 102.4683,-102.4682 244.5265,-166.1227 401.334,-166.1227 156.0311,0 298.8656,63.6545 401.3338,166.1227 102.4683,102.4683 166.1227,244.5264 166.1227,401.3339 v 158.3599 c 114.8886,41.1426 223.5671,94.7056 325.259,159.1363 114.8886,-621.7958 520.1039,-1914.2927 1918.174,-2147.1751 102.4686,-17.078 200.2787,52.0104 217.3577,155.255 17.077,102.4681 -52.011,200.2788 -155.2559,217.3568 C 8577.16,2345.7717 8336.515,3816.0355 8297.7012,4177.0031 c 32.6036,35.7087 64.4308,72.9698 93.9292,111.7835 217.3569,282.5639 347.771,637.3213 347.771,1020.0246 0,141.2819 -18.6306,281.0113 -53.5629,415.3068 h 0.7762 c -18.6305,74.5224 -42.6951,146.7159 -71.4172,216.5806 321.3776,182.4245 613.2568,420.7407 865.546,702.5283 66.7595,75.2987 131.1904,152.9261 192.516,234.4349 l 1187.7005,-707.9622 177.767,-1422.1348 c 12.42,-103.2445 107.125,-176.9906 210.371,-164.5702 103.244,12.4204 176.99,107.1259 164.569,210.3704 l -189.41,1513.7351 c -7.764,64.4308 -47.353,117.2175 -101.692,145.1634 l -1238.1592,738.2369 c 309.7342,506.9072 511.5652,1101.5334 569.0102,1742.7361 h 1148.886 c 60.549,0 114.113,28.7221 149.045,72.9698 l 755.314,943.9494 c 64.431,80.7333 51.235,199.5033 -29.498,264.7103 -80.732,64.431 -199.502,51.234 -264.709,-29.499 l -700.2,-874.8611 h -1041.761 v 0.7762 c 0,718.0539 -180.871,1389.5319 -493.7103,1961.6459 l -2.3283,3.881 -6.9867,14.75 1155.8733,688.555 c 53.563,27.945 93.929,80.732 101.692,145.163 l 189.411,1513.735 c 12.42,103.245 -61.326,197.95 -164.571,210.371 -103.244,12.42 -197.949,-61.326 -210.37,-164.57 l -177.767,-1422.135 -1092.9946,-651.294 c -89.2717,128.861 -185.5297,251.513 -287.9979,366.401 -72.1935,80.733 -148.2685,158.36 -227.4485,232.106 z M 5229.8647,9648.1852 c -13.1967,-99.3631 53.5629,-192.516 152.9261,-211.1466 M 8275.1893,5774.5759 c 17.8543,-46.5765 32.6035,-93.9292 45.0239,-142.0583 h 0.7763 v 0 c 25.617,-100.9156 39.5899,-209.594 39.5899,-322.9301 0,-297.3131 -100.1394,-571.338 -267.8146,-789.4711 -169.2278,-219.6857 -407.5441,-384.2558 -682.3452,-459.5545 -88.4953,-15.5255 -156.0311,-93.1529 -156.0311,-186.3059 v -297.3131 c 0,-52.0103 -21.7358,-99.363 -55.8918,-133.5191 -34.1561,-34.1561 -81.5088,-55.8918 -133.5193,-55.8918 -52.0103,0 -99.363,21.7357 -133.5191,55.8918 -34.1561,34.1561 -55.8918,81.5088 -55.8918,133.5191 v 297.3131 h -0.7763 c 0,83.8377 -55.8918,160.6888 -140.5056,182.4246 -281.0114,73.746 -524.7616,239.8688 -697.0945,463.4358 -167.6753,218.1331 -267.8147,492.158 -267.8147,789.4711 0,111.7835 13.973,220.4619 40.3663,322.9301 h -0.7763 c 12.4205,48.1291 27.1697,95.4818 45.8002,141.2819 375.7169,-159.1362 783.2609,-246.0789 1209.4356,-246.0789 425.3984,0 833.7188,86.9427 1209.4355,246.0789 z"
       id="path9"
       style="fill:#ffffff;stroke:#ffffff;stroke-width:243.703125;stroke-dasharray:none;stroke-opacity:1" /></g></svg>
