<?xml version="1.0" encoding="UTF-8"?>
<svg id="svg2" width="64" height="64" clip-rule="evenodd" fill-rule="evenodd" image-rendering="optimizeQuality" shape-rendering="geometricPrecision" text-rendering="geometricPrecision" version="1.0" viewBox="0 0 15591 15597" xml:space="preserve" xmlns="http://www.w3.org/2000/svg" xmlns:cc="http://creativecommons.org/ns#" xmlns:dc="http://purl.org/dc/elements/1.1/" xmlns:rdf="http://www.w3.org/1999/02/22-rdf-syntax-ns#"><metadata id="metadata13"><rdf:RDF><cc:Work rdf:about=""><dc:format>image/svg+xml</dc:format><dc:type rdf:resource="http://purl.org/dc/dcmitype/StillImage"/></cc:Work></rdf:RDF></metadata><defs id="defs4"><style id="style6" type="text/css"><![CDATA[
    .fil0 {fill:#27afb7;fill-rule:nonzero}
   ]]></style></defs><g id="Layer_x0020_1" transform="translate(731.11 5e-5)"><path id="Oval-1" d="m7064.2 15597c4307 0 7798.5-3491.5 7798.5-7798.5 0-4307-3491.5-7798.5-7798.5-7798.5-4307 0-7798.5 3491.5-7798.5 7798.5 0 4307 3491.5 7798.5 7798.5 7798.5z" fill="#4da6bf" fill-rule="evenodd"/><path id="path9" class="fil0" d="m5857.9 6189.1-2.3287 0.7763-3.8815 2.3288-4.6576 2.3289-3.8814 2.3287-4.6576 2.3289c-340.01 170-646.64 407.54-906.69 697.87-91.6 102.47-176.99 210.37-256.17 325.26l-3.1051 5.4339c-5.4339 9.3153-10.868 17.078-17.854 24.841-386.58 572.11-616.36 1285.5-616.36 2061 0 720.38 197.95 1388 536.41 1937.6l2.3288 3.882 5.4339 8.539 2.3289 3.881v0.776c103.24 165.35 218.91 319.82 346.22 461.88 546.5 610.93 1301 988.97 2134 988.97 660.61 0 1271.5-237.54 1769.1-641.2l-1159-1159c-316.72 133.52-659.06 178.54-985.87 133.52-364.85-49.681-711.84-211.92-985.87-485.17l-11.644-12.42c-247.63-252.29-401.33-565.13-461.88-896.6l-1.5525-8.539c-60.549-341.56-21.736-702.53 115.66-1037.1 39.59-96.258 149.82-142.06 246.08-102.47 24.064 10.092 44.248 24.065 61.326 41.143l0.7763-0.7763 1112.4 1112.4 710.29-710.29-1112.4-1112.4c-73.746-73.746-73.746-194.07 0-267.81 22.512-22.512 49.682-38.814 78.404-47.353 331.47-132.74 690.11-169.23 1027.8-107.13h0.7763c336.13 61.326 653.62 218.91 908.24 473.53l0.7763 0.7763 0.7763-0.7763c274.02 274.02 435.49 621.02 485.17 985.87 45.024 326.81 0 669.15-133.52 985.87l1020.8 1020c216.58-468.87 339.23-1002.2 339.23-1568.1 0-774.72-229-1488.1-615.59-2059.5-6.9864-7.7628-13.197-16.302-18.63-25.617l-3.8814-6.9865c-79.18-114.11-164.57-222.01-255.39-323.71-259.28-290.33-566.68-527.87-906.69-697.87l-4.6577-2.3288-13.197-6.2102-2.3288-1.5526-2.3289-0.7763c-369.51-180.87-777.83-280.24-1205.6-280.24-429.28 0-837.6 100.92-1207.9 281.79zm3256.5 5631.1c28.722-29.499 57.444-60.55 85.39-91.601 127.31-142.06 242.97-296.54 346.22-461.88l2.3289-3.882 5.4339-9.315 13.973-22.512-1196.2-1195.5c-56.668-56.668-72.97-144.39-34.932-219.69 143.61-281.79 195.62-594.63 154.48-890.39-38.814-283.34-165.35-554.26-378.82-767.74l0.7763-0.7763c-198.73-198.73-447.13-321.38-709.51-369.51-179.32-32.604-365.63-30.275-549.6 6.2103l1023.9 1023.9c73.746 73.746 73.746 194.07 0 267.81l-978.11 978.11c-73.746 73.746-194.07 73.746-267.81 0l-1023.9-1023.9c-36.485 181.65-38.814 366.4-6.9865 544.17l0.7763 5.4338c47.353 258.5 167.68 503.8 360.97 700.98l9.3153 8.539c214.25 214.25 484.4 340.01 768.51 378.82 292.66 40.366 600.84-10.093 880.3-149.82 72.194-42.695 167.68-32.604 229.78 29.498l1263.8 1263.8zm138.18 392.02-6.9865 7.762-17.854 15.526-3.8815 3.105c-587.64 536.41-1339.1 857.78-2158 857.78-943.17 0-1797.1-426.17-2414.2-1116.3-103.24-114.89-199.5-237.54-288.77-366.4l-1093 651.29-177.77 1422.1c-12.42 103.24-107.13 176.99-210.37 164.57-103.24-12.42-176.99-107.12-164.57-210.37l189.41-1513.7c7.7628-64.431 47.353-117.22 101.69-145.16l1156.6-689.33c-319.05-576.77-503.8-1255.2-503.8-1980.3v-0.7762h-1044.9l-700.2 874.86c-64.431 80.733-183.2 93.929-264.71 29.498-80.733-64.431-93.929-183.2-29.498-264.71l755.32-943.95c34.156-44.248 88.495-72.97 149.04-72.97h1152c57.444-641.2 259.28-1235.8 569.01-1742.7l-1238.2-738.24c-53.563-27.946-93.929-80.733-101.69-145.16l-189.41-1513.7c-12.42-103.24 61.326-197.95 164.57-210.37 103.24-12.42 197.95 61.326 210.37 164.57l177.77 1422.1 1188.5 707.96c61.326-80.732 125.76-159.14 192.52-234.43 252.29-281.79 544.17-520.1 865.55-703.3-27.946-69.865-52.787-142.06-71.417-216.58h-0.7763c-34.156-133.52-52.01-272.47-52.01-416.08 0-383.48 129.64-737.46 347.77-1020 29.498-38.814 60.549-76.075 93.929-111.01-38.814-360.19-279.46-1831.2-1641-2058.7-102.47-17.078-172.33-114.11-155.25-217.36 17.078-102.47 114.11-172.33 217.36-155.26 1398.8 232.88 1804.1 1525.4 1918.2 2147.2 101.69-63.654 210.37-117.99 324.48-159.14v-158.36c0-156.03 63.654-298.87 166.12-401.33 102.47-102.47 244.53-166.12 401.33-166.12 156.03 0 298.87 63.654 401.33 166.12 102.47 102.47 166.12 244.53 166.12 401.33v158.36c114.89 41.143 223.57 94.706 325.26 159.14 114.89-621.8 520.1-1914.3 1918.2-2147.2 102.47-17.078 200.28 52.01 217.36 155.26 17.077 102.47-52.011 200.28-155.26 217.36-1361.6 226.67-1602.2 1696.9-1641 2057.9 32.604 35.709 64.431 72.97 93.929 111.78 217.36 282.56 347.77 637.32 347.77 1020 0 141.28-18.631 281.01-53.563 415.31h0.7762c-18.63 74.522-42.695 146.72-71.417 216.58 321.38 182.42 613.26 420.74 865.55 702.53 66.76 75.299 131.19 152.93 192.52 234.43l1187.7-707.96 177.77-1422.1c12.42-103.24 107.12-176.99 210.37-164.57 103.24 12.42 176.99 107.13 164.57 210.37l-189.41 1513.7c-7.764 64.431-47.353 117.22-101.69 145.16l-1238.2 738.24c309.73 506.91 511.57 1101.5 569.01 1742.7h1148.9c60.549 0 114.11 28.722 149.04 72.97l755.31 943.95c64.431 80.733 51.235 199.5-29.498 264.71-80.732 64.431-199.5 51.234-264.71-29.499l-700.2-874.86h-1041.8v0.7762c0 718.05-180.87 1389.5-493.71 1961.6l-2.3283 3.881-6.9867 14.75 1155.9 688.56c53.563 27.945 93.929 80.732 101.69 145.16l189.41 1513.7c12.42 103.24-61.326 197.95-164.57 210.37-103.24 12.42-197.95-61.326-210.37-164.57l-177.77-1422.1-1093-651.29c-89.272 128.86-185.53 251.51-288 366.4-72.194 80.733-148.27 158.36-227.45 232.11zm-4022.7-2564c-13.197-99.363 53.563-192.52 152.93-211.15m2892.4-3662.5c17.854-46.576 32.604-93.929 45.024-142.06h0.7763c25.617-100.92 39.59-209.59 39.59-322.93 0-297.31-100.14-571.34-267.81-789.47-169.23-219.69-407.54-384.26-682.35-459.55-88.495-15.526-156.03-93.153-156.03-186.31v-297.31c0-52.01-21.736-99.363-55.892-133.52-34.156-34.156-81.509-55.892-133.52-55.892-52.01 0-99.363 21.736-133.52 55.892s-55.892 81.509-55.892 133.52v297.31h-0.7763c0 83.838-55.892 160.69-140.51 182.42-281.01 73.746-524.76 239.87-697.09 463.44-167.68 218.13-267.81 492.16-267.81 789.47 0 111.78 13.973 220.46 40.366 322.93h-0.7763c12.42 48.129 27.17 95.482 45.8 141.28 375.72-159.14 783.26-246.08 1209.4-246.08 425.4 0 833.72 86.943 1209.4 246.08z" fill="#fff" stroke="#fff" stroke-width="243.7"/></g></svg>
