<?xml version="1.0" encoding="UTF-8"?>
<!-- Generator: Adobe Illustrator 18.1.1, SVG Export Plug-In . SVG Version: 6.00 Build 0)  -->
<svg id="Capa_1" width="64" height="64" version="1.1" viewBox="0 0 3.6575 3.6575" xml:space="preserve" xmlns="http://www.w3.org/2000/svg">
<path id="Oval-1" d="m1.8288 3.6575c1.01 0 1.8288-0.81876 1.8288-1.8288s-0.81876-1.8288-1.8288-1.8288-1.8288 0.81876-1.8288 1.8288 0.81876 1.8288 1.8288 1.8288z" fill="#4da6bf" fill-rule="evenodd"/><g id="g18205" transform="matrix(.078125 0 0 .078125 .68578 .68578)" fill="#fff">
	<path id="path18197" d="m14.627 15.954c-5.494 0-10.098-1.614-11.355-3.79-0.221 0.383-0.35 0.781-0.35 1.194v3.561c0 2.751 5.242 4.983 11.705 4.983 6.467 0 11.711-2.232 11.711-4.983v-3.561c0-0.413-0.131-0.811-0.354-1.194-1.257 2.175-5.857 3.79-11.357 3.79z"/>
	<path id="path18199" d="m14.627 23.31c-5.494 0-10.098-1.616-11.355-3.788-0.221 0.381-0.35 0.779-0.35 1.191v3.564c0 2.752 5.242 4.983 11.705 4.983 6.467 0 11.711-2.23 11.711-4.983v-3.564c0-0.412-0.131-0.81-0.354-1.19-1.257 2.171-5.857 3.787-11.357 3.787z"/>
	<path id="path18201" d="m26.018 5.042c-0.23 2.016-5.232 3.629-11.391 3.629-6.156 0-11.158-1.613-11.387-3.628-0.201 0.366-0.318 0.748-0.318 1.141v3.561c0 2.752 5.242 4.983 11.705 4.983 6.467 0 11.711-2.23 11.711-4.983v-3.561c0-0.393-0.119-0.775-0.32-1.142z"/>
	<path id="path18203" d="m14.627 7.541c6.303 0 11.41-1.687 11.41-3.771 0-2.082-5.107-3.77-11.41-3.77-6.299 1e-3 -11.408 1.689-11.408 3.771 0 2.083 5.109 3.77 11.408 3.77z"/>
</g>















</svg>
