<?xml version="1.0" encoding="UTF-8" standalone="no"?>
<!-- Created with Inkscape (http://www.inkscape.org/) -->

<svg
   width="90.134972mm"
   height="90.134972mm"
   viewBox="0 0 90.134972 90.134972"
   version="1.1"
   id="svg26373"
   xml:space="preserve"
   inkscape:version="1.2 (dc2aeda, 2022-05-15)"
   sodipodi:docname="c-dragndrop.svg"
   xmlns:inkscape="http://www.inkscape.org/namespaces/inkscape"
   xmlns:sodipodi="http://sodipodi.sourceforge.net/DTD/sodipodi-0.dtd"
   xmlns="http://www.w3.org/2000/svg"
   xmlns:svg="http://www.w3.org/2000/svg"><sodipodi:namedview
     id="namedview26375"
     pagecolor="#ffffff"
     bordercolor="#000000"
     borderopacity="0.25"
     inkscape:showpageshadow="2"
     inkscape:pageopacity="0.0"
     inkscape:pagecheckerboard="0"
     inkscape:deskcolor="#d1d1d1"
     inkscape:document-units="mm"
     showgrid="false"
     inkscape:zoom="0.45165788"
     inkscape:cx="77.492282"
     inkscape:cy="464.95369"
     inkscape:window-width="1710"
     inkscape:window-height="982"
     inkscape:window-x="0"
     inkscape:window-y="39"
     inkscape:window-maximized="0"
     inkscape:current-layer="layer1" /><defs
     id="defs26370" /><g
     inkscape:label="Layer 1"
     inkscape:groupmode="layer"
     id="layer1"
     transform="translate(-66.615125,-16.576971)"><path
       style="fill:#b3d9e5;fill-opacity:1;stroke-width:0.352778"
       d="m 98.012347,106.04492 c -3.19579,-1.47495 -4.056944,-3.42774 -4.056944,-9.199676 v -4.24466 h 3.527777 3.52778 v 3.52777 3.52778 h 3.35138 3.35139 v 3.527776 3.52778 l -4.14514,-0.008 c -3.27327,-0.006 -4.441934,-0.14471 -5.556243,-0.659 z m 16.756943,-2.86101 v -3.527776 h 3.35139 3.35139 v 3.527776 3.52778 h -3.35139 -3.35139 z m 14.11111,0 v -3.527776 h 3.35139 3.35139 v 3.527776 3.52778 h -3.35139 -3.35139 z m 14.11111,0 v -3.527776 h 3.35139 3.35139 v -3.52778 -3.52777 h 3.52778 3.52777 v 4.24466 c 0,4.519866 -0.37919,6.082826 -1.86892,7.703306 -1.53688,1.67177 -3.24428,2.14698 -7.74427,2.15539 l -4.14514,0.008 z M 93.955403,82.390174 v -3.50762 l -9.965973,-0.10835 c -9.680554,-0.10524 -10.011436,-0.13217 -11.553472,-0.94012 -2.164326,-1.13402 -3.763494,-2.71041 -4.882195,-4.81267 l -0.938638,-1.76389 v -23.63611 -23.63611 l 0.938638,-1.763889 c 1.118701,-2.102261 2.717869,-3.678655 4.882195,-4.812665 l 1.5875,-0.831779 h 23.636111 23.636111 l 1.5875,0.831779 c 2.16432,1.13401 3.76349,2.710404 4.88219,4.812665 l 0.93864,1.763889 0.10806,10.14236 0.10807,10.14236 h 3.33152 3.33152 v 3.52778 3.52778 h -3.33124 -3.33124 l -0.10835,9.96597 -0.10834,9.96597 -0.93864,1.76389 c -1.1187,2.10226 -2.71787,3.67865 -4.88219,4.81267 -1.54432,0.80915 -1.86343,0.83471 -11.72986,0.93984 l -10.14236,0.10806 v 3.50791 3.50791 h -3.52778 -3.527777 z m 26.669997,-11.80293 1.19944,-1.19944 V 47.621414 25.855026 l -1.19944,-1.199444 -1.19945,-1.199444 H 97.659569 75.89318 l -1.199444,1.199444 -1.199444,1.199444 v 21.766388 21.76639 l 1.199444,1.19944 1.199444,1.19945 h 21.766389 21.766381 z m -27.022775,-9.38388 v -3.52778 h 4.317747 4.317748 l -6.081637,-6.0891 c -3.3449,-3.349 -6.081636,-6.25044 -6.081636,-6.44765 0,-0.19721 1.112558,-1.4626 2.47235,-2.81197 l 2.472351,-2.4534 6.347092,6.33974 6.34709,6.33975 v -4.49424 -4.49424 h 3.35139 3.35139 v 10.58333 10.58333 H 104.00957 93.602625 Z m 56.091665,21.16666 v -3.52778 h 3.52778 3.52777 v 3.52778 3.52778 h -3.52777 -3.52778 z m 0,-13.75833 v -3.52778 h 3.52778 3.52777 v 3.52778 3.52778 h -3.52777 -3.52778 z m 0,-13.75833 v -3.52778 h -3.35139 -3.35139 v -3.52778 -3.52778 h 4.06828 c 5.57964,0 7.56231,0.89142 9.02329,4.05695 0.51916,1.12486 0.65284,2.28774 0.65902,5.73264 l 0.008,4.32152 h -3.52777 -3.52778 z"
       id="path26871" /><path
       style="fill:#000000;stroke-width:0.352778"
       id="path26869"
       d="" /></g></svg>
