<?xml version="1.0" encoding="UTF-8"?>
<!-- Created with Inkscape (http://www.inkscape.org/) -->
<svg id="svg26373" width="90.135mm" height="90.135mm" version="1.1" viewBox="0 0 90.135 90.135" xml:space="preserve" xmlns="http://www.w3.org/2000/svg"><g id="layer1" transform="translate(-66.615 -16.577)" stroke-width=".35278"><path id="path26871" d="m98.012 106.04c-3.1958-1.475-4.0569-3.4277-4.0569-9.1997v-4.2447h7.0556v7.0556h6.7028v7.0556l-4.1451-8e-3c-3.2733-6e-3 -4.4419-0.14471-5.5562-0.659zm16.757-2.861v-3.5278h6.7028v7.0556h-6.7028zm14.111 0v-3.5278h6.7028v7.0556h-6.7028zm14.111 0v-3.5278h6.7028v-7.0556h7.0556v4.2447c0 4.5199-0.37919 6.0828-1.8689 7.7033-1.5369 1.6718-3.2443 2.147-7.7443 2.1554l-4.1451 8e-3zm-49.036-20.794v-3.5076l-9.966-0.10835c-9.6806-0.10524-10.011-0.13217-11.553-0.94012-2.1643-1.134-3.7635-2.7104-4.8822-4.8127l-0.93864-1.7639v-47.272l0.93864-1.7639c1.1187-2.1023 2.7179-3.6787 4.8822-4.8127l1.5875-0.83178h47.272l1.5875 0.83178c2.1643 1.134 3.7635 2.7104 4.8822 4.8127l0.93864 1.7639 0.10806 10.142 0.10807 10.142h6.663v7.0556h-6.6625l-0.10835 9.966-0.10834 9.966-0.93864 1.7639c-1.1187 2.1023-2.7179 3.6786-4.8822 4.8127-1.5443 0.80915-1.8634 0.83471-11.73 0.93984l-10.142 0.10806v7.0158h-7.0556zm26.67-11.803 1.1994-1.1994v-43.533l-2.3989-2.3989h-43.533l-2.3989 2.3989v43.533l1.1994 1.1994 1.1994 1.1994h43.533zm-27.023-9.3839v-3.5278h8.6355l-6.0816-6.0891c-3.3449-3.349-6.0816-6.2504-6.0816-6.4476s1.1126-1.4626 2.4724-2.812l2.4724-2.4534 12.694 12.679v-8.9885h6.7028v21.167h-20.814zm56.092 21.167v-3.5278h7.0556v7.0556h-7.0556zm0-13.758v-3.5278h7.0556v7.0556h-7.0556zm0-13.758v-3.5278h-6.7028v-7.0556h4.0683c5.5796 0 7.5623 0.89142 9.0233 4.057 0.51916 1.1249 0.65284 2.2877 0.65902 5.7326l8e-3 4.3215h-7.0556z" fill="#b3d9e5"/></g></svg>
