<?xml version="1.0" encoding="UTF-8"?>
<!-- Created with Inkscape (http://www.inkscape.org/) -->
<svg id="svg5" width="16.933mm" height="16.933mm" version="1.1" viewBox="0 0 16.933 16.933" xml:space="preserve" xmlns="http://www.w3.org/2000/svg"><g id="layer1" transform="translate(-151.72 -170.55)"><circle id="Oval-1" cx="160.19" cy="179.02" r="8.4667" fill="#4da6bf" fill-rule="evenodd"/><g id="g1162" transform="matrix(.79019 0 0 .79019 77.221 68.434)"><g id="g1340" transform="matrix(.95238 0 0 .95238 5 6.4411)" fill="#fff"><path id="path447" d="m99.881 137.31c-0.51052-7.4e-4 -0.92456 0.41331-0.92383 0.92383v6.6484c-7.3e-4 0.51052 0.41331 0.92456 0.92383 0.92382h10.24c0.50976-3.4e-4 0.92261-0.41406 0.92188-0.92382v-6.6484c7.3e-4 -0.50976-0.41212-0.92349-0.92188-0.92383h-2.2151v1.8457h1.2913v4.8047h-8.3945v-4.8047h1.2913v-1.8457z" color="#000000" stroke-linejoin="round" stroke-miterlimit="8.5" style="-inkscape-stroke:none;paint-order:markers fill stroke"/><path id="path1154" d="m103.95 135.49v6.0514h2.0968v-6.0514h2.0968l-3.1452-3.7423-3.1452 3.7423z" stop-color="#000000" style="paint-order:markers fill stroke"/></g></g></g></svg>
