<?xml version="1.0" encoding="UTF-8"?>
<!-- Created with Inkscape (http://www.inkscape.org/) -->
<svg id="svg1354" width="16.933mm" height="16.933mm" version="1.1" viewBox="0 0 16.933 16.933" xml:space="preserve" xmlns="http://www.w3.org/2000/svg"><g id="layer1" transform="translate(-106.36 -53.394)"><circle id="Oval-1" cx="114.82" cy="61.861" r="8.4667" fill="#4da6bf" fill-rule="evenodd"/><path id="path1539" d="m117.01 55.246c-0.76083 0-1.3811 0.6203-1.3811 1.3811 0 0.48647 0.2536 0.91547 0.63539 1.1616l-0.57123 1.2597a2.0899 2.0899 0 0 0-0.4537-0.04996 2.0899 2.0899 0 0 0-1.7703 0.98216l-2.2541-1.0251c0.0259-0.11122 0.0397-0.22698 0.0397-0.34592 0-0.84014-0.68452-1.5247-1.5246-1.5247-0.84014 0-1.5247 0.68452-1.5247 1.5247 0 0.84014 0.68452 1.5253 1.5247 1.5253 0.5209 0 0.98188-0.26353 1.2571-0.66396l2.2497 1.0224a2.0899 2.0899 0 0 0-0.0872 0.59501 2.0899 2.0899 0 0 0 0.98918 1.7749l-1.5873 3.0893a1.2826 1.2826 0 0 0-0.32864-0.04277 1.2826 1.2826 0 0 0-1.2826 1.2827 1.2826 1.2826 0 0 0 1.2826 1.2826 1.2826 1.2826 0 0 0 1.2826-1.2826 1.2826 1.2826 0 0 0-0.45472-0.97977l1.6025-3.1194a2.0899 2.0899 0 0 0 0.58629 0.08486 2.0899 2.0899 0 0 0 1.1483-0.34489l1.6648 1.8814c-0.22872 0.28278-0.36611 0.64236-0.36611 1.0333 0 0.90734 0.73896 1.6463 1.6463 1.6463 0.90734 0 1.6463-0.73895 1.6463-1.6463 0-0.90734-0.73896-1.6463-1.6463-1.6463-0.3137 0-0.60723 0.08849-0.8571 0.24156l-1.6641-1.88a2.0899 2.0899 0 0 0 0.48844-1.0307h1.9713a1.1127 1.1127 0 0 0 1.0526 0.75428 1.1127 1.1127 0 0 0 1.1127-1.1127 1.1127 1.1127 0 0 0-1.1127-1.1127 1.1127 1.1127 0 0 0-1.093 0.9086h-1.9128a2.0899 2.0899 0 0 0-1.0954-1.6259l0.56815-1.2533c0.0714 0.01148 0.14471 0.01746 0.21933 0.01746 0.76081 0 1.3811-0.6203 1.3811-1.3811 0-0.76082-0.6203-1.3811-1.3811-1.3811zm0 0.33104c0.58188 0 1.0501 0.46818 1.0501 1.0501 0 0.5819-0.46819 1.0501-1.0501 1.0501-0.5819 0-1.0501-0.46818-1.0501-1.0501 0-0.5819 0.46819-1.0501 1.0501-1.0501zm-7.2801 1.8389c0.66122 0 1.1936 0.5324 1.1936 1.1936s-0.5324 1.1943-1.1936 1.1943c-0.66121 0-1.1936-0.53308-1.1936-1.1943s0.5324-1.1936 1.1936-1.1936zm9.6026 7.0168c0.72842 0 1.3151 0.58683 1.3151 1.3153 0 0.72842-0.58667 1.3151-1.3151 1.3151s-1.3152-0.58666-1.3152-1.3151c0-0.72842 0.58682-1.3153 1.3152-1.3153z" fill="#fff" stop-color="#000000" stroke-linejoin="round" stroke-miterlimit="8.5" stroke-width=".68505" style="paint-order:markers fill stroke"/></g></svg>
