<?xml version="1.0" encoding="UTF-8" standalone="no"?>
<!-- Created with Inkscape (http://www.inkscape.org/) -->

<svg
   width="16.933332mm"
   height="16.933332mm"
   viewBox="0 0 16.933332 16.933332"
   version="1.1"
   id="svg1354"
   xml:space="preserve"
   inkscape:version="1.2 (dc2aeda, 2022-05-15)"
   sodipodi:docname="c-fbmn.svg"
   xmlns:inkscape="http://www.inkscape.org/namespaces/inkscape"
   xmlns:sodipodi="http://sodipodi.sourceforge.net/DTD/sodipodi-0.dtd"
   xmlns="http://www.w3.org/2000/svg"
   xmlns:svg="http://www.w3.org/2000/svg"
   xmlns:sketch="http://www.bohemiancoding.com/sketch/ns"><sodipodi:namedview
     id="namedview1356"
     pagecolor="#ffffff"
     bordercolor="#000000"
     borderopacity="0.25"
     inkscape:showpageshadow="2"
     inkscape:pageopacity="0.0"
     inkscape:pagecheckerboard="0"
     inkscape:deskcolor="#d1d1d1"
     inkscape:document-units="mm"
     showgrid="false"
     inkscape:zoom="1.9407316"
     inkscape:cx="65.696874"
     inkscape:cy="59.256004"
     inkscape:window-width="1710"
     inkscape:window-height="982"
     inkscape:window-x="0"
     inkscape:window-y="39"
     inkscape:window-maximized="0"
     inkscape:current-layer="layer1" /><defs
     id="defs1351" /><g
     inkscape:label="Layer 1"
     inkscape:groupmode="layer"
     id="layer1"
     transform="translate(-106.35608,-53.393872)"><circle
       id="Oval-1"
       fill="#1191bb"
       sketch:type="MSShapeGroup"
       cx="114.82275"
       cy="61.860538"
       r="8.4666662"
       style="fill:#4da6bf;fill-opacity:1;fill-rule:evenodd;stroke:none;stroke-width:0.264583" /><path
       id="path1539"
       style="fill:#ffffff;fill-opacity:1;stroke-width:0.68505;stroke-linejoin:round;stroke-miterlimit:8.5;paint-order:markers fill stroke;stop-color:#000000"
       d="m 117.01185,55.245959 c -0.76083,0 -1.38113,0.620302 -1.38113,1.381118 0,0.486466 0.2536,0.915468 0.63539,1.161623 l -0.57123,1.259652 a 2.0899078,2.0899078 0 0 0 -0.4537,-0.04996 2.0899078,2.0899078 0 0 0 -1.77032,0.982162 l -2.25414,-1.025102 c 0.0259,-0.111221 0.0397,-0.226985 0.0397,-0.345921 0,-0.840135 -0.68452,-1.524652 -1.52465,-1.524652 -0.84014,0 -1.52466,0.684517 -1.52466,1.524652 0,0.840136 0.68452,1.525337 1.52466,1.525337 0.5209,0 0.98188,-0.263534 1.25708,-0.663956 l 2.24968,1.022365 a 2.0899078,2.0899078 0 0 0 -0.0872,0.595011 2.0899078,2.0899078 0 0 0 0.98918,1.774941 l -1.58727,3.089336 a 1.2826292,1.2826292 0 0 0 -0.32864,-0.04277 1.2826292,1.2826292 0 0 0 -1.28257,1.282746 1.2826292,1.2826292 0 0 0 1.28257,1.282577 1.2826292,1.2826292 0 0 0 1.28257,-1.282577 1.2826292,1.2826292 0 0 0 -0.45472,-0.979766 l 1.60249,-3.119448 a 2.0899078,2.0899078 0 0 0 0.58629,0.08486 2.0899078,2.0899078 0 0 0 1.14828,-0.344894 l 1.66476,1.88135 c -0.22872,0.282775 -0.36611,0.642359 -0.36611,1.033315 0,0.90734 0.73896,1.646289 1.64629,1.646289 0.90734,0 1.6463,-0.738949 1.6463,-1.646289 0,-0.907339 -0.73896,-1.646289 -1.6463,-1.646289 -0.3137,0 -0.60723,0.08849 -0.8571,0.241563 l -1.66408,-1.879983 a 2.0899078,2.0899078 0 0 0 0.48844,-1.030748 h 1.97133 a 1.1126758,1.1126758 0 0 0 1.05264,0.754285 1.1126758,1.1126758 0 0 0 1.1127,-1.112695 1.1126758,1.1126758 0 0 0 -1.1127,-1.112695 1.1126758,1.1126758 0 0 0 -1.09302,0.908598 h -1.91282 a 2.0899078,2.0899078 0 0 0 -1.09542,-1.625931 l 0.56815,-1.253321 c 0.0714,0.01148 0.14471,0.01746 0.21933,0.01746 0.76081,0 1.38111,-0.620302 1.38111,-1.381118 0,-0.760815 -0.6203,-1.381117 -1.38111,-1.381117 z m 0,0.331037 c 0.58188,0 1.05007,0.468182 1.05007,1.050081 0,0.581898 -0.46819,1.050079 -1.05007,1.050079 -0.5819,0 -1.05009,-0.468181 -1.05009,-1.050079 0,-0.581899 0.46819,-1.050081 1.05009,-1.050081 z m -7.28009,1.838924 c 0.66122,0 1.19362,0.532396 1.19362,1.193615 0,0.661219 -0.5324,1.1943 -1.19362,1.1943 -0.66121,0 -1.19361,-0.533081 -1.19361,-1.1943 0,-0.661219 0.5324,-1.193615 1.19361,-1.193615 z m 9.60264,7.016787 c 0.72842,0 1.31509,0.58683 1.31509,1.315252 0,0.728424 -0.58667,1.315082 -1.31509,1.315082 -0.72842,0 -1.31524,-0.586658 -1.31524,-1.315082 0,-0.728422 0.58682,-1.315252 1.31524,-1.315252 z" /></g></svg>
