<?xml version="1.0" encoding="UTF-8" standalone="no"?>
<!-- Created with Inkscape (http://www.inkscape.org/) -->

<svg
   width="16.933332mm"
   height="16.933332mm"
   viewBox="0 0 16.933332 16.933332"
   version="1.1"
   id="svg3021"
   xml:space="preserve"
   inkscape:version="1.2 (dc2aeda, 2022-05-15)"
   sodipodi:docname="c-filter-up.svg"
   xmlns:inkscape="http://www.inkscape.org/namespaces/inkscape"
   xmlns:sodipodi="http://sodipodi.sourceforge.net/DTD/sodipodi-0.dtd"
   xmlns="http://www.w3.org/2000/svg"
   xmlns:svg="http://www.w3.org/2000/svg"
   xmlns:sketch="http://www.bohemiancoding.com/sketch/ns"><sodipodi:namedview
     id="namedview3023"
     pagecolor="#ffffff"
     bordercolor="#000000"
     borderopacity="0.25"
     inkscape:showpageshadow="2"
     inkscape:pageopacity="0.0"
     inkscape:pagecheckerboard="0"
     inkscape:deskcolor="#d1d1d1"
     inkscape:document-units="mm"
     showgrid="false"
     inkscape:zoom="9.3277657"
     inkscape:cx="11.471129"
     inkscape:cy="32.162043"
     inkscape:window-width="1710"
     inkscape:window-height="982"
     inkscape:window-x="0"
     inkscape:window-y="39"
     inkscape:window-maximized="0"
     inkscape:current-layer="layer1" /><defs
     id="defs3018" /><g
     inkscape:label="Layer 1"
     inkscape:groupmode="layer"
     id="layer1"
     transform="translate(-37.112832,-39.207726)"><circle
       id="Oval-1"
       fill="#1191bb"
       sketch:type="MSShapeGroup"
       cx="45.579498"
       cy="47.674393"
       r="8.4666662"
       style="fill:#4da6bf;fill-opacity:1;fill-rule:evenodd;stroke:none;stroke-width:0.264583" /><path
       style="color:#000000;fill:#ffffff;stroke-width:0.894009;stroke-linejoin:round;stroke-miterlimit:8.5;-inkscape-stroke:none;paint-order:markers fill stroke"
       d="m 72.186528,39.280502 v 3.548304"
       id="path3757" /><path
       style="fill:#ffffff;fill-opacity:1;fill-rule:evenodd;stroke:none;stroke-width:0.264583"
       d="m 40.580986,53.986885 1.921329,-2.08101 1.920813,2.08101 z"
       id="path6517" /><path
       style="fill:#ffffff;fill-opacity:1;fill-rule:evenodd;stroke:none;stroke-width:0.264583"
       d="m 42.040328,46.069539 v 1.520838 h -4.924247 a 8.4666662,8.4666662 0 0 0 -0.0031,0.08423 8.4666662,8.4666662 0 0 0 0.03307,0.716236 h 4.894275 v 1.520837 l 2.081527,-1.920813 z"
       id="path6515" /><path
       style="fill:#ffffff;fill-opacity:1;fill-rule:evenodd;stroke:none;stroke-width:0.264583"
       d="m 45.056165,45.488696 v 10.632943 a 8.4666662,8.4666662 0 0 0 0.523482,0.01964 8.4666662,8.4666662 0 0 0 1.72961,-0.183451 V 45.488696 Z"
       id="path6513" /><path
       style="fill:#ffffff;fill-opacity:1;fill-rule:evenodd;stroke:none;stroke-width:0.264583"
       d="m 50.233626,42.166418 v 1.521871 h -12.11709 a 8.4666662,8.4666662 0 0 0 -0.377754,0.798918 h 12.494844 v 1.521354 l 2.081527,-1.920813 z"
       id="path6511" /><path
       style="fill:#ffffff;fill-opacity:1;fill-rule:evenodd;stroke:none;stroke-width:0.264583"
       d="m 45.579647,39.207943 a 8.4666662,8.4666662 0 0 0 -0.523482,0.01912 V 42.6868 h 2.253092 v -3.300574 a 8.4666662,8.4666662 0 0 0 -1.72961,-0.178283 z"
       id="circle3793" /><g
       id="path3741"
       transform="translate(0,0.41626353)"><path
         style="color:#000000;fill:#ffffff;stroke-width:0.8;stroke-linejoin:round;stroke-miterlimit:8.5;-inkscape-stroke:none;paint-order:markers fill stroke"
         d="M 63.130965,43.813511 H 76.418926"
         id="path3788" /></g><g
       id="path3745"><path
         style="color:#000000;fill:#ffffff;stroke-width:0.8;stroke-linejoin:round;stroke-miterlimit:8.5;-inkscape-stroke:none;paint-order:markers fill stroke"
         d="m 62.730206,48.132795 h 6.386012"
         id="path3763" /></g><g
       id="g3777"
       transform="matrix(1.3243792,0,0,0.6309797,-23.382493,20.845306)"><path
         style="color:#000000;fill:#ffffff;stroke-width:1.7;stroke-linejoin:round;stroke-miterlimit:8.5;-inkscape-stroke:none;paint-order:markers fill stroke"
         d="M 72.161373,39.280502 V 56.27263"
         id="path3773" /></g></g></svg>
