<?xml version="1.0" encoding="UTF-8"?>
<!-- Created with Inkscape (http://www.inkscape.org/) -->
<svg id="svg3021" width="16.933mm" height="16.933mm" version="1.1" viewBox="0 0 16.933 16.933" xml:space="preserve" xmlns="http://www.w3.org/2000/svg"><g id="layer1" transform="translate(-37.113 -39.208)"><circle id="Oval-1" cx="45.579" cy="47.674" r="8.4667" fill="#4da6bf" fill-rule="evenodd"/><path id="path3757" d="m72.187 39.281v3.5483" color="#000000" fill="#fff" stroke-linejoin="round" stroke-miterlimit="8.5" stroke-width=".89401" style="-inkscape-stroke:none;paint-order:markers fill stroke"/><path id="path6517" d="m40.581 53.987 1.9213-2.081 1.9208 2.081z" fill="#fff" fill-rule="evenodd"/><path id="path6515" d="m42.04 46.07v1.5208h-4.9242a8.4667 8.4667 0 0 0-0.0031 0.08423 8.4667 8.4667 0 0 0 0.03307 0.71624h4.8943v1.5208l2.0815-1.9208z" fill="#fff" fill-rule="evenodd"/><path id="path6513" d="m45.056 45.489v10.633a8.4667 8.4667 0 0 0 0.52348 0.01964 8.4667 8.4667 0 0 0 1.7296-0.18345v-10.469z" fill="#fff" fill-rule="evenodd"/><path id="path6511" d="m50.234 42.166v1.5219h-12.117a8.4667 8.4667 0 0 0-0.37775 0.79892h12.495v1.5214l2.0815-1.9208z" fill="#fff" fill-rule="evenodd"/><path id="circle3793" d="m45.58 39.208a8.4667 8.4667 0 0 0-0.52348 0.01912v3.4597h2.2531v-3.3006a8.4667 8.4667 0 0 0-1.7296-0.17828z" fill="#fff" fill-rule="evenodd"/><g id="path3741" transform="translate(0 .41626)"><path id="path3788" d="m63.131 43.814h13.288" color="#000000" fill="#fff" stroke-linejoin="round" stroke-miterlimit="8.5" stroke-width=".8" style="-inkscape-stroke:none;paint-order:markers fill stroke"/></g><g id="path3745"><path id="path3763" d="m62.73 48.133h6.386" color="#000000" fill="#fff" stroke-linejoin="round" stroke-miterlimit="8.5" stroke-width=".8" style="-inkscape-stroke:none;paint-order:markers fill stroke"/></g><g id="g3777" transform="matrix(1.3244 0 0 .63098 -23.382 20.845)"><path id="path3773" d="m72.161 39.281v16.992" color="#000000" fill="#fff" stroke-linejoin="round" stroke-miterlimit="8.5" stroke-width="1.7" style="-inkscape-stroke:none;paint-order:markers fill stroke"/></g></g></svg>
