<?xml version="1.0" encoding="UTF-8" standalone="no"?>
<svg
   width="64px"
   height="64px"
   viewBox="0 0 64 64"
   version="1.1"
   id="svg13657"
   sodipodi:docname="c-gear.svg"
   inkscape:version="1.2 (dc2aeda, 2022-05-15)"
   xmlns:inkscape="http://www.inkscape.org/namespaces/inkscape"
   xmlns:sodipodi="http://sodipodi.sourceforge.net/DTD/sodipodi-0.dtd"
   xmlns="http://www.w3.org/2000/svg"
   xmlns:svg="http://www.w3.org/2000/svg"
   xmlns:sketch="http://www.bohemiancoding.com/sketch/ns">
  <sodipodi:namedview
     id="namedview13659"
     pagecolor="#ffffff"
     bordercolor="#000000"
     borderopacity="0.25"
     inkscape:showpageshadow="2"
     inkscape:pageopacity="0.0"
     inkscape:pagecheckerboard="0"
     inkscape:deskcolor="#d1d1d1"
     showgrid="false"
     inkscape:zoom="3.6875"
     inkscape:cx="0.81355932"
     inkscape:cy="32.677966"
     inkscape:window-width="1536"
     inkscape:window-height="699"
     inkscape:window-x="0"
     inkscape:window-y="39"
     inkscape:window-maximized="0"
     inkscape:current-layer="svg13657" />
  <!-- Generator: Sketch 3.4 (15575) - http://www.bohemiancoding.com/sketch -->
  <title
     id="title13645">c-gear</title>
  <desc
     id="desc13647">Created with Sketch.</desc>
  <defs
     id="defs13649" />
  <path
     d="M 32,64 C 49.673112,64 64,49.673112 64,32 64,14.326888 49.673112,0 32,0 14.326888,0 0,14.326888 0,32 0,49.673112 14.326888,64 32,64 Z"
     id="Oval-1"
     fill="#1191bb"
     sketch:type="MSShapeGroup"
     style="fill-rule:evenodd;stroke:none;stroke-width:1;fill:#4da6bf;fill-opacity:1" />
  <path
     d="m 32,47 c 8.284271,0 15,-6.715729 15,-15 0,-8.284271 -6.715729,-15 -15,-15 -8.284271,0 -15,6.715729 -15,15 0,8.284271 6.715729,15 15,15 z m 0,-9 c 3.313708,0 6,-2.686292 6,-6 0,-3.313709 -2.686292,-6 -6,-6 -3.313709,0 -6,2.686291 -6,6 0,3.313708 2.686291,6 6,6 z"
     id="path13652"
     fill="#ffffff"
     sketch:type="MSShapeGroup"
     style="fill-rule:evenodd;stroke:none;stroke-width:1" />
  <path
     d="m 30,13 h 4 l 1,7 h -6 z m 14.020815,4.150758 2.828427,2.828427 -4.24264,5.656854 -4.242641,-4.242641 z M 51,30 v 4 l -7,1 v -6 z m -4.150758,14.020815 -2.828427,2.828427 -5.656854,-4.24264 4.242641,-4.242641 z M 34,51 h -4 l -1,-7 h 6 z m -14.020815,-4.150758 -2.828427,-2.828427 4.24264,-5.656854 4.242641,4.242641 z M 13,34 v -4 l 7,-1 v 6 z m 4.150758,-14.020815 2.828427,-2.828427 5.656854,4.24264 -4.242641,4.242641 z"
     id="Rectangle-35"
     fill="#ffffff"
     sketch:type="MSShapeGroup"
     style="fill-rule:evenodd;stroke:none;stroke-width:1" />
</svg>
