<?xml version="1.0" encoding="UTF-8"?>
<svg id="svg13657" width="64px" height="64px" version="1.1" viewBox="0 0 64 64" xmlns="http://www.w3.org/2000/svg">
 <!-- Generator: Sketch 3.4 (15575) - http://www.bohemiancoding.com/sketch -->
 <title id="title13645">c-gear</title>
 <desc id="desc13647">Created with Sketch.</desc>
 <path id="Oval-1" d="m32 64c17.673 0 32-14.327 32-32s-14.327-32-32-32-32 14.327-32 32 14.327 32 32 32z" fill="#4da6bf" fill-rule="evenodd"/>
 <path id="path13652" d="m32 47c8.2843 0 15-6.7157 15-15s-6.7157-15-15-15-15 6.7157-15 15 6.7157 15 15 15zm0-9c3.3137 0 6-2.6863 6-6 0-3.3137-2.6863-6-6-6-3.3137 0-6 2.6863-6 6 0 3.3137 2.6863 6 6 6z" fill="#fff" fill-rule="evenodd"/>
 <path id="Rectangle-35" d="m30 13h4l1 7h-6zm14.021 4.1508 2.8284 2.8284-4.2426 5.6569-4.2426-4.2426zm6.9792 12.849v4l-7 1v-6zm-4.1508 14.021-2.8284 2.8284-5.6569-4.2426 4.2426-4.2426zm-12.849 6.9792h-4l-1-7h6zm-14.021-4.1508-2.8284-2.8284 4.2426-5.6569 4.2426 4.2426zm-6.9792-12.849v-4l7-1v6zm4.1508-14.021 2.8284-2.8284 5.6569 4.2426-4.2426 4.2426z" fill="#fff" fill-rule="evenodd"/>
</svg>
