<?xml version="1.0" encoding="UTF-8"?>
<svg id="svg14892" width="64px" height="64px" version="1.1" viewBox="0 0 64 64" xmlns="http://www.w3.org/2000/svg">
 <!-- Generator: Sketch 3.4 (15575) - http://www.bohemiancoding.com/sketch -->
 <title id="title14882">c-information</title>
 <desc id="desc14884">Created with Sketch.</desc>
 <path id="Oval-1" d="m32 64c17.673 0 32-14.327 32-32s-14.327-32-32-32-32 14.327-32 32 14.327 32 32 32z" fill="#b3d9e5" fill-rule="evenodd"/>
 <path id="i" d="m35 24v26h-6v-26zm1-6.9617c0 0.54526-0.1097 1.0564-0.32911 1.5335s-0.51055 0.89457-0.87342 1.2524-0.78903 0.64324-1.2785 0.85623c-0.48945 0.21299-1.0127 0.31949-1.5696 0.31949-0.54009 0-1.0506-0.1065-1.5316-0.31949-0.48102-0.21299-0.89873-0.4984-1.2532-0.85623s-0.63713-0.77529-0.8481-1.2524c-0.21097-0.47711-0.31646-0.98828-0.31646-1.5335 0-0.5623 0.10548-1.0905 0.31646-1.5847 0.21097-0.49414 0.49367-0.92013 0.8481-1.278s0.77215-0.64324 1.2532-0.85623c0.48102-0.21299 0.99156-0.31949 1.5316-0.31949 0.55696 0 1.0802 0.1065 1.5696 0.31949 0.48945 0.21299 0.91561 0.4984 1.2785 0.85623s0.65401 0.78381 0.87342 1.278 0.32911 1.0224 0.32911 1.5847z" fill="#fff" fill-rule="evenodd"/>
</svg>
