<?xml version="1.0" encoding="UTF-8" standalone="no"?>
<svg
   width="64px"
   height="64px"
   viewBox="0 0 64 64"
   version="1.1"
   id="svg14892"
   sodipodi:docname="c-information.svg"
   inkscape:version="1.2 (dc2aeda, 2022-05-15)"
   xmlns:inkscape="http://www.inkscape.org/namespaces/inkscape"
   xmlns:sodipodi="http://sodipodi.sourceforge.net/DTD/sodipodi-0.dtd"
   xmlns="http://www.w3.org/2000/svg"
   xmlns:svg="http://www.w3.org/2000/svg"
   xmlns:sketch="http://www.bohemiancoding.com/sketch/ns">
  <sodipodi:namedview
     id="namedview14894"
     pagecolor="#ffffff"
     bordercolor="#000000"
     borderopacity="0.25"
     inkscape:showpageshadow="2"
     inkscape:pageopacity="0.0"
     inkscape:pagecheckerboard="0"
     inkscape:deskcolor="#d1d1d1"
     showgrid="false"
     inkscape:zoom="3.6875"
     inkscape:cx="0.94915254"
     inkscape:cy="32.40678"
     inkscape:window-width="1387"
     inkscape:window-height="547"
     inkscape:window-x="0"
     inkscape:window-y="39"
     inkscape:window-maximized="0"
     inkscape:current-layer="svg14892" />
  <!-- Generator: Sketch 3.4 (15575) - http://www.bohemiancoding.com/sketch -->
  <title
     id="title14882">c-information</title>
  <desc
     id="desc14884">Created with Sketch.</desc>
  <defs
     id="defs14886" />
  <path
     d="M 32,64 C 49.673112,64 64,49.673112 64,32 64,14.326888 49.673112,0 32,0 14.326888,0 0,14.326888 0,32 0,49.673112 14.326888,64 32,64 Z"
     id="Oval-1"
     fill="#a5d6e6"
     sketch:type="MSShapeGroup"
     style="fill-rule:evenodd;stroke:none;stroke-width:1;fill:#b3d9e5;fill-opacity:1" />
  <path
     d="M 35,24 V 50 H 29 V 24 Z m 1,-6.961661 c 0,0.545263 -0.109704,1.05644 -0.329114,1.533546 -0.21941,0.477106 -0.510547,0.894567 -0.873418,1.252396 -0.362871,0.357829 -0.789027,0.643237 -1.278481,0.85623 C 33.029533,20.893505 32.506332,21 31.949367,21 31.40928,21 30.898737,20.893505 30.417721,20.680511 29.936706,20.467518 29.518989,20.18211 29.164557,19.824281 28.810125,19.466452 28.527427,19.048991 28.316456,18.571885 28.105484,18.094779 28,17.583602 28,17.038339 c 0,-0.562304 0.105484,-1.09052 0.316456,-1.584665 0.210971,-0.494145 0.493669,-0.920126 0.848101,-1.277955 0.354432,-0.357829 0.772149,-0.643237 1.253164,-0.85623 C 30.898737,13.106495 31.40928,13 31.949367,13 c 0.556965,0 1.080166,0.106495 1.56962,0.319489 0.489454,0.212993 0.91561,0.498401 1.278481,0.85623 0.362871,0.357829 0.654008,0.78381 0.873418,1.277955 C 35.890296,15.947819 36,16.476035 36,17.038339 Z"
     id="i"
     fill="#ffffff"
     sketch:type="MSShapeGroup"
     style="fill-rule:evenodd;stroke:none;stroke-width:1" />
</svg>
