<?xml version="1.0" encoding="UTF-8" standalone="no"?>
<svg
   width="64px"
   height="64px"
   viewBox="0 0 64 64"
   version="1.1"
   id="svg16124"
   sodipodi:docname="c-key.svg"
   inkscape:version="1.2 (dc2aeda, 2022-05-15)"
   xmlns:inkscape="http://www.inkscape.org/namespaces/inkscape"
   xmlns:sodipodi="http://sodipodi.sourceforge.net/DTD/sodipodi-0.dtd"
   xmlns="http://www.w3.org/2000/svg"
   xmlns:svg="http://www.w3.org/2000/svg"
   xmlns:sketch="http://www.bohemiancoding.com/sketch/ns">
  <sodipodi:namedview
     id="namedview16126"
     pagecolor="#ffffff"
     bordercolor="#000000"
     borderopacity="0.25"
     inkscape:showpageshadow="2"
     inkscape:pageopacity="0.0"
     inkscape:pagecheckerboard="0"
     inkscape:deskcolor="#d1d1d1"
     showgrid="false"
     inkscape:zoom="3.6875"
     inkscape:cx="33.898305"
     inkscape:cy="32.542373"
     inkscape:window-width="1710"
     inkscape:window-height="982"
     inkscape:window-x="0"
     inkscape:window-y="39"
     inkscape:window-maximized="0"
     inkscape:current-layer="svg16124" />
  <!-- Generator: Sketch 3.4 (15575) - http://www.bohemiancoding.com/sketch -->
  <title
     id="title16114">c-key</title>
  <desc
     id="desc16116">Created with Sketch.</desc>
  <defs
     id="defs16118" />
  <circle
     id="Oval-1"
     fill="#1191bb"
     sketch:type="MSShapeGroup"
     cx="32"
     cy="32"
     r="32"
     style="fill-rule:evenodd;stroke:none;stroke-width:1;fill:#4da6bf;fill-opacity:1" />
  <path
     d="M 32.250119,36 C 30.649981,40.097357 26.663965,43 22,43 15.924868,43 11,38.075132 11,32 c 0,-6.075132 4.924868,-11 11,-11 4.663965,0 8.649981,2.902643 10.250119,7 H 49 l 4,4 -4,4 h -1 l -3,-2 -3,2 -3,-2 -3,2 z M 19,36 c 2.209139,0 4,-1.790861 4,-4 0,-2.209139 -1.790861,-4 -4,-4 -2.209139,0 -4,1.790861 -4,4 0,2.209139 1.790861,4 4,4 z"
     id="Oval-188"
     fill="#ffcc00"
     sketch:type="MSShapeGroup"
     style="fill-rule:evenodd;stroke:none;stroke-width:1;fill:#feffff;fill-opacity:1" />
</svg>
