<?xml version="1.0" encoding="UTF-8"?>
<svg id="svg16124" width="64px" height="64px" version="1.1" viewBox="0 0 64 64" xmlns="http://www.w3.org/2000/svg">
 <!-- Generator: Sketch 3.4 (15575) - http://www.bohemiancoding.com/sketch -->
 <title id="title16114">c-key</title>
 <desc id="desc16116">Created with Sketch.</desc>
 <circle id="Oval-1" cx="32" cy="32" r="32" fill="#4da6bf" fill-rule="evenodd"/>
 <path id="Oval-188" d="m32.25 36c-1.6001 4.0974-5.5862 7-10.25 7-6.0751 0-11-4.9249-11-11s4.9249-11 11-11c4.664 0 8.65 2.9026 10.25 7h16.75l4 4-4 4h-1l-3-2-3 2-3-2-3 2zm-13.25 0c2.2091 0 4-1.7909 4-4s-1.7909-4-4-4-4 1.7909-4 4 1.7909 4 4 4z" fill="#feffff" fill-rule="evenodd"/>
</svg>
