<?xml version="1.0" encoding="UTF-8" standalone="no"?>
<svg
   width="64px"
   height="64px"
   viewBox="0 0 64 64"
   version="1.1"
   id="svg19892"
   sodipodi:docname="c-log.svg"
   inkscape:version="1.2 (dc2aeda, 2022-05-15)"
   xmlns:inkscape="http://www.inkscape.org/namespaces/inkscape"
   xmlns:sodipodi="http://sodipodi.sourceforge.net/DTD/sodipodi-0.dtd"
   xmlns="http://www.w3.org/2000/svg"
   xmlns:svg="http://www.w3.org/2000/svg"
   xmlns:sketch="http://www.bohemiancoding.com/sketch/ns">
  <sodipodi:namedview
     id="namedview19894"
     pagecolor="#ffffff"
     bordercolor="#000000"
     borderopacity="0.25"
     inkscape:showpageshadow="2"
     inkscape:pageopacity="0.0"
     inkscape:pagecheckerboard="0"
     inkscape:deskcolor="#d1d1d1"
     showgrid="false"
     inkscape:zoom="3.6875"
     inkscape:cx="-32.677966"
     inkscape:cy="32"
     inkscape:window-width="1710"
     inkscape:window-height="982"
     inkscape:window-x="0"
     inkscape:window-y="39"
     inkscape:window-maximized="0"
     inkscape:current-layer="text26424" />
  <!-- Generator: Sketch 3.4 (15575) - http://www.bohemiancoding.com/sketch -->
  <title
     id="title19881">c-document</title>
  <desc
     id="desc19883">Created with Sketch.</desc>
  <defs
     id="defs19885" />
  <path
     d="M 32,64 C 49.673112,64 64,49.673112 64,32 64,14.326888 49.673112,0 32,0 14.326888,0 0,14.326888 0,32 0,49.673112 14.326888,64 32,64 Z"
     id="Oval-1"
     fill="#1191bb"
     sketch:type="MSShapeGroup"
     style="fill-rule:evenodd;stroke:none;stroke-width:1;fill:#4da6bf;fill-opacity:1" />
  <path
     d="M 18,14 H 47 V 50 H 18 Z m 19,0 H 47 V 24 H 37 Z"
     id="Rectangle-50"
     fill="#ffffff"
     sketch:type="MSShapeGroup"
     style="fill-rule:evenodd;stroke:none;stroke-width:1" />
  <path
     d="M 39,15.5 45.5,22 H 39 Z"
     id="Rectangle-52"
     fill="#ffffff"
     sketch:type="MSShapeGroup"
     style="fill-rule:evenodd;stroke:none;stroke-width:1" />
  <g
     aria-label="LOG"
     id="text26424"
     style="font-weight:900;font-size:12.4774px;font-family:Roboto;-inkscape-font-specification:'Roboto Heavy';text-align:center;text-anchor:middle;fill:#d40f57;stroke-width:11.7897;stroke-linejoin:round;stroke-miterlimit:8.5;paint-order:markers fill stroke">
    <path
       d="m 23.327772,43.166993 h 3.88091 v 1.468288 h -5.708654 v -8.870652 h 1.827744 z"
       style="-inkscape-font-specification:'Roboto Bold'"
       id="path27575" />
    <path
       d="m 35.153277,40.401007 q 0,1.309883 -0.463029,2.296865 -0.463028,0.986982 -1.32816,1.52312 -0.85904,0.536138 -1.973964,0.536138 -1.102739,0 -1.967871,-0.530046 -0.865132,-0.530045 -1.340346,-1.510935 -0.475213,-0.986982 -0.481306,-2.266402 v -0.438659 q 0,-1.309883 0.469121,-2.302958 0.475214,-0.999166 1.334253,-1.529212 0.865133,-0.536138 1.973964,-0.536138 1.108831,0 1.967871,0.536138 0.865132,0.530046 1.334253,1.529212 0.475214,0.993075 0.475214,2.296866 z m -1.852114,-0.402104 q 0,-1.395178 -0.499584,-2.120183 -0.499583,-0.725005 -1.42564,-0.725005 -0.919965,0 -1.419548,0.718912 -0.499583,0.712821 -0.505676,2.095814 v 0.432566 q 0,1.358623 0.499584,2.107998 0.499583,0.749375 1.437825,0.749375 0.919964,0 1.413455,-0.718913 0.493491,-0.725005 0.499584,-2.107998 z"
       style="-inkscape-font-specification:'Roboto Bold'"
       id="path27577" />
    <path
       d="m 43.499975,43.514264 q -0.493491,0.590971 -1.395178,0.919965 -0.901687,0.322901 -1.998334,0.322901 -1.151479,0 -2.022703,-0.499583 -0.865133,-0.505676 -1.340346,-1.462195 -0.469121,-0.95652 -0.481306,-2.248126 v -0.603155 q 0,-1.328161 0.444751,-2.296865 0.450844,-0.974797 1.291606,-1.486566 0.846855,-0.51786 1.980056,-0.51786 1.577952,0 2.467455,0.755467 0.889502,0.749375 1.053999,2.187201 H 41.72097 q -0.121849,-0.76156 -0.54223,-1.114924 -0.414289,-0.353364 -1.145387,-0.353364 -0.932149,0 -1.419548,0.700635 -0.487398,0.700635 -0.49349,2.083628 v 0.566601 q 0,1.395178 0.530045,2.107998 0.530046,0.71282 1.553583,0.71282 1.029629,0 1.468288,-0.438658 v -1.529213 h -1.663248 v -1.346438 h 3.490992 z"
       style="-inkscape-font-specification:'Roboto Bold'"
       id="path27579" />
  </g>
</svg>
