<?xml version="1.0" encoding="UTF-8"?>
<!-- Created with Inkscape (http://www.inkscape.org/) -->
<svg id="svg20748" width="16.933mm" height="16.933mm" version="1.1" viewBox="0 0 16.933 16.933" xml:space="preserve" xmlns="http://www.w3.org/2000/svg"><g id="layer1" transform="translate(-173.07 -113.89)"><circle id="Oval-1" cx="181.53" cy="122.36" r="8.4667" fill="#4da6bf" fill-rule="evenodd"/><g id="g26203" transform="matrix(.37381 0 0 .37381 151.59 106.72)" fill="#fff"><g id="path26132" stroke-linejoin="round" stroke-miterlimit="8.5"><path id="path26168" d="m65.152 31.768h24.903" color="#000000" stroke-width="3.067" style="paint-order:markers fill stroke"/><path id="path26170" d="m65.152 30.234v3.0684h24.902v-3.0684z" color="#000000" style="paint-order:markers fill stroke"/></g><g id="path26134" stroke-linejoin="round" stroke-miterlimit="8.5"><path id="path26150" d="m65.152 51.877h24.903" color="#000000" stroke-width="3.067" style="paint-order:markers fill stroke"/><path id="path26152" d="m65.152 50.344v3.0664h24.902v-3.0664z" color="#000000" style="paint-order:markers fill stroke"/></g><g id="path26136" stroke-linejoin="round" stroke-miterlimit="8.5"><path id="path26156" d="m65.152 45.174h18.553" color="#000000" stroke-width="3.067" style="paint-order:markers fill stroke"/><path id="path26158" d="m65.152 43.641v3.0664h18.553v-3.0664z" color="#000000" style="paint-order:markers fill stroke"/></g><g id="path26138" stroke-linejoin="round" stroke-miterlimit="8.5"><path id="path26162" d="m65.152 38.471h18.553" color="#000000" stroke-width="3.067" style="paint-order:markers fill stroke"/><path id="path26164" d="m65.152 36.938v3.0664h18.553v-3.0664z" color="#000000" style="paint-order:markers fill stroke"/></g><g id="g26146" transform="translate(0 .18801)"><g id="path26140" stroke-linejoin="round" stroke-miterlimit="8.5"><path id="path26174" d="m88.306 41.635h9.596" color="#000000" stroke-width="2" style="paint-order:markers fill stroke"/><path id="path26176" d="m92.103 36.836v3.7987h-3.7987v1.9999h3.7987v3.7972h1.9999v-3.7972h3.7993v-1.9999h-3.7993v-3.7987z" color="#000000" style="paint-order:markers fill stroke"/></g><g id="path26142"><path id="path26180" d="m93.103 36.837v9.596" color="#000000" fill="#fff" stroke-linejoin="round" stroke-miterlimit="8.5" stroke-width="2" style="paint-order:markers fill stroke"/></g></g></g></g></svg>
