<?xml version="1.0" encoding="UTF-8"?>
<svg id="svg19892" width="64px" height="64px" version="1.1" viewBox="0 0 64 64" xmlns="http://www.w3.org/2000/svg">
 <!-- Generator: Sketch 3.4 (15575) - http://www.bohemiancoding.com/sketch -->
 <title id="title19881">c-document</title>
 <desc id="desc19883">Created with Sketch.</desc>
 <path id="Oval-1" d="m32 64c17.673 0 32-14.327 32-32s-14.327-32-32-32-32 14.327-32 32 14.327 32 32 32z" fill="#4da6bf" fill-rule="evenodd"/>
 <path id="Rectangle-50" d="m18 14h29v36h-29zm19 0h10v10h-10z" fill="#fff" fill-rule="evenodd"/>
 <path id="Rectangle-52" d="m39 15.5 6.5 6.5h-6.5z" fill="#fff" fill-rule="evenodd"/>
 <g id="text26424" fill="#d40f57" stroke-linejoin="round" stroke-miterlimit="8.5" stroke-width="11.79" style="paint-order:markers fill stroke" aria-label="LOG">
  <path id="path27575" d="m23.328 43.167h3.8809v1.4683h-5.7087v-8.8707h1.8277z"/>
  <path id="path27577" d="m35.153 40.401q0 1.3099-0.46303 2.2969-0.46303 0.98698-1.3282 1.5231-0.85904 0.53614-1.974 0.53614-1.1027 0-1.9679-0.53005-0.86513-0.53004-1.3403-1.5109-0.47521-0.98698-0.48131-2.2664v-0.43866q0-1.3099 0.46912-2.303 0.47521-0.99917 1.3343-1.5292 0.86513-0.53614 1.974-0.53614t1.9679 0.53614q0.86513 0.53005 1.3343 1.5292 0.47521 0.99308 0.47521 2.2969zm-1.8521-0.4021q0-1.3952-0.49958-2.1202-0.49958-0.725-1.4256-0.725-0.91996 0-1.4195 0.71891-0.49958 0.71282-0.50568 2.0958v0.43257q0 1.3586 0.49958 2.108 0.49958 0.74938 1.4378 0.74938 0.91996 0 1.4135-0.71891 0.49349-0.725 0.49958-2.108z"/>
  <path id="path27579" d="m43.5 43.514q-0.49349 0.59097-1.3952 0.91996-0.90169 0.3229-1.9983 0.3229-1.1515 0-2.0227-0.49958-0.86513-0.50568-1.3403-1.4622-0.46912-0.95652-0.48131-2.2481v-0.60316q0-1.3282 0.44475-2.2969 0.45084-0.9748 1.2916-1.4866 0.84686-0.51786 1.9801-0.51786 1.578 0 2.4675 0.75547 0.8895 0.74938 1.054 2.1872h-1.779q-0.12185-0.76156-0.54223-1.1149-0.41429-0.35336-1.1454-0.35336-0.93215 0-1.4195 0.70064-0.4874 0.70064-0.49349 2.0836v0.5666q0 1.3952 0.53004 2.108 0.53005 0.71282 1.5536 0.71282 1.0296 0 1.4683-0.43866v-1.5292h-1.6632v-1.3464h3.491z"/>
 </g>
</svg>
