<?xml version="1.0" encoding="UTF-8"?>
<svg id="svg27611" width="64px" height="64px" version="1.1" viewBox="0 0 64 64" xmlns="http://www.w3.org/2000/svg">
 <!-- Generator: Sketch 3.4 (15575) - http://www.bohemiancoding.com/sketch -->
 <path id="Oval-1" d="m32 64c17.673 0 32-14.327 32-32s-14.327-32-32-32-32 14.327-32 32 14.327 32 32 32z" fill="#4da6bf" fill-rule="evenodd"/>
 <title id="title27600">c-magnify-minus</title>
 <path id="path28517" d="m26.314 13.469c-7.1319 0-12.945 5.8134-12.945 12.945 0 7.1319 5.8134 12.945 12.945 12.945 2.5081 0 4.8514-0.72238 6.8379-1.9648l12.406 12.393 4.2344-4.2402-12.424-12.408c1.1986-1.9617 1.8906-4.2649 1.8906-6.7246 0-7.1319-5.8134-12.945-12.945-12.945zm0 3c5.5106 0 9.9453 4.4347 9.9453 9.9453 0 5.5106-4.4347 9.9453-9.9453 9.9453-5.5106 0-9.9453-4.4347-9.9453-9.9453 0-5.5106 4.4347-9.9453 9.9453-9.9453z" color="#000000" fill="#fff" stroke-linejoin="round" stroke-miterlimit="8.5" style="-inkscape-stroke:none;paint-order:markers fill stroke"/>
 <desc id="desc27602">Created with Sketch.</desc>
 <path id="path28582" d="m19.927 24.914v3h12.775v-3z" color="#000000" fill="#fff" stroke-linejoin="round" stroke-miterlimit="8.5" style="-inkscape-stroke:none;paint-order:markers fill stroke"/>
</svg>
