<?xml version="1.0" encoding="UTF-8" standalone="no"?>
<!-- Created with Inkscape (http://www.inkscape.org/) -->

<svg
   width="16.933329mm"
   height="16.933331mm"
   viewBox="0 0 16.933329 16.933331"
   version="1.1"
   id="svg58931"
   inkscape:version="1.2 (dc2aeda, 2022-05-15)"
   sodipodi:docname="c-molecularProperty.svg"
   xml:space="preserve"
   xmlns:inkscape="http://www.inkscape.org/namespaces/inkscape"
   xmlns:sodipodi="http://sodipodi.sourceforge.net/DTD/sodipodi-0.dtd"
   xmlns="http://www.w3.org/2000/svg"
   xmlns:svg="http://www.w3.org/2000/svg"
   xmlns:sketch="http://www.bohemiancoding.com/sketch/ns"><sodipodi:namedview
     id="namedview58933"
     pagecolor="#ffffff"
     bordercolor="#000000"
     borderopacity="0.25"
     inkscape:showpageshadow="2"
     inkscape:pageopacity="0.0"
     inkscape:pagecheckerboard="0"
     inkscape:deskcolor="#d1d1d1"
     inkscape:document-units="mm"
     showgrid="false"
     inkscape:zoom="3.176933"
     inkscape:cx="-27.227518"
     inkscape:cy="-6.6101488"
     inkscape:window-width="1608"
     inkscape:window-height="712"
     inkscape:window-x="0"
     inkscape:window-y="39"
     inkscape:window-maximized="0"
     inkscape:current-layer="layer1" /><defs
     id="defs58928" /><g
     inkscape:label="Layer 1"
     inkscape:groupmode="layer"
     id="layer1"
     transform="translate(97.146369,-57.901339)"><path
       d="m -88.6797,74.834669 c 4.67601,0 8.46666,-3.79065 8.46666,-8.46666 0,-4.67601 -3.79065,-8.46667 -8.46666,-8.46667 -4.676013,0 -8.466669,3.79066 -8.466669,8.46667 0,4.67601 3.790656,8.46666 8.466669,8.46666 z"
       id="Oval-1"
       fill="#1191bb"
       sketch:type="MSShapeGroup"
       style="fill:#4da6bf;fill-opacity:1;fill-rule:evenodd;stroke:none;stroke-width:0.264583" /><path
       id="path86162"
       style="fill:#ffffff;fill-opacity:1;fill-rule:evenodd;stroke:none;stroke-width:0.264583"
       d="M -88.622341 61.076856 L -92.892365 63.502031 L -92.970397 63.457072 L -95.814667 61.808077 C -95.935952 61.997461 -96.049515 62.192226 -96.155732 62.391504 L -93.30836 64.040499 L -93.27167 64.061686 L -93.275804 68.568905 L -93.416881 68.650554 L -96.199657 70.261825 C -96.095719 70.462145 -95.983871 70.65779 -95.864793 70.848352 L -93.078917 69.233981 L -92.980215 69.177137 L -88.63216 71.659156 L -83.983348 69.01849 L -83.982831 68.825737 L -83.978697 64.090625 L -83.940457 64.068921 L -81.166983 62.460751 C -81.271183 62.260808 -81.383065 62.06544 -81.502363 61.875257 L -84.278421 63.483427 L -84.341983 63.520117 L -88.622341 61.076856 z M -88.623892 61.850969 L -84.658242 64.11388 L -84.662376 68.631433 L -88.631126 70.885559 L -92.596259 68.622132 L -92.592125 64.105095 L -88.623892 61.850969 z M -85.769286 64.394999 L -85.769286 68.405091 L -85.094391 68.405091 L -85.094391 64.394999 L -85.769286 64.394999 z " /></g></svg>
