<?xml version="1.0" encoding="UTF-8"?>
<!-- Created with Inkscape (http://www.inkscape.org/) -->
<svg id="svg58931" width="16.933mm" height="16.933mm" version="1.1" viewBox="0 0 16.933 16.933" xml:space="preserve" xmlns="http://www.w3.org/2000/svg"><g id="layer1" transform="translate(97.146 -57.901)" fill-rule="evenodd"><path id="Oval-1" d="m-88.68 74.835c4.676 0 8.4667-3.7906 8.4667-8.4667s-3.7906-8.4667-8.4667-8.4667c-4.676 0-8.4667 3.7907-8.4667 8.4667s3.7907 8.4667 8.4667 8.4667z" fill="#4da6bf"/><path id="path86162" d="m-88.622 61.077-4.27 2.4252-0.078032-0.044959-2.8443-1.649c-0.12128 0.18938-0.23485 0.38415-0.34106 0.58343l2.8474 1.649 0.03669 0.021187-0.004134 4.5072-0.14108 0.081649-2.7828 1.6113c0.10394 0.20032 0.21579 0.39596 0.33486 0.58653l2.7859-1.6144 0.098702-0.056844 4.3481 2.482 4.6488-2.6407 5.17e-4 -0.19275 0.004134-4.7351 0.03824-0.021704 2.7735-1.6082c-0.1042-0.19994-0.21608-0.39531-0.33538-0.58549l-2.7761 1.6082-0.063562 0.03669-4.2804-2.4433zm-0.001551 0.77411 3.9656 2.2629-0.004134 4.5176-3.9688 2.2541-3.9651-2.2634 0.004134-4.517 3.9682-2.2541zm2.8546 2.544v4.0101h0.6749v-4.0101h-0.6749z" fill="#fff"/></g></svg>
