<?xml version="1.0" encoding="UTF-8" standalone="no"?>
<!-- Created with Inkscape (http://www.inkscape.org/) -->

<svg
   width="14.152828mm"
   height="14.152824mm"
   viewBox="0 0 14.152828 14.152824"
   version="1.1"
   id="svg5"
   xml:space="preserve"
   sodipodi:docname="c-msnovelist.svg"
   inkscape:version="1.3.1 (9b9bdc1480, 2023-11-25, custom)"
   xmlns:inkscape="http://www.inkscape.org/namespaces/inkscape"
   xmlns:sodipodi="http://sodipodi.sourceforge.net/DTD/sodipodi-0.dtd"
   xmlns="http://www.w3.org/2000/svg"
   xmlns:svg="http://www.w3.org/2000/svg"><sodipodi:namedview
     id="namedview75838"
     pagecolor="#ffffff"
     bordercolor="#000000"
     borderopacity="0.25"
     inkscape:showpageshadow="2"
     inkscape:pageopacity="0.0"
     inkscape:pagecheckerboard="0"
     inkscape:deskcolor="#d1d1d1"
     inkscape:document-units="mm"
     showgrid="false"
     inkscape:zoom="4.411958"
     inkscape:cx="0.22665674"
     inkscape:cy="26.632166"
     inkscape:window-width="3778"
     inkscape:window-height="2091"
     inkscape:window-x="62"
     inkscape:window-y="32"
     inkscape:window-maximized="1"
     inkscape:current-layer="svg5" /><defs
     id="defs2" /><circle
     style="fill:#4da6bf;fill-opacity:1;stroke:none;stroke-width:1.41531;stroke-linejoin:round;stroke-miterlimit:8.5;paint-order:markers fill stroke;stop-color:#000000"
     id="path234"
     cx="7.0764136"
     cy="7.0764141"
     r="7.0764136" /><path
     style="color:#000000;fill:#ffffff;stroke-linecap:round;stroke-linejoin:round;stroke-miterlimit:8.5;paint-order:markers fill stroke"
     d="m 6.337722,3.045976 a 0.25,0.25 0 0 0 -0.34375,0.08789 L 4.365066,5.876054 a 0.25,0.25 0 0 0 0.08594,0.34375 0.25,0.25 0 0 0 0.343747,-0.08789 L 6.42366,3.389726 A 0.25,0.25 0 0 0 6.33772,3.045976 Z"
     id="path20327" /><path
     style="color:#000000;fill:#ffffff;stroke-width:0.0730801;stroke-linecap:round;stroke-linejoin:round"
     d="m 2.8792734,10.51094 a 0.24639339,0.25365964 45.002131 0 0 -0.00303,0.353559 l 1.1690573,1.155218 a 0.24639339,0.25365964 45.002131 0 0 0.3535189,-0.0071 0.24639339,0.25365964 45.002131 0 0 0.00313,-0.35346 l -1.1689549,-1.15532 a 0.24639339,0.25365964 45.002131 0 0 -0.3537207,0.0071 z"
     id="path103132" /><g
     id="path21259"
     transform="translate(-11.367356,-53.868086)"><g
       id="g39073"><g
         id="path39075"><path
           style="color:#000000;fill:#ffffff;fill-rule:evenodd;stroke-width:0.121845pt"
           d="m 15.436993,57.812802 -1.192264,-0.24593 0.8103,-0.909958 z"
           id="path39079" /><path
           style="color:#000000;fill:#ffffff;fill-rule:evenodd"
           d="m 15.087891,56.498047 -0.998047,1.11914 1.46875,0.302735 -0.04492,-0.132813 z m -0.06445,0.316406 0.291015,0.890625 -0.916015,-0.189453 z"
           id="path39081" /></g></g><path
       style="color:#000000;fill:#ffffff;stroke-linecap:square;stroke-linejoin:round;stroke-miterlimit:8.5;paint-order:markers fill stroke"
       d="m 14.261719,56.431641 -0.332031,0.373046 0.185546,0.166016 0.63086,0.560547 0.185547,0.166016 0.333984,-0.373047 -0.1875,-0.166016 -0.628906,-0.560547 z"
       id="path39083" /></g><g
     id="path21553"
     transform="translate(-11.367356,-53.868086)"><g
       id="g39099"><g
         id="path39101"><path
           style="color:#000000;fill:#ffffff;fill-rule:evenodd;stroke-width:0.121845pt"
           d="m 22.21286,59.62134 0.70471,-0.992652 0.507189,1.107867 z"
           id="path39105" /><path
           style="color:#000000;fill:#ffffff;fill-rule:evenodd"
           d="m 22.933594,58.466797 -0.869141,1.222656 0.140625,0.01367 1.351563,0.126953 z m -0.03125,0.324219 0.390625,0.851562 -0.933594,-0.08789 z"
           id="path39107" /></g></g><path
       style="color:#000000;fill:#ffffff;stroke-linecap:square;stroke-linejoin:round;stroke-miterlimit:8.5;paint-order:markers fill stroke"
       d="M 23.742187,58.646484 23.515625,58.75 l -0.767578,0.351562 -0.226563,0.103516 0.207032,0.455078 0.228515,-0.103515 0.765625,-0.351563 0.228516,-0.103516 z"
       id="path39109" /></g><g
     aria-label="N"
     id="text21671"
     style="font-size:2.09572px;line-height:1;font-family:'Roboto Condensed';-inkscape-font-specification:'Roboto Condensed, ';text-align:center;text-anchor:middle;fill:#ffffff;stroke-width:0.247525;stroke-linecap:square;stroke-linejoin:round;stroke-miterlimit:8.5;paint-order:markers fill stroke;stop-color:#000000"
     transform="translate(-11.367356,-53.868086)"><path
       d="m 23.395714,63.005821 h -0.188287 l -0.596585,-1.148143 v 1.148143 h -0.188287 v -1.489926 h 0.188287 l 0.598631,1.15326 v -1.15326 h 0.186241 z"
       style="stroke-width:0.247526;fill:#ffffff;fill-opacity:1"
       id="path39037" /></g><g
     aria-label="N"
     id="text21725"
     style="font-size:2.09572px;line-height:1;font-family:'Roboto Condensed';-inkscape-font-specification:'Roboto Condensed, ';text-align:center;text-anchor:middle;fill:#ffffff;stroke-width:0.247525;stroke-linecap:square;stroke-linejoin:round;stroke-miterlimit:8.5;paint-order:markers fill stroke;stop-color:#000000"
     transform="translate(-11.367356,-53.868086)"><path
       d="M 13.378477,61.191597 H 13.19019 l -0.596585,-1.148144 v 1.148144 h -0.188287 v -1.489926 h 0.188287 l 0.598631,1.15326 v -1.15326 h 0.186241 z"
       style="stroke-width:0.247526;fill:#ffffff;fill-opacity:1"
       id="path39034" /></g><g
     id="path21889"
     transform="translate(-11.367356,-53.868086)"><g
       id="g39157"><g
         id="path39159"><path
           style="color:#000000;fill:#ffffff;fill-rule:evenodd;stroke-width:0.121845pt"
           d="m 17.733862,62.783824 0.278006,1.185195 -1.166267,-0.352748 z"
           id="path39163" /><path
           style="color:#000000;fill:#ffffff;fill-rule:evenodd"
           d="m 17.78125,62.628906 -0.103516,0.0957 -0.990234,0.927735 1.435547,0.435547 z m -0.09375,0.310547 0.212891,0.910156 -0.896485,-0.269531 z"
           id="path39165" /></g></g><path
       style="color:#000000;fill:#ffffff;stroke-linecap:square;stroke-linejoin:round;stroke-miterlimit:8.5;paint-order:markers fill stroke"
       d="m 17.363281,63.144531 -0.07227,0.240235 -0.244141,0.80664 -0.07227,0.240235 0.478516,0.144531 0.07227,-0.240235 0.24414,-0.80664 0.07227,-0.240235 z"
       id="path39167" /></g><path
     style="color:#000000;fill:#ffffff;stroke-width:0.0730801;stroke-linecap:round;stroke-linejoin:round"
     d="m 3.3886164,9.9602987 a 0.24639339,0.25365964 45.002131 0 0 -0.00303,0.3535593 l 1.1690573,1.155218 a 0.24639339,0.25365964 45.002131 0 0 0.3535189,-0.0071 0.24639339,0.25365964 45.002131 0 0 0.00313,-0.35346 L 3.7423371,9.9531538 a 0.24639339,0.25365964 45.002131 0 0 -0.3537207,0.00714 z"
     id="path38666" /><path
     style="color:#000000;fill:#ffffff;stroke-width:0.0730801;stroke-linecap:round;stroke-linejoin:round"
     d="m 8.0674706,11.697788 a 0.25365965,0.24639339 72.074656 0 0 -0.3134407,-0.16361 l -1.5607,0.515208 a 0.25365965,0.24639339 72.074656 0 0 -0.1545327,0.318035 0.25365965,0.24639339 72.074656 0 0 0.3133069,0.163653 l 1.5607445,-0.51507 a 0.25365965,0.24639339 72.074656 0 0 0.154622,-0.318216 z"
     id="path38674" /><g
     aria-label="C"
     id="text38696"
     style="font-size:2.09572px;line-height:1;font-family:'Roboto Condensed';-inkscape-font-specification:'Roboto Condensed, ';text-align:center;text-anchor:middle;fill:#ffffff;stroke-width:0.247525;stroke-linecap:square;stroke-linejoin:round;stroke-miterlimit:8.5;paint-order:markers fill stroke;stop-color:#000000"
     transform="translate(-11.367356,-53.868086)"><path
       d="m 17.155237,66.485418 q -0.01228,0.239453 -0.135076,0.366342 -0.121773,0.126889 -0.344852,0.126889 -0.224103,0 -0.356109,-0.169868 -0.132006,-0.170891 -0.132006,-0.462532 v -0.270151 q 0,-0.290617 0.135076,-0.459462 0.136099,-0.168845 0.370435,-0.168845 0.215916,0 0.333596,0.129959 0.118703,0.128936 0.128936,0.369412 h -0.189311 q -0.01228,-0.182147 -0.07675,-0.259918 -0.06447,-0.07777 -0.196474,-0.07777 -0.152472,0 -0.234336,0.119726 -0.08186,0.118703 -0.08186,0.348946 v 0.273221 q 0,0.226149 0.07572,0.346899 0.07675,0.120749 0.22308,0.120749 0.146332,0 0.2108,-0.07265 0.06447,-0.07265 0.07982,-0.260942 z"
       style="stroke-width:0.247526;fill:#ffffff;fill-opacity:1"
       id="path39045" /></g><g
     aria-label="OH"
     id="text38802"
     style="font-size:2.09572px;line-height:1;font-family:'Roboto Condensed';-inkscape-font-specification:'Roboto Condensed, ';text-align:center;text-anchor:middle;fill:#ffffff;stroke-width:0.247525;stroke-linecap:square;stroke-linejoin:round;stroke-miterlimit:8.5;paint-order:markers fill stroke;stop-color:#000000"
     transform="translate(-11.367356,-53.868086)"><path
       d="m 20.662268,65.532008 q 0,0.304944 -0.129959,0.469695 -0.129959,0.164751 -0.369411,0.164751 -0.230243,0 -0.364295,-0.159634 -0.13303,-0.160659 -0.138146,-0.453323 v -0.280384 q 0,-0.298804 0.132006,-0.467649 0.132006,-0.169868 0.368388,-0.169868 0.235359,0 0.366342,0.162705 0.132005,0.161682 0.135075,0.462532 z m -0.187264,-0.260942 q 0,-0.236382 -0.07777,-0.350992 -0.07675,-0.115633 -0.236382,-0.115633 -0.154518,0 -0.234336,0.116656 -0.07879,0.116657 -0.07982,0.343829 v 0.267082 q 0,0.228196 0.07879,0.347922 0.07982,0.119726 0.237406,0.119726 0.157588,0 0.233312,-0.110516 0.07572,-0.110517 0.07879,-0.338713 z"
       style="stroke-width:0.247526;fill:#ffffff;fill-opacity:1"
       id="path39040" /><path
       d="m 21.927068,66.145988 h -0.188287 v -0.688681 h -0.599654 v 0.688681 h -0.187265 v -1.489926 h 0.187265 v 0.640587 h 0.599654 v -0.640587 h 0.188287 z"
       style="stroke-width:0.247526;fill:#ffffff;fill-opacity:1"
       id="path39042" /></g><g
     aria-label="O"
     id="text38806"
     style="font-size:2.09572px;line-height:1;font-family:'Roboto Condensed';-inkscape-font-specification:'Roboto Condensed, ';text-align:center;text-anchor:middle;fill:#ffffff;stroke-width:0.247525;stroke-linecap:square;stroke-linejoin:round;stroke-miterlimit:8.5;paint-order:markers fill stroke;stop-color:#000000"
     transform="translate(-11.367356,-53.868086)"><path
       d="m 14.484117,63.563464 q 0,0.304944 -0.129959,0.469695 -0.12996,0.164751 -0.369412,0.164751 -0.230243,0 -0.364295,-0.159634 -0.133029,-0.160659 -0.138146,-0.453323 v -0.280384 q 0,-0.298804 0.132006,-0.467649 0.132006,-0.169868 0.368388,-0.169868 0.23536,0 0.366342,0.162705 0.132006,0.161682 0.135076,0.462532 z m -0.187264,-0.260942 q 0,-0.236382 -0.07777,-0.350992 -0.07675,-0.115633 -0.236383,-0.115633 -0.154518,0 -0.234335,0.116656 -0.0788,0.116657 -0.07982,0.343829 v 0.267082 q 0,0.228196 0.07879,0.347922 0.07982,0.119726 0.237406,0.119726 0.157588,0 0.233313,-0.110516 0.07572,-0.110517 0.07879,-0.338713 z"
       style="stroke-width:0.247526;fill:#ffffff;fill-opacity:1"
       id="path39048" /></g><path
     id="circle39918"
     style="fill:#ffffff;fill-opacity:1;stroke:none;stroke-width:1.41531;stroke-linejoin:round;stroke-miterlimit:8.5;paint-order:markers fill stroke;stop-color:#000000"
     d="m 5.27969,13.29939 a 0.24639339,0.25365964 45.002131 0 0 -0.177767,0.07597 0.24639339,0.25365964 45.002131 0 0 -0.07545,0.178283 l -0.0036,0.293523 a 7.0764136,7.0764136 0 0 0 0.498161,0.131774 l 0.0057,-0.433565 a 0.24639339,0.25365964 45.002131 0 0 -0.247013,-0.24598 z" /><path
     id="circle39998"
     style="fill:#ffffff;fill-opacity:1;stroke:none;stroke-width:1.41531;stroke-linejoin:round;stroke-miterlimit:8.5;paint-order:markers fill stroke;stop-color:#000000"
     d="M 5.590265,0.160657 A 7.0764136,7.0764136 0 0 0 4.840957,0.366846 L 5.130862,0.36633 6.88631,3.399736 5.136546,6.43676 2.507766,6.44456 A 0.25,0.25 0 0 0 2.257652,6.694674 0.25,0.25 0 0 0 2.507766,6.944271 L 5.28279,6.936471 A 0.250025,0.250025 0 0 0 5.497764,6.811414 L 7.392222,3.524276 a 0.250025,0.250025 0 0 0 0,-0.249597 z M 0.491868,4.485458 a 7.0764136,7.0764136 0 0 0 -0.21239,0.63562 l 0.284737,0.499195 a 0.25,0.25 0 0 0 0.340031,0.09353 0.25,0.25 0 0 0 0.09354,-0.341581 z" /><path
     id="circle40070"
     style="fill:#ffffff;fill-opacity:1;stroke:none;stroke-width:1.41531;stroke-linejoin:round;stroke-miterlimit:8.5;paint-order:markers fill stroke;stop-color:#000000"
     d="m 10.81992,2.296444 a 0.25002551,0.25002551 0 0 0 -0.206706,0.126608 l -1.871203,3.28507 a 0.25002551,0.25002551 0 0 0 0.02325,0.283187 l 1.664498,2.041219 a 0.25000051,0.25000051 0 0 0 0.3514,0.03669 0.25000051,0.25000051 0 0 0 0.03721,-0.3514 L 9.261358,5.807857 10.958929,2.829227 13.033738,3.257625 A 7.0764136,7.0764136 0 0 0 12.603274,2.657663 L 10.882449,2.301612 a 0.25002551,0.25002551 0 0 0 -0.06253,-0.0052 z m 3.328996,4.891692 -1.80144,0.887284 a 0.25000051,0.25000051 0 0 0 -0.113172,0.335897 0.25000051,0.25000051 0 0 0 0.335897,0.113171 l 1.545125,-0.763261 a 7.0764136,7.0764136 0 0 0 0.03359,-0.573091 z" /></svg>
