<?xml version="1.0" encoding="UTF-8"?>
<!-- Created with Inkscape (http://www.inkscape.org/) -->
<svg id="svg5" width="14.153mm" height="14.153mm" version="1.1" viewBox="0 0 14.153 14.153" xml:space="preserve" xmlns="http://www.w3.org/2000/svg"><circle id="path234" cx="7.0764" cy="7.0764" r="7.0764" fill="#4da6bf" stop-color="#000000" style="paint-order:markers fill stroke"/><path id="path20327" d="m6.3377 3.046a0.25 0.25 0 0 0-0.34375 0.08789l-1.6289 2.7422a0.25 0.25 0 0 0 0.08594 0.34375 0.25 0.25 0 0 0 0.34375-0.08789l1.6289-2.7422a0.25 0.25 0 0 0-0.08594-0.34375z" color="#000000" fill="#fff" stroke-linecap="round" stroke-linejoin="round" stroke-miterlimit="8.5" style="paint-order:markers fill stroke"/><path id="path103132" d="m2.8793 10.511a0.24639 0.25366 45.002 0 0-0.00303 0.35356l1.1691 1.1552a0.24639 0.25366 45.002 0 0 0.35352-0.0071 0.24639 0.25366 45.002 0 0 0.00313-0.35346l-1.169-1.1553a0.24639 0.25366 45.002 0 0-0.35372 0.0071z" color="#000000" fill="#fff" stroke-linecap="round" stroke-linejoin="round" stroke-width=".07308"/><g id="path21259" transform="translate(-11.367 -53.868)"><g id="g39073"><g id="path39075" fill="#fff" fill-rule="evenodd"><path id="path39079" d="m15.437 57.813-1.1923-0.24593 0.8103-0.90996z" color="#000000" stroke-width=".12184pt"/><path id="path39081" d="m15.088 56.498-0.99805 1.1191 1.4688 0.30274-0.04492-0.13281zm-0.06445 0.31641 0.29102 0.89062-0.91602-0.18945z" color="#000000"/></g></g><path id="path39083" d="m14.262 56.432-0.33203 0.37305 0.18555 0.16602 0.63086 0.56055 0.18555 0.16602 0.33398-0.37305-0.1875-0.16602-0.62891-0.56055z" color="#000000" fill="#fff" stroke-linecap="square" stroke-linejoin="round" stroke-miterlimit="8.5" style="paint-order:markers fill stroke"/></g><g id="path21553" transform="translate(-11.367 -53.868)"><g id="g39099"><g id="path39101" fill="#fff" fill-rule="evenodd"><path id="path39105" d="m22.213 59.621 0.70471-0.99265 0.50719 1.1079z" color="#000000" stroke-width=".12184pt"/><path id="path39107" d="m22.934 58.467-0.86914 1.2227 0.14062 0.01367 1.3516 0.12695zm-0.03125 0.32422 0.39062 0.85156-0.93359-0.08789z" color="#000000"/></g></g><path id="path39109" d="m23.742 58.646-0.22656 0.10352-0.76758 0.35156-0.22656 0.10352 0.20703 0.45508 0.22852-0.10352 0.76562-0.35156 0.22852-0.10352z" color="#000000" fill="#fff" stroke-linecap="square" stroke-linejoin="round" stroke-miterlimit="8.5" style="paint-order:markers fill stroke"/></g><g id="text21671" transform="translate(-11.367 -53.868)" fill="#fff" stop-color="#000000" stroke-linecap="square" stroke-linejoin="round" stroke-miterlimit="8.5" stroke-width=".24752" style="paint-order:markers fill stroke" aria-label="N"><path id="path39037" d="m23.396 63.006h-0.18829l-0.59658-1.1481v1.1481h-0.18829v-1.4899h0.18829l0.59863 1.1533v-1.1533h0.18624z" fill="#fff" stroke-width=".24753"/></g><g id="text21725" transform="translate(-11.367 -53.868)" fill="#fff" stop-color="#000000" stroke-linecap="square" stroke-linejoin="round" stroke-miterlimit="8.5" stroke-width=".24752" style="paint-order:markers fill stroke" aria-label="N"><path id="path39034" d="m13.378 61.192h-0.18829l-0.59658-1.1481v1.1481h-0.18829v-1.4899h0.18829l0.59863 1.1533v-1.1533h0.18624z" fill="#fff" stroke-width=".24753"/></g><g id="path21889" transform="translate(-11.367 -53.868)"><g id="g39157"><g id="path39159" fill="#fff" fill-rule="evenodd"><path id="path39163" d="m17.734 62.784 0.27801 1.1852-1.1663-0.35275z" color="#000000" stroke-width=".12184pt"/><path id="path39165" d="m17.781 62.629-0.10352 0.0957-0.99023 0.92774 1.4355 0.43555zm-0.09375 0.31055 0.21289 0.91016-0.89648-0.26953z" color="#000000"/></g></g><path id="path39167" d="m17.363 63.145-0.07227 0.24024-0.24414 0.80664-0.07227 0.24024 0.47852 0.14453 0.07227-0.24024 0.24414-0.80664 0.07227-0.24024z" color="#000000" fill="#fff" stroke-linecap="square" stroke-linejoin="round" stroke-miterlimit="8.5" style="paint-order:markers fill stroke"/></g><path id="path38666" d="m3.3886 9.9603a0.24639 0.25366 45.002 0 0-0.00303 0.35356l1.1691 1.1552a0.24639 0.25366 45.002 0 0 0.35352-0.0071 0.24639 0.25366 45.002 0 0 0.00313-0.35346l-1.169-1.1554a0.24639 0.25366 45.002 0 0-0.35372 0.00714z" color="#000000" fill="#fff" stroke-linecap="round" stroke-linejoin="round" stroke-width=".07308"/><path id="path38674" d="m8.0675 11.698a0.25366 0.24639 72.075 0 0-0.31344-0.16361l-1.5607 0.51521a0.25366 0.24639 72.075 0 0-0.15453 0.31804 0.25366 0.24639 72.075 0 0 0.31331 0.16365l1.5607-0.51507a0.25366 0.24639 72.075 0 0 0.15462-0.31822z" color="#000000" fill="#fff" stroke-linecap="round" stroke-linejoin="round" stroke-width=".07308"/><g id="text38696" transform="translate(-11.367 -53.868)" fill="#fff" stop-color="#000000" stroke-linecap="square" stroke-linejoin="round" stroke-miterlimit="8.5" stroke-width=".24752" style="paint-order:markers fill stroke" aria-label="C"><path id="path39045" d="m17.155 66.485q-0.01228 0.23945-0.13508 0.36634-0.12177 0.12689-0.34485 0.12689-0.2241 0-0.35611-0.16987-0.13201-0.17089-0.13201-0.46253v-0.27015q0-0.29062 0.13508-0.45946 0.1361-0.16884 0.37044-0.16884 0.21592 0 0.3336 0.12996 0.1187 0.12894 0.12894 0.36941h-0.18931q-0.01228-0.18215-0.07675-0.25992-0.06447-0.07777-0.19647-0.07777-0.15247 0-0.23434 0.11973-0.08186 0.1187-0.08186 0.34895v0.27322q0 0.22615 0.07572 0.3469 0.07675 0.12075 0.22308 0.12075 0.14633 0 0.2108-0.07265 0.06447-0.07265 0.07982-0.26094z" fill="#fff" stroke-width=".24753"/></g><g id="text38802" transform="translate(-11.367 -53.868)" fill="#fff" stop-color="#000000" stroke-linecap="square" stroke-linejoin="round" stroke-miterlimit="8.5" stroke-width=".24753" style="paint-order:markers fill stroke" aria-label="OH"><path id="path39040" d="m20.662 65.532q0 0.30494-0.12996 0.4697t-0.36941 0.16475q-0.23024 0-0.3643-0.15963-0.13303-0.16066-0.13815-0.45332v-0.28038q0-0.2988 0.13201-0.46765 0.13201-0.16987 0.36839-0.16987 0.23536 0 0.36634 0.1627 0.132 0.16168 0.13508 0.46253zm-0.18726-0.26094q0-0.23638-0.07777-0.35099-0.07675-0.11563-0.23638-0.11563-0.15452 0-0.23434 0.11666-0.07879 0.11666-0.07982 0.34383v0.26708q0 0.2282 0.07879 0.34792 0.07982 0.11973 0.23741 0.11973 0.15759 0 0.23331-0.11052 0.07572-0.11052 0.07879-0.33871z"/><path id="path39042" d="m21.927 66.146h-0.18829v-0.68868h-0.59965v0.68868h-0.18726v-1.4899h0.18726v0.64059h0.59965v-0.64059h0.18829z"/></g><g id="text38806" transform="translate(-11.367 -53.868)" fill="#fff" stop-color="#000000" stroke-linecap="square" stroke-linejoin="round" stroke-miterlimit="8.5" stroke-width=".24752" style="paint-order:markers fill stroke" aria-label="O"><path id="path39048" d="m14.484 63.563q0 0.30494-0.12996 0.4697-0.12996 0.16475-0.36941 0.16475-0.23024 0-0.3643-0.15963-0.13303-0.16066-0.13815-0.45332v-0.28038q0-0.2988 0.13201-0.46765 0.13201-0.16987 0.36839-0.16987 0.23536 0 0.36634 0.1627 0.13201 0.16168 0.13508 0.46253zm-0.18726-0.26094q0-0.23638-0.07777-0.35099-0.07675-0.11563-0.23638-0.11563-0.15452 0-0.23434 0.11666-0.0788 0.11666-0.07982 0.34383v0.26708q0 0.2282 0.07879 0.34792 0.07982 0.11973 0.23741 0.11973 0.15759 0 0.23331-0.11052 0.07572-0.11052 0.07879-0.33871z" fill="#fff" stroke-width=".24753"/></g><path id="circle39918" d="m5.2797 13.299a0.24639 0.25366 45.002 0 0-0.17777 0.07597 0.24639 0.25366 45.002 0 0-0.07545 0.17828l-0.0036 0.29352a7.0764 7.0764 0 0 0 0.49816 0.13177l0.0057-0.43356a0.24639 0.25366 45.002 0 0-0.24701-0.24598z" fill="#fff" stop-color="#000000" style="paint-order:markers fill stroke"/><path id="circle39998" d="m5.5903 0.16066a7.0764 7.0764 0 0 0-0.74931 0.20619l0.2899-5.16e-4 1.7554 3.0334-1.7498 3.037-2.6288 0.0078a0.25 0.25 0 0 0-0.25011 0.25011 0.25 0.25 0 0 0 0.25011 0.2496l2.775-0.0078a0.25002 0.25002 0 0 0 0.21497-0.12506l1.8945-3.2871a0.25002 0.25002 0 0 0 0-0.2496zm-5.0984 4.3248a7.0764 7.0764 0 0 0-0.21239 0.63562l0.28474 0.4992a0.25 0.25 0 0 0 0.34003 0.09353 0.25 0.25 0 0 0 0.09354-0.34158z" fill="#fff" stop-color="#000000" style="paint-order:markers fill stroke"/><path id="circle40070" d="m10.82 2.2964a0.25003 0.25003 0 0 0-0.20671 0.12661l-1.8712 3.2851a0.25003 0.25003 0 0 0 0.02325 0.28319l1.6645 2.0412a0.25 0.25 0 0 0 0.3514 0.03669 0.25 0.25 0 0 0 0.03721-0.3514l-1.557-1.91 1.6976-2.9786 2.0748 0.4284a7.0764 7.0764 0 0 0-0.43046-0.59996l-1.7208-0.35605a0.25003 0.25003 0 0 0-0.06253-0.0052zm3.329 4.8917-1.8014 0.88728a0.25 0.25 0 0 0-0.11317 0.3359 0.25 0.25 0 0 0 0.3359 0.11317l1.5451-0.76326a7.0764 7.0764 0 0 0 0.03359-0.57309z" fill="#fff" stop-color="#000000" style="paint-order:markers fill stroke"/></svg>
