<?xml version="1.0" encoding="UTF-8" standalone="no"?>
<!-- Generator: Adobe Illustrator 18.1.1, SVG Export Plug-In . SVG Version: 6.00 Build 0)  -->

<svg
   version="1.1"
   id="Capa_1"
   x="0px"
   y="0px"
   viewBox="0 0 64 64"
   xml:space="preserve"
   sodipodi:docname="c-network-warn copy.svg"
   inkscape:version="1.2 (dc2aeda, 2022-05-15)"
   width="64"
   height="64"
   xmlns:inkscape="http://www.inkscape.org/namespaces/inkscape"
   xmlns:sodipodi="http://sodipodi.sourceforge.net/DTD/sodipodi-0.dtd"
   xmlns="http://www.w3.org/2000/svg"
   xmlns:svg="http://www.w3.org/2000/svg"
   xmlns:rdf="http://www.w3.org/1999/02/22-rdf-syntax-ns#"
   xmlns:cc="http://creativecommons.org/ns#"
   xmlns:dc="http://purl.org/dc/elements/1.1/"
   xmlns:sketch="http://www.bohemiancoding.com/sketch/ns"><metadata
     id="metadata41"><rdf:RDF><cc:Work
         rdf:about=""><dc:format>image/svg+xml</dc:format><dc:type
           rdf:resource="http://purl.org/dc/dcmitype/StillImage" /></cc:Work></rdf:RDF></metadata><defs
     id="defs39" /><sodipodi:namedview
     pagecolor="#ffffff"
     bordercolor="#666666"
     borderopacity="1"
     objecttolerance="10"
     gridtolerance="10"
     guidetolerance="10"
     inkscape:pageopacity="0"
     inkscape:pageshadow="2"
     inkscape:window-width="2560"
     inkscape:window-height="1387"
     id="namedview37"
     showgrid="false"
     inkscape:zoom="10.223838"
     inkscape:cx="20.002273"
     inkscape:cy="25.186236"
     inkscape:window-x="0"
     inkscape:window-y="25"
     inkscape:window-maximized="0"
     inkscape:current-layer="g4"
     inkscape:showpageshadow="2"
     inkscape:pagecheckerboard="0"
     inkscape:deskcolor="#d1d1d1" /><g
     id="g4"><circle
       style="fill:#ffffff;fill-opacity:1;stroke:none;stroke-width:3.08536;stroke-miterlimit:8.5;stroke-dasharray:3.08536, 3.08536;paint-order:markers fill stroke;stop-color:#000000"
       id="path2081"
       cx="32.048836"
       cy="32"
       r="32" /><g
       id="g2474"
       transform="matrix(1.0007941,0,0,1,-3.8773689e-5,0)"><path
         id="path1551"
         style="fill:#4da6bf;fill-opacity:1;stroke:none;stroke-width:2.40419;stroke-miterlimit:8.5;paint-order:markers fill stroke;stop-color:#000000"
         d="M 32,0 A 32,32 0 0 0 9.7167969,9.0664062 H 27.25 l 0.615234,0.3027344 c 0.17071,0.083832 0.34188,0.1888434 0.507813,0.3105469 0.165933,0.1217035 0.326563,0.2596889 0.478515,0.4101565 0.151958,0.150467 0.295044,0.314253 0.423829,0.484375 0.128779,0.170121 0.243431,0.34668 0.339843,0.527343 l 0.253907,0.47461 v 10.693359 10.69336 l -0.246094,0.460937 c -0.08173,0.152958 -0.176263,0.305251 -0.279297,0.451172 -0.103034,0.145921 -0.214363,0.286531 -0.332031,0.417969 -0.117668,0.131438 -0.241553,0.253773 -0.367188,0.363281 -0.125635,0.109508 -0.253924,0.205025 -0.380859,0.285156 -0.113254,0.07149 -0.215457,0.134338 -0.322266,0.189453 -0.106809,0.05512 -0.218157,0.103668 -0.349609,0.144532 -0.131452,0.04086 -0.283521,0.07478 -0.470703,0.103515 -0.187183,0.02874 -0.409593,0.05157 -0.683594,0.07031 -0.547996,0.03748 -1.301021,0.05617 -2.382812,0.06641 -1.081797,0.01023 -2.491176,0.01172 -4.355469,0.01172 h -6.90625 v 1.910156 1.908203 h 2.845703 2.84375 l 0.320312,0.320313 c 0.10261,0.102611 0.180501,0.21245 0.234375,0.328125 0.05387,0.115675 0.08305,0.236256 0.08789,0.357421 0.0048,0.121171 -0.01409,0.244183 -0.05859,0.363282 -0.04451,0.119099 -0.114832,0.234291 -0.208984,0.34375 l -0.263672,0.30664 -9.6386719,0.01953 c -2.6506438,0.0054 -5.0787895,0.0036 -6.8554687,-0.0039 -0.3908903,-0.0017 -0.3251773,-0.0056 -0.6484375,-0.0078 A 32,32 0 0 0 25.664062,63.292969 c -0.07101,-0.229935 -0.155964,-0.456069 -0.220703,-0.6875 -0.186902,-0.668155 -0.347898,-1.343106 -0.482421,-2.021485 -0.134527,-0.678375 -0.242214,-1.361613 -0.324219,-2.046875 -0.08201,-0.685258 -0.138627,-1.371743 -0.167969,-2.060547 -0.02934,-0.6888 -0.03128,-1.379357 -0.0078,-2.068359 0.02346,-0.689002 0.07203,-1.376637 0.148437,-2.0625 0.07641,-0.685863 0.179092,-1.369445 0.308594,-2.048828 0.129501,-0.679383 0.286015,-1.355825 0.46875,-2.025391 0.182734,-0.669562 0.392797,-1.331879 0.628906,-1.988281 0.236109,-0.656401 0.499436,-1.305412 0.789063,-1.945312 0.289623,-0.639903 0.605935,-1.270568 0.949218,-1.890625 0.343286,-0.620061 0.71229,-1.23125 1.109375,-1.828125 0.217118,-0.32636 0.446122,-0.650915 0.683594,-0.972657 0.237472,-0.321738 0.484488,-0.640098 0.740234,-0.955078 0.255749,-0.314977 0.519069,-0.625567 0.791016,-0.93164 0.271947,-0.306076 0.551823,-0.607315 0.837891,-0.902344 0.286065,-0.295029 0.578842,-0.583398 0.876953,-0.865234 0.298108,-0.28184 0.60208,-0.557716 0.910156,-0.824219 0.308076,-0.266506 0.619584,-0.524407 0.935547,-0.773438 0.315962,-0.24903 0.63526,-0.489338 0.957031,-0.71875 0.477132,-0.340173 0.971387,-0.666535 1.478516,-0.978515 0.507125,-0.311984 1.027335,-0.607861 1.55664,-0.888672 0.529309,-0.280814 1.067656,-0.546302 1.611329,-0.792969 0.543669,-0.246667 1.092358,-0.476003 1.642578,-0.685547 0.550216,-0.209544 1.103396,-0.398916 1.652343,-0.568359 0.54895,-0.169444 1.094905,-0.318946 1.634766,-0.445313 0.539861,-0.126366 1.072745,-0.230234 1.595703,-0.310547 0.522961,-0.08031 1.034964,-0.136687 1.533203,-0.167968 0.393736,-0.02472 1.003042,-0.03479 1.708985,-0.03516 0.705939,-3.62e-4 1.509681,0.0089 2.292968,0.02734 0.783291,0.01846 1.546098,0.04443 2.171875,0.07617 0.62578,0.03174 1.114245,0.06988 1.347657,0.109375 0.485645,0.08218 1.05508,0.207126 1.654296,0.361328 0.59922,0.154202 1.227799,0.336371 1.833985,0.535156 0.366481,0.120182 0.729193,0.248913 1.087891,0.382813 0.358694,0.1339 0.713794,0.27445 1.064453,0.421875 0.350655,0.147425 0.696698,0.300183 1.039062,0.460937 0.342364,0.160758 0.681812,0.328057 1.015625,0.501954 0.162246,0.08452 0.320288,0.176081 0.480469,0.263671 A 32,32 0 0 0 32,0 Z M 7.2558594,11.740234 A 32,32 0 0 0 0.04882812,31.128906 c 2.84433118,0.0057 5.74028538,0.01262 8.98828128,0.01367 4.4506436,0.0014 8.8877876,-0.0019 12.2343746,-0.0098 3.346589,-0.0079 5.601742,-0.02113 5.691407,-0.03906 l 0.341797,-0.06641 V 21.382812 11.740234 H 8.8105469 Z m 24.5058596,1.298828 h 2 v 2 h -2 z m 4,0 h 2 v 2 h -2 z m 4,0 h 2 v 2 h -2 z m 4,0 h 2 v 2 h -2 z m 4,0 h 2 v 2 h -2 z m 0.0039,3.902344 2,0.0078 -0.0078,2 -2,-0.0078 z m 0,3.910156 2,0.0078 -0.0078,2 -2,-0.0078 z m 0,3.910157 2,0.0078 -0.0078,2 -2,-0.0078 z M 8.7597656,32.0625 c -0.0532,0.0022 -0.1081974,0.0091 -0.1640625,0.01953 -0.1331971,0.02499 -0.252976,0.07196 -0.3574219,0.136719 -0.1044457,0.06476 -0.1929131,0.148068 -0.2675781,0.242188 -0.074665,0.09412 -0.1338803,0.199444 -0.1777343,0.3125 -0.043854,0.113054 -0.071971,0.233898 -0.083984,0.355468 -0.012014,0.12157 -0.00914,0.243617 0.011719,0.363282 0.020856,0.119663 0.058525,0.236411 0.1132813,0.34375 0.054756,0.107337 0.1271113,0.206423 0.2167968,0.291015 0.089686,0.08459 0.1966209,0.155606 0.3222657,0.207031 0.08898,0.03642 0.1739928,0.06012 0.2558593,0.07422 0.081867,0.0141 0.1601652,0.01857 0.2402344,0.0098 0.080069,-0.0088 0.1605529,-0.03022 0.2441406,-0.0625 0.083588,-0.03229 0.1712496,-0.07646 0.2636719,-0.132813 0.130206,-0.07939 0.2343401,-0.175579 0.3144531,-0.283203 C 9.7715194,33.83183 9.8269664,33.7138 9.8613281,33.589844 9.89569,33.465888 9.9093916,33.33542 9.9023438,33.207031 9.8952958,33.078643 9.8683348,32.950999 9.8242188,32.830078 9.7801026,32.709157 9.7174678,32.595694 9.640625,32.494141 9.5637822,32.392587 9.4724154,32.302708 9.3671875,32.232422 9.2619596,32.162135 9.1429433,32.111104 9.0136719,32.083984 8.9328772,32.067035 8.8484325,32.058875 8.7597656,32.0625 Z m 34.7675784,1.617188 c -0.04527,-0.0025 -0.130671,0.01721 -0.246094,0.05664 -0.153898,0.05257 -0.363345,0.138849 -0.609375,0.248047 -0.492059,0.218396 -1.129369,0.5305 -1.761719,0.857422 -0.632349,0.326922 -1.260186,0.669146 -1.728515,0.947265 -0.234166,0.139061 -0.428352,0.262015 -0.564453,0.359376 -0.136103,0.09736 -0.212891,0.169082 -0.212891,0.205078 0,0.02323 0.107284,0.109707 0.271484,0.226562 0.164201,0.116856 0.38556,0.263505 0.611328,0.408203 0.22577,0.144698 0.455919,0.287769 0.640625,0.394531 0.184708,0.106764 0.32422,0.176637 0.365235,0.179688 0.02173,0.0018 0.173519,-0.153307 0.40039,-0.40625 0.226873,-0.252943 0.527107,-0.602938 0.84961,-0.988281 0.645004,-0.770681 1.373662,-1.63376 1.617187,-1.917969 0.121766,-0.142108 0.226639,-0.277182 0.298828,-0.378906 0.07219,-0.101725 0.111842,-0.169405 0.09961,-0.181641 -0.0059,-0.0059 -0.01616,-0.0089 -0.03125,-0.0098 z m 5.753906,0.0078 c -0.01404,-3.59e-4 -0.0305,0.0028 -0.05078,0.0098 -0.04056,0.01401 -0.0934,0.04226 -0.160157,0.08594 -0.133517,0.08736 -0.31993,0.235612 -0.5625,0.445313 -0.485138,0.4194 -1.193197,1.087333 -2.148437,2.02539 -0.83076,0.815814 -1.43653,1.435679 -1.833984,1.878906 -0.198728,0.221615 -0.346236,0.399193 -0.44336,0.535157 -0.09712,0.135964 -0.144531,0.229845 -0.144531,0.285156 0,0.05322 0.01596,0.09882 0.06055,0.142578 0.04458,0.04376 0.119069,0.08575 0.236328,0.130859 0.234518,0.09023 0.642177,0.194974 1.335937,0.355469 0.676239,0.15644 1.374291,0.293581 2.009766,0.398438 0.635475,0.104856 1.208634,0.176037 1.632813,0.201172 l 0.201171,0.01367 -0.02539,-3.222656 c -0.01313,-1.772282 -0.04614,-3.245419 -0.07422,-3.273437 -0.0075,-0.0075 -0.01916,-0.01136 -0.0332,-0.01172 z m 9.509766,0.0059 c -0.004,7.42e-4 -0.006,0.0021 -0.0078,0.0039 -0.02001,0.02001 0.162718,0.268517 0.40625,0.552734 0.243525,0.284209 0.972182,1.147288 1.617188,1.917969 0.322498,0.385343 0.624687,0.736323 0.851562,0.990234 0.226875,0.253912 0.376716,0.410254 0.398438,0.410156 0.04347,-2.11e-4 0.420105,-0.21531 0.835937,-0.478515 0.338401,-0.214189 0.586611,-0.378049 0.75,-0.488282 a 32,32 0 0 0 0.08594,-0.453124 C 63.652508,36.085463 63.559065,36.015851 63.419922,35.925781 63.256784,35.820179 63.05467,35.698123 62.824219,35.566406 62.363316,35.302973 61.789575,34.998931 61.185547,34.703125 60.601193,34.416957 60.01526,34.150232 59.568359,33.962891 59.34491,33.869219 59.156041,33.796924 59.019531,33.75 c -0.119446,-0.04106 -0.200596,-0.06183 -0.228515,-0.05664 z m -5.738282,0.0039 c -0.0092,-0.0013 -0.01617,5.5e-4 -0.01953,0.0039 -0.02689,0.02682 -0.05865,1.502254 -0.07031,3.279297 l -0.02148,3.230469 0.552735,-0.04688 c 0.304283,-0.02668 0.842161,-0.09526 1.193359,-0.152343 0.38423,-0.06245 0.803803,-0.143897 1.220703,-0.232422 0.416901,-0.08852 0.831127,-0.185469 1.199219,-0.279297 0.368091,-0.09383 0.689932,-0.18531 0.927734,-0.263672 0.237803,-0.07836 0.389982,-0.143421 0.416016,-0.185547 0.01183,-0.01914 0.01187,-0.05021 -0.002,-0.0918 -0.01382,-0.04159 -0.04101,-0.09268 -0.07813,-0.154296 -0.07424,-0.123242 -0.192358,-0.283762 -0.345703,-0.472657 -0.306694,-0.377789 -0.753265,-0.868022 -1.263672,-1.392578 -0.510408,-0.524555 -1.084612,-1.084705 -1.648438,-1.601562 -0.281912,-0.25843 -0.561038,-0.506833 -0.828125,-0.734375 -0.267086,-0.227543 -0.522385,-0.433981 -0.755859,-0.611328 -0.123139,-0.09354 -0.240063,-0.17376 -0.330078,-0.226563 -0.06751,-0.0396 -0.119,-0.0645 -0.146485,-0.06836 z M 0.19726562,35.515625 a 32,32 0 0 0 0.67382813,3.841797 C 1.2441825,39.352932 1.574485,39.345703 2.09375,39.345703 H 4.9355469 V 37.441406 35.537109 Z M 35.365234,38.802734 c -0.02039,-0.0014 -0.03768,1.3e-4 -0.05273,0.0039 -0.0459,0.01152 -0.117194,0.05599 -0.207031,0.130859 -0.08984,0.07487 -0.197894,0.179658 -0.322266,0.306641 -0.248745,0.253964 -0.558182,0.601081 -0.888672,0.996093 -0.330488,0.395014 -0.682489,0.837013 -1.019531,1.283204 -0.337042,0.446189 -0.659334,0.895239 -0.927734,1.302734 -0.260383,0.395319 -0.50687,0.797095 -0.740235,1.203125 -0.233365,0.406029 -0.453521,0.816807 -0.660156,1.234375 -0.206635,0.417567 -0.399886,0.841552 -0.580078,1.271484 -0.180192,0.429934 -0.345963,0.865467 -0.5,1.308594 -0.154037,0.443127 -0.295658,0.894416 -0.423828,1.351562 -0.12817,0.457148 -0.243113,0.920583 -0.345703,1.392579 -0.102591,0.471995 -0.192233,0.95178 -0.269532,1.439453 -0.0773,0.487671 -0.143017,0.984106 -0.195312,1.488281 l -0.03906,0.371094 h 3.261719 c 1.793173,0 3.259766,-0.01203 3.259766,-0.02734 0,-0.01531 0.04706,-0.486638 0.105468,-1.046875 0.05383,-0.516531 0.113601,-1.012153 0.179688,-1.492188 0.06609,-0.480033 0.139805,-0.943732 0.220703,-1.396484 0.0809,-0.452751 0.169312,-0.893442 0.267578,-1.328125 0.09827,-0.434682 0.206028,-0.863235 0.324219,-1.289062 0.118191,-0.425829 0.246044,-0.849203 0.386719,-1.275391 0.140674,-0.426188 0.293269,-0.855254 0.458984,-1.291016 0.165715,-0.435761 0.34575,-0.879434 0.539063,-1.333984 0.193312,-0.45455 0.399579,-0.919791 0.623046,-1.402344 0.271064,-0.585326 0.515119,-1.131782 0.541016,-1.214844 0.01011,-0.03242 0.01231,-0.06245 0.0039,-0.0918 -0.0084,-0.02934 -0.02845,-0.05861 -0.06445,-0.09375 -0.07201,-0.07027 -0.20832,-0.161901 -0.445312,-0.308594 -0.303547,-0.187883 -0.963121,-0.608715 -1.466797,-0.935547 -0.343544,-0.222922 -0.581875,-0.368542 -0.75,-0.455078 -0.08406,-0.04327 -0.150262,-0.0722 -0.203125,-0.08789 -0.02643,-0.0078 -0.04992,-0.01225 -0.07031,-0.01367 z m 25.175782,3.388672 -0.44336,0.128906 c -0.977464,0.287092 -1.624543,0.471889 -2.162109,0.611329 -0.537567,0.139438 -0.965847,0.234254 -1.509766,0.341797 -0.682887,0.135007 -1.744781,0.319313 -2.359375,0.408203 l -1.117187,0.160156 v 5.023437 5.021485 l 2.330078,-0.0039 A 32,32 0 0 0 61.583984,44.1875 c -0.123676,-0.289235 -0.250597,-0.593843 -0.363281,-0.830078 -0.174242,-0.365286 -0.330625,-0.657003 -0.455078,-0.837891 z m -18.6875,0.06055 c -0.02735,0 -0.06003,0.01871 -0.09766,0.05273 -0.03763,0.03402 -0.08029,0.08349 -0.126953,0.148437 -0.09332,0.129895 -0.202262,0.317745 -0.324218,0.552734 -0.121958,0.234991 -0.255875,0.516746 -0.396485,0.832032 -0.14061,0.315284 -0.288221,0.664375 -0.4375,1.035156 -0.298558,0.741561 -0.605582,1.570024 -0.878906,2.384765 -0.136662,0.407372 -0.26353,0.810754 -0.378906,1.199219 -0.115377,0.388467 -0.218628,0.76266 -0.302735,1.107422 -0.08347,0.342175 -0.161274,0.701937 -0.230468,1.066406 -0.0692,0.364471 -0.128918,0.732276 -0.179688,1.089844 -0.05077,0.357568 -0.0929,0.703924 -0.121094,1.025391 -0.0282,0.321466 -0.04344,0.618833 -0.04492,0.875 l -0.002,0.193359 2.75,0.01953 c 1.512104,0.01067 4.001588,0.02784 5.533203,0.03711 l 2.785157,0.01758 v -5.039063 c 0,-1.991269 -0.0042,-3.250169 -0.01758,-4.011718 -0.0067,-0.380775 -0.01574,-0.637692 -0.02734,-0.798829 -0.0116,-0.161135 -0.02545,-0.226536 -0.04297,-0.226562 -0.159571,-2.11e-4 -3.267907,-0.492229 -3.849609,-0.609375 -0.312178,-0.06285 -1.225945,-0.303041 -2.03125,-0.533203 -0.805315,-0.230162 -1.515686,-0.417969 -1.578125,-0.417969 z m -13.609375,15.181641 0.04883,0.373047 c 0.07828,0.597263 0.185861,1.219817 0.316406,1.847656 0.130545,0.627839 0.284072,1.261844 0.457031,1.884765 0.172959,0.622923 0.364795,1.233897 0.570313,1.816407 0.06307,0.178755 0.135644,0.33114 0.201172,0.503906 A 32,32 0 0 0 32,64 32,32 0 0 0 35.890625,63.746094 c -0.0493,-0.177232 -0.102619,-0.350815 -0.148437,-0.53125 -0.09837,-0.387375 -0.190198,-0.783788 -0.275391,-1.195313 -0.08519,-0.411523 -0.164285,-0.838628 -0.240235,-1.287109 -0.07595,-0.448482 -0.14811,-0.919723 -0.21875,-1.417969 l -0.261718,-1.84375 -3.25,-0.01953 z m 10.160156,0.002 v 0.226562 c 0,0.233645 0.0574,0.762529 0.140625,1.355469 0.08322,0.592941 0.192859,1.250649 0.294922,1.744141 0.126347,0.610924 0.271929,1.213998 0.439453,1.8125 0.04719,0.16858 0.10952,0.335798 0.160156,0.503906 a 32,32 0 0 0 9.960938,-4.300781 v -1.341797 h -5.498047 z" /><g
         id="g2458" /></g><g
       id="g5979"
       transform="matrix(0.69564461,0,0,0.69564461,107.56109,-29.539854)"><path
         d="m -83.833956,76.485097 c 8.249496,0 14.937034,-6.687538 14.937034,-14.937034 0,-8.249496 -6.687538,-14.937034 -14.937034,-14.937034 -8.249496,0 -14.937034,6.687538 -14.937034,14.937034 0,8.249496 6.687538,14.937034 14.937034,14.937034 z"
         id="Oval-1"
         fill="#1191bb"
         sketch:type="MSShapeGroup"
         style="fill:#d40f57;fill-opacity:1;fill-rule:evenodd;stroke:none;stroke-width:0.466782" /><g
         id="g37947"
         transform="rotate(7.3151893,-83.799315,66.160972)"><path
           style="fill:none;fill-opacity:1;stroke:#ffffff;stroke-width:4.51413;stroke-linecap:square;stroke-linejoin:bevel;stroke-miterlimit:8.5;stroke-dasharray:none;stroke-opacity:1;paint-order:markers fill stroke;stop-color:#000000"
           d="m -89.213205,67.62895 9.584361,-12.077861"
           id="path34624"
           sodipodi:nodetypes="cc" /><path
           style="fill:none;fill-opacity:1;stroke:#ffffff;stroke-width:4.51413;stroke-linecap:square;stroke-linejoin:bevel;stroke-miterlimit:8.5;stroke-dasharray:none;stroke-opacity:1;paint-order:markers fill stroke;stop-color:#000000"
           d="M -78.382094,66.3822 -90.459955,56.797839"
           id="path37943"
           sodipodi:nodetypes="cc" /></g></g></g><g
     id="g6" /><g
     id="g8" /><g
     id="g10" /><g
     id="g12" /><g
     id="g14" /><g
     id="g16" /><g
     id="g18" /><g
     id="g20" /><g
     id="g22" /><g
     id="g24" /><g
     id="g26" /><g
     id="g28" /><g
     id="g30" /><g
     id="g32" /><g
     id="g34" /></svg>
