<?xml version="1.0" encoding="UTF-8"?>
<!-- Generator: Adobe Illustrator 18.1.1, SVG Export Plug-In . SVG Version: 6.00 Build 0)  -->
<svg id="Capa_1" width="64" height="64" version="1.1" viewBox="0 0 64 64" xml:space="preserve" xmlns="http://www.w3.org/2000/svg" xmlns:cc="http://creativecommons.org/ns#" xmlns:dc="http://purl.org/dc/elements/1.1/" xmlns:rdf="http://www.w3.org/1999/02/22-rdf-syntax-ns#"><metadata id="metadata41"><rdf:RDF><cc:Work rdf:about=""><dc:format>image/svg+xml</dc:format><dc:type rdf:resource="http://purl.org/dc/dcmitype/StillImage"/></cc:Work></rdf:RDF></metadata><g id="g4"><circle id="path2081" cx="32.049" cy="32" r="32" fill="#fff" stop-color="#000000" style="paint-order:markers fill stroke"/><g id="g2474" transform="matrix(1.0008 0 0 1 -3.8774e-5 0)"><path id="path1551" d="m32 0a32 32 0 0 0-22.283 9.0664h17.533l0.61523 0.30273c0.17071 0.083832 0.34188 0.18884 0.50781 0.31055s0.32656 0.25969 0.47852 0.41016c0.15196 0.15047 0.29504 0.31425 0.42383 0.48438 0.12878 0.17012 0.24343 0.34668 0.33984 0.52734l0.25391 0.47461v21.387l-0.24609 0.46094c-0.08173 0.15296-0.17626 0.30525-0.2793 0.45117s-0.21436 0.28653-0.33203 0.41797-0.24155 0.25377-0.36719 0.36328-0.25392 0.20502-0.38086 0.28516c-0.11325 0.07149-0.21546 0.13434-0.32227 0.18945-0.10681 0.05512-0.21816 0.10367-0.34961 0.14453-0.13145 0.04086-0.28352 0.07478-0.4707 0.10352-0.18718 0.02874-0.40959 0.05157-0.68359 0.07031-0.548 0.03748-1.301 0.05617-2.3828 0.06641-1.0818 0.01023-2.4912 0.01172-4.3555 0.01172h-6.9062v3.8184h5.6895l0.32031 0.32031c0.10261 0.10261 0.1805 0.21245 0.23438 0.32812 0.05387 0.11568 0.08305 0.23626 0.08789 0.35742 0.0048 0.12117-0.01409 0.24418-0.05859 0.36328-0.04451 0.1191-0.11483 0.23429-0.20898 0.34375l-0.26367 0.30664-9.6387 0.01953c-2.6506 0.0054-5.0788 0.0036-6.8555-0.0039-0.39089-0.0017-0.32518-0.0056-0.64844-0.0078a32 32 0 0 0 24.213 21.92c-0.07101-0.22994-0.15596-0.45607-0.2207-0.6875-0.1869-0.66816-0.3479-1.3431-0.48242-2.0215-0.13453-0.67838-0.24221-1.3616-0.32422-2.0469-0.08201-0.68526-0.13863-1.3717-0.16797-2.0605-0.02934-0.6888-0.03128-1.3794-0.0078-2.0684 0.02346-0.689 0.07203-1.3766 0.14844-2.0625 0.07641-0.68586 0.17909-1.3694 0.30859-2.0488 0.1295-0.67938 0.28602-1.3558 0.46875-2.0254 0.18273-0.66956 0.3928-1.3319 0.62891-1.9883 0.23611-0.6564 0.49944-1.3054 0.78906-1.9453 0.28962-0.6399 0.60594-1.2706 0.94922-1.8906 0.34329-0.62006 0.71229-1.2312 1.1094-1.8281 0.21712-0.32636 0.44612-0.65092 0.68359-0.97266 0.23747-0.32174 0.48449-0.6401 0.74023-0.95508 0.25575-0.31498 0.51907-0.62557 0.79102-0.93164 0.27195-0.30608 0.55182-0.60732 0.83789-0.90234 0.28606-0.29503 0.57884-0.5834 0.87695-0.86523 0.29811-0.28184 0.60208-0.55772 0.91016-0.82422 0.30808-0.26651 0.61958-0.52441 0.93555-0.77344 0.31596-0.24903 0.63526-0.48934 0.95703-0.71875 0.47713-0.34017 0.97139-0.66654 1.4785-0.97852 0.50712-0.31198 1.0273-0.60786 1.5566-0.88867 0.52931-0.28081 1.0677-0.5463 1.6113-0.79297 0.54367-0.24667 1.0924-0.476 1.6426-0.68555 0.55022-0.20954 1.1034-0.39892 1.6523-0.56836 0.54895-0.16944 1.0949-0.31895 1.6348-0.44531 0.53986-0.12637 1.0727-0.23023 1.5957-0.31055 0.52296-0.08031 1.035-0.13669 1.5332-0.16797 0.39374-0.02472 1.003-0.03479 1.709-0.03516 0.70594-3.62e-4 1.5097 0.0089 2.293 0.02734 0.78329 0.01846 1.5461 0.04443 2.1719 0.07617 0.62578 0.03174 1.1142 0.06988 1.3477 0.10938 0.48564 0.08218 1.0551 0.20713 1.6543 0.36133 0.59922 0.1542 1.2278 0.33637 1.834 0.53516 0.36648 0.12018 0.72919 0.24891 1.0879 0.38281 0.35869 0.1339 0.71379 0.27445 1.0645 0.42188 0.35066 0.14742 0.6967 0.30018 1.0391 0.46094 0.34236 0.16076 0.68181 0.32806 1.0156 0.50195 0.16225 0.08452 0.32029 0.17608 0.48047 0.26367a32 32 0 0 0-31.998-31.943zm-24.744 11.74a32 32 0 0 0-7.207 19.389c2.8443 0.0057 5.7403 0.01262 8.9883 0.01367 4.4506 0.0014 8.8878-0.0019 12.234-0.0098 3.3466-0.0079 5.6017-0.02113 5.6914-0.03906l0.3418-0.06641v-19.287h-18.494zm24.506 1.2988h2v2h-2zm4 0h2v2h-2zm4 0h2v2h-2zm4 0h2v2h-2zm4 0h2v2h-2zm0.0039 3.9023 2 0.0078-0.0078 2-2-0.0078zm0 3.9102 2 0.0078-0.0078 2-2-0.0078zm0 3.9102 2 0.0078-0.0078 2-2-0.0078zm-39.006 7.3008c-0.0532 0.0022-0.1082 0.0091-0.16406 0.01953-0.1332 0.02499-0.25298 0.07196-0.35742 0.13672-0.10445 0.06476-0.19291 0.14807-0.26758 0.24219s-0.13388 0.19944-0.17773 0.3125c-0.043854 0.11305-0.071971 0.2339-0.083984 0.35547-0.012014 0.12157-0.00914 0.24362 0.011719 0.36328 0.020856 0.11966 0.058525 0.23641 0.11328 0.34375 0.054756 0.10734 0.12711 0.20642 0.2168 0.29102 0.089686 0.08459 0.19662 0.15561 0.32227 0.20703 0.08898 0.03642 0.17399 0.06012 0.25586 0.07422 0.081867 0.0141 0.16017 0.01857 0.24023 0.0098 0.080069-0.0088 0.16055-0.03022 0.24414-0.0625 0.083588-0.03229 0.17125-0.07646 0.26367-0.13281 0.13021-0.07939 0.23434-0.17558 0.31445-0.2832 0.080112-0.10766 0.13556-0.22569 0.16992-0.34964 0.034362-0.12396 0.048064-0.25442 0.041016-0.38281-0.007048-0.12839-0.034009-0.25603-0.078125-0.37695-0.044116-0.12092-0.10675-0.23438-0.18359-0.33594-0.076843-0.10155-0.16821-0.19143-0.27344-0.26172-0.10523-0.070287-0.22424-0.12132-0.35352-0.14844-0.080795-0.016949-0.16524-0.025109-0.25391-0.021484zm34.768 1.6172c-0.04527-0.0025-0.13067 0.01721-0.24609 0.05664-0.1539 0.05257-0.36334 0.13885-0.60938 0.24805-0.49206 0.2184-1.1294 0.5305-1.7617 0.85742-0.63235 0.32692-1.2602 0.66915-1.7285 0.94726-0.23417 0.13906-0.42835 0.26202-0.56445 0.35938-0.1361 0.09736-0.21289 0.16908-0.21289 0.20508 0 0.02323 0.10728 0.10971 0.27148 0.22656 0.1642 0.11686 0.38556 0.2635 0.61133 0.4082 0.22577 0.1447 0.45592 0.28777 0.64062 0.39453 0.18471 0.10676 0.32422 0.17664 0.36524 0.17969 0.02173 0.0018 0.17352-0.15331 0.40039-0.40625 0.22687-0.25294 0.52711-0.60294 0.84961-0.98828 0.645-0.77068 1.3737-1.6338 1.6172-1.918 0.12177-0.14211 0.22664-0.27718 0.29883-0.37891 0.07219-0.10172 0.11184-0.1694 0.09961-0.18164-0.0059-0.0059-0.01616-0.0089-0.03125-0.0098zm5.7539 0.0078c-0.01404-3.59e-4 -0.0305 0.0028-0.05078 0.0098-0.04056 0.01401-0.0934 0.04226-0.16016 0.08594-0.13352 0.08736-0.31993 0.23561-0.5625 0.44531-0.48514 0.4194-1.1932 1.0873-2.1484 2.0254-0.83076 0.81581-1.4365 1.4357-1.834 1.8789-0.19873 0.22162-0.34624 0.39919-0.44336 0.53516-0.09712 0.13596-0.14453 0.22984-0.14453 0.28516 0 0.05322 0.01596 0.09882 0.06055 0.14258 0.04458 0.04376 0.11907 0.08575 0.23633 0.13086 0.23452 0.09023 0.64218 0.19497 1.3359 0.35547 0.67624 0.15644 1.3743 0.29358 2.0098 0.39844 0.63548 0.10486 1.2086 0.17604 1.6328 0.20117l0.20117 0.01367-0.02539-3.2227c-0.01313-1.7723-0.04614-3.2454-0.07422-3.2734-0.0075-0.0075-0.01916-0.01136-0.0332-0.01172zm9.5098 0.0059c-4e-3 7.42e-4 -6e-3 0.0021-0.0078 0.0039-0.02001 0.02001 0.16272 0.26852 0.40625 0.55273 0.24352 0.28421 0.97218 1.1473 1.6172 1.918 0.3225 0.38534 0.62469 0.73632 0.85156 0.99023 0.22688 0.25391 0.37672 0.41025 0.39844 0.41016 0.04347-2.11e-4 0.4201-0.21531 0.83594-0.47852 0.3384-0.21419 0.58661-0.37805 0.75-0.48828a32 32 0 0 0 0.08594-0.45312c-0.076023-0.062997-0.16947-0.13261-0.30861-0.22268-0.16314-0.1056-0.36525-0.22766-0.5957-0.35938-0.4609-0.26343-1.0346-0.56748-1.6387-0.86328-0.58435-0.28617-1.1703-0.55289-1.6172-0.74023-0.22345-0.093672-0.41232-0.16597-0.54883-0.21289-0.11945-0.04106-0.2006-0.06183-0.22852-0.05664zm-5.7383 0.0039c-0.0092-0.0013-0.01617 5.5e-4 -0.01953 0.0039-0.02689 0.02682-0.05865 1.5023-0.07031 3.2793l-0.02148 3.2305 0.55274-0.04688c0.30428-0.02668 0.84216-0.09526 1.1934-0.15234 0.38423-0.06245 0.8038-0.1439 1.2207-0.23242 0.4169-0.08852 0.83113-0.18547 1.1992-0.2793 0.36809-0.09383 0.68993-0.18531 0.92773-0.26367 0.2378-0.07836 0.38998-0.14342 0.41602-0.18555 0.01183-0.01914 0.01187-0.05021-2e-3 -0.0918-0.01382-0.04159-0.04101-0.09268-0.07813-0.1543-0.07424-0.12324-0.19236-0.28376-0.3457-0.47266-0.30669-0.37779-0.75326-0.86802-1.2637-1.3926-0.51041-0.52456-1.0846-1.0847-1.6484-1.6016-0.28191-0.25843-0.56104-0.50683-0.82812-0.73438-0.26709-0.22754-0.52238-0.43398-0.75586-0.61133-0.12314-0.09354-0.24006-0.17376-0.33008-0.22656-0.06751-0.0396-0.119-0.0645-0.14648-0.06836zm-52.855 1.8183a32 32 0 0 0 0.67383 3.8418c0.37309-0.00449 0.70339-0.011719 1.2227-0.011719h2.8418v-3.8086zm35.168 3.2871c-0.02039-0.0014-0.03768 1.3e-4 -0.05273 0.0039-0.0459 0.01152-0.11719 0.05599-0.20703 0.13086-0.08984 0.07487-0.19789 0.17966-0.32227 0.30664-0.24874 0.25396-0.55818 0.60108-0.88867 0.99609-0.33049 0.39501-0.68249 0.83701-1.0195 1.2832-0.33704 0.44619-0.65933 0.89524-0.92773 1.3027-0.26038 0.39532-0.50687 0.7971-0.74024 1.2031-0.23336 0.40603-0.45352 0.81681-0.66016 1.2344-0.20664 0.41757-0.39989 0.84155-0.58008 1.2715-0.18019 0.42993-0.34596 0.86547-0.5 1.3086s-0.29566 0.89442-0.42383 1.3516c-0.12817 0.45715-0.24311 0.92058-0.3457 1.3926-0.10259 0.472-0.19223 0.95178-0.26953 1.4395-0.0773 0.48767-0.14302 0.98411-0.19531 1.4883l-0.03906 0.37109h3.2617c1.7932 0 3.2598-0.01203 3.2598-0.02734s0.04706-0.48664 0.10547-1.0469c0.05383-0.51653 0.1136-1.0122 0.17969-1.4922 0.06609-0.48003 0.1398-0.94373 0.2207-1.3965 0.0809-0.45275 0.16931-0.89344 0.26758-1.3281 0.09827-0.43468 0.20603-0.86324 0.32422-1.2891 0.11819-0.42583 0.24604-0.8492 0.38672-1.2754 0.14067-0.42619 0.29327-0.85525 0.45898-1.291 0.16572-0.43576 0.34575-0.87943 0.53906-1.334 0.19331-0.45455 0.39958-0.91979 0.62305-1.4023 0.27106-0.58533 0.51512-1.1318 0.54102-1.2148 0.01011-0.03242 0.01231-0.06245 0.0039-0.0918-0.0084-0.02934-0.02845-0.05861-0.06445-0.09375-0.07201-0.07027-0.20832-0.1619-0.44531-0.30859-0.30355-0.18788-0.96312-0.60872-1.4668-0.93555-0.34354-0.22292-0.58188-0.36854-0.75-0.45508-0.08406-0.04327-0.15026-0.0722-0.20312-0.08789-0.02643-0.0078-0.04992-0.01225-0.07031-0.01367zm25.176 3.3887-0.44336 0.12891c-0.97746 0.28709-1.6245 0.47189-2.1621 0.61133-0.53757 0.13944-0.96585 0.23425-1.5098 0.3418-0.68289 0.13501-1.7448 0.31931-2.3594 0.4082l-1.1172 0.16016v10.045l2.3301-0.0039a32 32 0 0 0 6.3047-9.6953c-0.12368-0.28924-0.2506-0.59384-0.36328-0.83008-0.17424-0.36529-0.33062-0.657-0.45508-0.83789zm-18.688 0.06055c-0.02735 0-0.06003 0.01871-0.09766 0.05273s-0.08029 0.08349-0.12695 0.14844c-0.09332 0.1299-0.20226 0.31774-0.32422 0.55273-0.12196 0.23499-0.25588 0.51675-0.39648 0.83203-0.14061 0.31528-0.28822 0.66438-0.4375 1.0352-0.29856 0.74156-0.60558 1.57-0.87891 2.3848-0.13666 0.40737-0.26353 0.81075-0.37891 1.1992-0.11538 0.38847-0.21863 0.76266-0.30274 1.1074-0.08347 0.34218-0.16127 0.70194-0.23047 1.0664-0.0692 0.36447-0.12892 0.73228-0.17969 1.0898s-0.0929 0.70392-0.12109 1.0254c-0.0282 0.32147-0.04344 0.61883-0.04492 0.875l-2e-3 0.19336 2.75 0.01953c1.5121 0.01067 4.0016 0.02784 5.5332 0.03711l2.7852 0.01758v-5.0391c0-1.9913-0.0042-3.2502-0.01758-4.0117-0.0067-0.38078-0.01574-0.63769-0.02734-0.79883-0.0116-0.16114-0.02545-0.22654-0.04297-0.22656-0.15957-2.11e-4 -3.2679-0.49223-3.8496-0.60938-0.31218-0.06285-1.2259-0.30304-2.0312-0.5332-0.80532-0.23016-1.5157-0.41797-1.5781-0.41797zm-13.609 15.182 0.04883 0.37305c0.07828 0.59726 0.18586 1.2198 0.31641 1.8477s0.28407 1.2618 0.45703 1.8848c0.17296 0.62292 0.3648 1.2339 0.57031 1.8164 0.06307 0.17876 0.13564 0.33114 0.20117 0.50391a32 32 0 0 0 2.1621 0.14062 32 32 0 0 0 3.8906-0.25391c-0.0493-0.17723-0.10262-0.35082-0.14844-0.53125-0.09837-0.38738-0.1902-0.78379-0.27539-1.1953-0.08519-0.41152-0.16428-0.83863-0.24024-1.2871-0.07595-0.44848-0.14811-0.91972-0.21875-1.418l-0.26172-1.8438-3.25-0.01953zm10.16 2e-3v0.22656c0 0.23364 0.0574 0.76253 0.14062 1.3555 0.08322 0.59294 0.19286 1.2506 0.29492 1.7441 0.12635 0.61092 0.27193 1.214 0.43945 1.8125 0.04719 0.16858 0.10952 0.3358 0.16016 0.50391a32 32 0 0 0 9.9609-4.3008v-1.3418h-5.498z" fill="#4da6bf" stop-color="#000000" style="paint-order:markers fill stroke"/></g></g></svg>
