<?xml version="1.0" encoding="UTF-8"?>
<!-- Generator: Adobe Illustrator 18.1.1, SVG Export Plug-In . SVG Version: 6.00 Build 0)  -->
<svg id="Capa_1" width="64" height="64" version="1.1" viewBox="0 0 64 64" xml:space="preserve" xmlns="http://www.w3.org/2000/svg" xmlns:cc="http://creativecommons.org/ns#" xmlns:dc="http://purl.org/dc/elements/1.1/" xmlns:rdf="http://www.w3.org/1999/02/22-rdf-syntax-ns#"><metadata id="metadata41"><rdf:RDF><cc:Work rdf:about=""><dc:format>image/svg+xml</dc:format><dc:type rdf:resource="http://purl.org/dc/dcmitype/StillImage"/></cc:Work></rdf:RDF></metadata><g id="g4"><g id="g46949" transform="scale(.69564)"><g id="g5979" transform="matrix(3.0796 0 0 3.0796 304.18 -143.54)"><path id="Oval-1" d="m-83.834 76.485c8.2495 0 14.937-6.6875 14.937-14.937s-6.6875-14.937-14.937-14.937-14.937 6.6875-14.937 14.937 6.6875 14.937 14.937 14.937z" fill="#b3d9e5" fill-rule="evenodd"/><g id="text48209" fill="#fff" stop-color="#000000" stroke-linecap="square" stroke-linejoin="bevel" stroke-miterlimit="8.5" stroke-width="16.807" style="paint-order:markers fill stroke" aria-label="?"><path id="path17217" d="m-86.06 65.133q0-1.8382 0.44643-2.928t1.6281-2.1402q1.1948-1.0635 1.5888-1.7201 0.39391-0.66964 0.39391-1.4049 0-2.219-2.0483-2.219-0.97163 0-1.5625 0.60399-0.57773 0.59086-0.60399 1.6413h-3.8078q0.02626-2.5079 1.615-3.9259 1.6019-1.4181 4.3592-1.4181 2.7836 0 4.3198 1.3524 1.5362 1.3393 1.5362 3.7946 0 1.1161-0.49895 2.114-0.49895 0.98476-1.7463 2.1927l-1.0635 1.011q-0.99789 0.9585-1.1423 2.2453l-0.05252 0.80094zm-0.38078 4.031q0-0.87972 0.59086-1.4443 0.60399-0.57773 1.5362-0.57773 0.93224 0 1.5231 0.57773 0.60399 0.5646 0.60399 1.4443 0 0.86659-0.59086 1.4312-0.57773 0.5646-1.5362 0.5646-0.9585 0-1.5494-0.5646-0.57773-0.5646-0.57773-1.4312z" fill="#fff"/></g></g></g></g></svg>
