<?xml version="1.0" encoding="UTF-8" standalone="no"?>
<!-- Generator: Adobe Illustrator 18.1.1, SVG Export Plug-In . SVG Version: 6.00 Build 0)  -->

<svg
   version="1.1"
   id="Capa_1"
   x="0px"
   y="0px"
   viewBox="0 0 64 64"
   xml:space="preserve"
   sodipodi:docname="c-question_blue.svg"
   inkscape:version="1.3.1 (9b9bdc1480, 2023-11-25, custom)"
   width="64"
   height="64"
   xmlns:inkscape="http://www.inkscape.org/namespaces/inkscape"
   xmlns:sodipodi="http://sodipodi.sourceforge.net/DTD/sodipodi-0.dtd"
   xmlns="http://www.w3.org/2000/svg"
   xmlns:svg="http://www.w3.org/2000/svg"
   xmlns:rdf="http://www.w3.org/1999/02/22-rdf-syntax-ns#"
   xmlns:cc="http://creativecommons.org/ns#"
   xmlns:dc="http://purl.org/dc/elements/1.1/"
   xmlns:sketch="http://www.bohemiancoding.com/sketch/ns"><metadata
     id="metadata41"><rdf:RDF><cc:Work
         rdf:about=""><dc:format>image/svg+xml</dc:format><dc:type
           rdf:resource="http://purl.org/dc/dcmitype/StillImage" /></cc:Work></rdf:RDF></metadata><defs
     id="defs39" /><sodipodi:namedview
     pagecolor="#ffffff"
     bordercolor="#666666"
     borderopacity="1"
     objecttolerance="10"
     gridtolerance="10"
     guidetolerance="10"
     inkscape:pageopacity="0"
     inkscape:pageshadow="2"
     inkscape:window-width="1710"
     inkscape:window-height="982"
     id="namedview37"
     showgrid="false"
     inkscape:zoom="4.6633384"
     inkscape:cx="-53.180786"
     inkscape:cy="56.182927"
     inkscape:window-x="62"
     inkscape:window-y="32"
     inkscape:window-maximized="0"
     inkscape:current-layer="text48209"
     inkscape:showpageshadow="2"
     inkscape:pagecheckerboard="0"
     inkscape:deskcolor="#d1d1d1" /><g
     id="g4"><g
       id="g46949"
       transform="scale(0.69564461)"><g
         id="g5979"
         transform="matrix(3.0796275,0,0,3.0796275,304.17786,-143.54461)"
         style="fill:#ffc14c;fill-opacity:1"><path
           d="m -83.833956,76.485097 c 8.249496,0 14.937034,-6.687538 14.937034,-14.937034 0,-8.249496 -6.687538,-14.937034 -14.937034,-14.937034 -8.249496,0 -14.937034,6.687538 -14.937034,14.937034 0,8.249496 6.687538,14.937034 14.937034,14.937034 z"
           id="Oval-1"
           fill="#1191bb"
           sketch:type="MSShapeGroup"
           style="fill:#b3d9e5;fill-opacity:1;fill-rule:evenodd;stroke:none;stroke-width:0.466782" /><g
           aria-label="?"
           id="text48209"
           style="font-weight:bold;font-size:26.8906px;line-height:1;font-family:Roboto;-inkscape-font-specification:'Roboto Bold';text-align:center;text-anchor:middle;fill:#ffffff;stroke-width:16.8068;stroke-linecap:square;stroke-linejoin:bevel;stroke-miterlimit:8.5;paint-order:markers fill stroke;stop-color:#000000"><path
             d="m -86.059519,65.132604 q 0,-1.838224 0.446426,-2.928029 0.446426,-1.089805 1.628142,-2.140219 1.194846,-1.063544 1.588751,-1.720053 0.393906,-0.669639 0.393906,-1.404928 0,-2.219 -2.048308,-2.219 -0.971633,0 -1.562491,0.603988 -0.577728,0.590858 -0.603988,1.641272 h -3.807751 q 0.02626,-2.507864 1.615012,-3.925923 1.601881,-1.418059 4.359218,-1.418059 2.783597,0 4.319828,1.352408 1.536231,1.339278 1.536231,3.794621 0,1.116065 -0.498947,2.113959 -0.498947,0.984763 -1.746313,2.192739 l -1.063545,1.011023 q -0.997893,0.958503 -1.142325,2.245261 l -0.05252,0.80094 z m -0.380775,4.030964 q 0,-0.879721 0.590858,-1.444319 0.603988,-0.577728 1.536231,-0.577728 0.932242,0 1.5231,0.577728 0.603988,0.564598 0.603988,1.444319 0,0.866592 -0.590858,1.431189 -0.577728,0.564598 -1.53623,0.564598 -0.958503,0 -1.549361,-0.564598 -0.577728,-0.564597 -0.577728,-1.431189 z"
             id="path17217"
             style="fill:#ffffff;fill-opacity:1" /></g></g></g></g><g
     id="g6" /><g
     id="g8" /><g
     id="g10" /><g
     id="g12" /><g
     id="g14" /><g
     id="g16" /><g
     id="g18" /><g
     id="g20" /><g
     id="g22" /><g
     id="g24" /><g
     id="g26" /><g
     id="g28" /><g
     id="g30" /><g
     id="g32" /><g
     id="g34" /></svg>
