<?xml version="1.0" encoding="UTF-8"?>
<svg id="svg4026" width="64px" height="64px" version="1.1" viewBox="0 0 64 64" xml:space="preserve" xmlns="http://www.w3.org/2000/svg">
 <!-- Generator: Sketch 3.4 (15575) - http://www.bohemiancoding.com/sketch --><title id="title4015">c-document</title><desc id="desc4017">Created with Sketch.</desc><path id="Oval-1" d="m32 64c17.673 0 32-14.327 32-32s-14.327-32-32-32-32 14.327-32 32 14.327 32 32 32z" fill="#4da6bf" fill-rule="evenodd"/><g id="g9668" transform="translate(1.5,-4)" fill="#fff" fill-rule="evenodd"><path id="Rectangle-50" d="m18 14h29v36h-29zm19 0h10v10h-10z"/><path id="Rectangle-52" d="m39 15.5 6.5 6.5h-6.5z"/></g><g id="g5979" transform="matrix(.48438 0 0 .48438 9.0859 27.006)"><g id="c-trashcan"><circle id="Oval-1-5" cx="32" cy="32" r="32" fill="#d40f57"/><path id="Rectangle-53" d="m17.427 18.641v-3.6433h10.93v-3.6433h8.5009v3.6433h9.7154v3.6433zm29.146 2.4288-2.4288 31.575h-24.288l-2.4288-31.575z" fill="#fff" stroke-width="1.2144"/></g></g></svg>
