<?xml version="1.0" encoding="UTF-8" standalone="no"?>
<!-- Generator: Adobe Illustrator 18.1.1, SVG Export Plug-In . SVG Version: 6.00 Build 0)  -->

<svg
   id="Capa_1"
   width="64"
   height="64"
   version="1.1"
   viewBox="0 0 3.6575 3.6575"
   xml:space="preserve"
   sodipodi:docname="c-sample.svg"
   inkscape:version="1.3.1 (9b9bdc1480, 2023-11-25, custom)"
   xmlns:inkscape="http://www.inkscape.org/namespaces/inkscape"
   xmlns:sodipodi="http://sodipodi.sourceforge.net/DTD/sodipodi-0.dtd"
   xmlns="http://www.w3.org/2000/svg"
   xmlns:svg="http://www.w3.org/2000/svg"><defs
   id="defs1" /><sodipodi:namedview
   id="namedview1"
   pagecolor="#505050"
   bordercolor="#ffffff"
   borderopacity="1"
   inkscape:showpageshadow="0"
   inkscape:pageopacity="0"
   inkscape:pagecheckerboard="1"
   inkscape:deskcolor="#d1d1d1"
   inkscape:zoom="29.546875"
   inkscape:cx="31.983078"
   inkscape:cy="32"
   inkscape:window-width="3840"
   inkscape:window-height="2091"
   inkscape:window-x="0"
   inkscape:window-y="0"
   inkscape:window-maximized="1"
   inkscape:current-layer="Capa_1" />
<path
   id="Oval-1"
   d="m 1.8288,3.6594342 c 1.01,0 1.8288,-0.81876 1.8288,-1.8288 0,-1.01004004 -0.81876,-1.82880004 -1.8288,-1.82880004 -1.01004,0 -1.8288,0.81876 -1.8288,1.82880004 0,1.01004 0.81876,1.8288 1.8288,1.8288 z"
   fill="#4da6bf"
   fill-rule="evenodd" />















<path
   id="path1-3-6-2"
   style="fill:#f9f9f9;stroke-width:0.0571484"
   d="m 1.3912977,0.98726094 c -0.047376,0 -0.085723,0.038347 -0.085723,0.085723 0,0.047376 0.038347,0.085723 0.085723,0.085723 l 0.0011,1.2257599 C 1.3925395,2.5420249 1.5205818,2.670209 1.67814,2.670209 c 0.00479,0 0.00952,-5.468e-4 0.014287,-7.813e-4 0.00477,2.345e-4 0.0095,7.813e-4 0.014287,7.813e-4 0.1575581,0 0.285884,-0.1281841 0.2857422,-0.2857422 l -0.0011,-1.2257599 c 0.047376,0 0.085723,-0.038347 0.085723,-0.085723 0,-0.047376 -0.038347,-0.085723 -0.085723,-0.085723 z M 1.8199111,1.1587062 v 0.2857422 l -0.01797,4.465e-4 -0.2391975,-4.465e-4 V 1.1600457 Z m -0.257168,0.4571875 h 0.040629 0.17591 0.040629 l 0.0011,0.7684608 c 9.05e-5,0.063035 -0.051262,0.1142969 -0.1142969,0.1142969 -0.00461,0 -0.00963,3.396e-4 -0.014734,7.813e-4 -0.00486,-4.164e-4 -0.00955,-6.697e-4 -0.013841,-6.697e-4 -0.063035,0 -0.1142969,-0.051262 -0.1142969,-0.1142969 z"
   sodipodi:nodetypes="sscsscsscsssccccccccccsscscc" /><path
   id="path1-3-6-2-9"
   style="fill:#f9f9f9;stroke-width:0.0571484"
   d="m 0.61220032,0.98726094 c -0.047376,0 -0.085723,0.038347 -0.085723,0.085723 0,0.047376 0.038347,0.085723 0.085723,0.085723 l 0.0011,1.2257599 c 1.418e-4,0.1575581 0.1281841,0.2857422 0.2857423,0.2857422 0.00479,0 0.00952,-5.468e-4 0.014287,-7.813e-4 0.00477,2.345e-4 0.0095,7.813e-4 0.014287,7.813e-4 0.15755808,0 0.28588398,-0.1281841 0.28574218,-0.2857422 l -0.0011,-1.2257599 c 0.047376,0 0.085723,-0.038347 0.085723,-0.085723 0,-0.047376 -0.038347,-0.085723 -0.085723,-0.085723 z M 1.0408137,1.1587062 v 0.2857422 l -0.01797,4.465e-4 -0.23919748,-4.465e-4 V 1.1600457 Z M 0.78364572,1.6158937 h 0.040629 0.17590998 0.040629 l 0.0011,0.7684608 c 9.05e-5,0.063035 -0.051262,0.1142969 -0.11429688,0.1142969 -0.00461,0 -0.00963,3.396e-4 -0.014734,7.813e-4 -0.00486,-4.164e-4 -0.00955,-6.697e-4 -0.013841,-6.697e-4 -0.063035,0 -0.1142969,-0.051262 -0.1142969,-0.1142969 z"
   sodipodi:nodetypes="sscsscsscsssccccccccccsscscc" /><g
   id="g1"
   transform="translate(0.89694484,-0.05480444)"><path
     id="path1-3-6"
     style="fill:#f9f9f9;stroke-width:0.0571484"
     d="m 1.2734502,1.042066 c -0.047376,0 -0.085723,0.038347 -0.085723,0.085723 0,0.047376 0.038347,0.085723 0.085723,0.085723 l 10e-4,1.2257893 c 1.418e-4,0.1575579 0.1282958,0.2857422 0.2858538,0.2857422 0.00479,0 0.00941,-5.468e-4 0.014176,-7.813e-4 0.00477,2.345e-4 0.0095,7.813e-4 0.014287,7.813e-4 0.1293849,0 0.2390166,-0.086543 0.2740223,-0.2047075 C 1.8048253,2.511876 1.7499154,2.490531 1.7015012,2.457718 1.6926412,2.511932 1.6454682,2.553486 1.588767,2.553486 c -0.00461,0 -0.00963,3.397e-4 -0.014734,7.814e-4 -0.00486,-4.164e-4 -0.00955,-6.697e-4 -0.013841,-6.697e-4 -0.063035,0 -0.1142969,-0.051262 -0.1142969,-0.1142969 l -10e-4,-0.7686018 h 0.040629 0.1759101 0.040629 l 1.116e-4,0.1100553 0.040629,-0.044647 c 0.037867,-0.037761 0.083652,-0.060821 0.1310396,-0.069873 L 1.8735088,1.2135114 c 0.047376,0 0.085723,-0.038347 0.085723,-0.085723 0,-0.047376 -0.038347,-0.085723 -0.085723,-0.085723 z M 1.7020635,1.2135114 V 1.4992535 L 1.684093,1.4997 1.4448956,1.4992535 V 1.2148508 Z" /><path
     d="M 2.1448099,1.8966593 2.0582869,1.8015643 C 1.9838799,1.7277853 1.858496,1.7245853 1.778031,1.8048243 l -0.080979,0.089266 c -0.1218404,0.123555 -0.1218404,0.324546 0,0.4481009 0.059434,0.060234 0.1384707,0.093381 0.2226504,0.093381 0.08418,0 0.1632159,-0.033203 0.2226503,-0.093381 0.1218972,-0.1235544 0.1218972,-0.3245454 0.0024,-0.4455287 z M 2.0203406,2.2217768 v 0 c -0.053834,0.054634 -0.1473287,0.054634 -0.2012197,0 -0.056348,-0.057148 -0.056348,-0.150129 0.0024,-0.2098491 l 0.080351,-0.088637 c 0.00623,-0.00617 0.013087,-0.00749 0.01783,-0.00749 0.00474,0 0.011658,0.00131 0.014801,0.00423 l 0.08578,0.094409 c 0.056406,0.057149 0.056406,0.150129 0,0.2072774 z"
     id="path1-3-9"
     style="fill:#f9f9f9;stroke-width:0.0571484"
     sodipodi:nodetypes="cccccsccccscccscccc" /></g></svg>
