<?xml version="1.0" encoding="UTF-8"?>
<!-- Created with Inkscape (http://www.inkscape.org/) -->
<svg id="svg58931" width="16.933mm" height="16.933mm" version="1.1" viewBox="0 0 16.933 16.933" xmlns="http://www.w3.org/2000/svg">
 <g id="layer1" transform="translate(97.146 -57.901)">
  <path id="Oval-1" d="m-88.68 74.835c4.676 0 8.4667-3.7906 8.4667-8.4667s-3.7906-8.4667-8.4667-8.4667c-4.676 0-8.4667 3.7907-8.4667 8.4667s3.7907 8.4667 8.4667 8.4667z" fill="#4da6bf" fill-rule="evenodd"/>
  <g id="g59749" transform="matrix(.19768 0 0 .19768 -70.699 42.582)" fill="#feffff">
   <path id="path3813" d="m-98.412 115.33-2.3449 1.0117 6.4752 11.821-4.1303-12.833"/>
   <path id="path60491" d="m-102.39 113.67-11.821 6.4752 12.833-4.1277-1.0117-2.3475"/>
   <path id="path60489" d="m-86.348 108.16-12.833 4.1303 1.0064 2.3449 11.826-6.4752"/>
   <path id="path60487" d="m-106.28 100.18 4.1329 12.835 2.3475-1.0091-6.4804-11.826"/>
   <path id="path60485" d="m-53.023 140.22-7.9888 0.0199-0.94108-39.682-16.94 39.654 1.924-51.551-19.982 51.579h-2.7605l-2.3867-21.559-18.895 27.903h6.619l8.3966-12.922 1.2992 12.922h11.392l9.5625-25.362-1.4456 25.362h10.091l8.373-20.824-0.21697 20.824 9.8004-1e-5c1.6583-2.1214 2.9911-4.2429 4.0989-6.3644z"/>
  </g>
 </g>
</svg>
