<?xml version="1.0" encoding="UTF-8" standalone="no"?>
<!-- Created with Inkscape (http://www.inkscape.org/) -->

<svg
   width="16.933334mm"
   height="16.933334mm"
   viewBox="0 0 16.933334 16.933334"
   version="1.1"
   id="svg5"
   xml:space="preserve"
   sodipodi:docname="c-user.svg"
   inkscape:version="1.2 (dc2aeda, 2022-05-15)"
   xmlns:inkscape="http://www.inkscape.org/namespaces/inkscape"
   xmlns:sodipodi="http://sodipodi.sourceforge.net/DTD/sodipodi-0.dtd"
   xmlns="http://www.w3.org/2000/svg"
   xmlns:svg="http://www.w3.org/2000/svg"><sodipodi:namedview
     id="namedview63040"
     pagecolor="#ffffff"
     bordercolor="#000000"
     borderopacity="0.25"
     inkscape:showpageshadow="2"
     inkscape:pageopacity="0.0"
     inkscape:pagecheckerboard="0"
     inkscape:deskcolor="#d1d1d1"
     inkscape:document-units="mm"
     showgrid="false"
     inkscape:zoom="3.9392567"
     inkscape:cx="-20.562255"
     inkscape:cy="36.55512"
     inkscape:window-width="1710"
     inkscape:window-height="982"
     inkscape:window-x="0"
     inkscape:window-y="39"
     inkscape:window-maximized="0"
     inkscape:current-layer="g63635" /><defs
     id="defs2" /><g
     id="layer1"
     transform="translate(-11.367419,-18.42243)"><g
       id="g3973"
       transform="matrix(0.41789475,0,0,0.41789475,-0.16068977,11.356816)"><g
         id="g63635"
         transform="matrix(1.1964736,0,0,1.1964736,-5.4199502,-3.3219046)"><circle
           style="fill:#b3d9e5;fill-opacity:1;stroke-width:0.0594092;stroke-linejoin:round;stroke-miterlimit:8.5;stroke-dasharray:0.181252, 0.181252;paint-order:markers fill stroke"
           id="circle3965"
           cx="44.519485"
           cy="33.840973"
           r="16.933332" /><g
           id="g3971"
           transform="matrix(0.86199742,0,0,0.86199742,6.1438038,4.6701415)"><path
             style="fill:#ffffff;fill-opacity:1;stroke-width:0.0575733"
             d="m 43.783649,35.42235 c -2.831415,-0.330157 -5.319496,-2.91537 -6.029886,-6.265291 -0.947909,-4.469961 1.323646,-9.000176 5.092964,-10.157003 1.297233,-0.398133 2.757082,-0.299116 4.105883,0.278482 1.823263,0.78078 3.467401,2.746857 4.119689,4.926366 0.814134,2.720291 0.453118,5.683603 -0.964603,7.917815 -1.19299,1.880052 -2.950401,3.063173 -4.90676,3.303328 -0.592251,0.07271 -0.765981,0.07224 -1.417287,-0.0037 z"
             id="path3967" /><path
             style="fill:#ffffff;fill-opacity:1;stroke-width:0.0569168"
             d="m 43.575196,48.90951 c -2.843688,-0.216451 -5.344133,-1.07011 -7.541467,-2.574686 -1.65602,-1.133922 -3.264663,-2.802376 -4.289163,-4.44864 -0.324258,-0.52105 -0.331277,-0.665948 -0.05869,-1.211468 0.508696,-1.018027 1.047401,-1.759506 1.872345,-2.577108 1.309121,-1.297463 3.087001,-2.217528 4.876284,-2.523507 0.691634,-0.118273 0.906986,-0.091 1.315014,0.166582 0,0 2.806245,3.445649 4.76675,3.445333 1.960962,-3.16e-4 4.76675,-3.447674 4.76675,-3.447674 0.378183,-0.238686 0.729305,-0.274733 1.427035,-0.146507 2.494281,0.458386 4.793287,2.053344 6.237979,4.327662 0.271718,0.427755 0.600213,1.144371 0.600213,1.309369 0,0.29451 -0.994323,1.717036 -1.902002,2.721094 -2.463498,2.725072 -5.588962,4.369763 -9.224057,4.853912 -0.627281,0.08355 -2.314962,0.146217 -2.846997,0.105719 z"
             id="path3969" /></g></g></g></g></svg>
