<?xml version="1.0" encoding="UTF-8"?>
<!-- Created with Inkscape (http://www.inkscape.org/) -->
<svg id="svg5" width="16.933mm" height="16.933mm" version="1.1" viewBox="0 0 16.933 16.933" xml:space="preserve" xmlns="http://www.w3.org/2000/svg"><g id="layer1" transform="translate(-11.367 -18.422)"><g id="g3973" transform="matrix(.41789 0 0 .41789 -.16069 11.357)"><g id="g63635" transform="matrix(1.1965 0 0 1.1965 -5.42 -3.3219)"><circle id="circle3965" cx="44.519" cy="33.841" r="16.933" fill="#b3d9e5" stroke-dasharray="0.181252, 0.181252" stroke-linejoin="round" stroke-miterlimit="8.5" stroke-width=".059409" style="paint-order:markers fill stroke"/><g id="g3971" transform="matrix(.862 0 0 .862 6.1438 4.6701)" fill="#fff"><path id="path3967" d="m43.784 35.422c-2.8314-0.33016-5.3195-2.9154-6.0299-6.2653-0.94791-4.47 1.3236-9.0002 5.093-10.157 1.2972-0.39813 2.7571-0.29912 4.1059 0.27848 1.8233 0.78078 3.4674 2.7469 4.1197 4.9264 0.81413 2.7203 0.45312 5.6836-0.9646 7.9178-1.193 1.8801-2.9504 3.0632-4.9068 3.3033-0.59225 0.07271-0.76598 0.07224-1.4173-0.0037z" stroke-width=".057573"/><path id="path3969" d="m43.575 48.91c-2.8437-0.21645-5.3441-1.0701-7.5415-2.5747-1.656-1.1339-3.2647-2.8024-4.2892-4.4486-0.32426-0.52105-0.33128-0.66595-0.05869-1.2115 0.5087-1.018 1.0474-1.7595 1.8723-2.5771 1.3091-1.2975 3.087-2.2175 4.8763-2.5235 0.69163-0.11827 0.90699-0.091 1.315 0.16658 0 0 2.8062 3.4456 4.7668 3.4453 1.961-3.16e-4 4.7668-3.4477 4.7668-3.4477 0.37818-0.23869 0.7293-0.27473 1.427-0.14651 2.4943 0.45839 4.7933 2.0533 6.238 4.3277 0.27172 0.42776 0.60021 1.1444 0.60021 1.3094 0 0.29451-0.99432 1.717-1.902 2.7211-2.4635 2.7251-5.589 4.3698-9.2241 4.8539-0.62728 0.08355-2.315 0.14622-2.847 0.10572z" stroke-width=".056917"/></g><g id="g5979" transform="matrix(.36811 0 0 .36811 86.285 .40723)"><path id="Oval-1" d="m-83.834 76.485c8.2495 0 14.937-6.6875 14.937-14.937s-6.6875-14.937-14.937-14.937-14.937 6.6875-14.937 14.937 6.6875 14.937 14.937 14.937z" fill="#d40f57" fill-rule="evenodd"/><g id="g37947" transform="rotate(7.3152 -83.799 66.161)" fill="none" stroke="#fff" stroke-linecap="square" stroke-linejoin="bevel" stroke-miterlimit="8.5" stroke-width="4.5141"><path id="path34624" d="m-89.213 67.629 9.5844-12.078" stop-color="#000000" style="paint-order:markers fill stroke"/><path id="path37943" d="m-78.382 66.382-12.078-9.5844" stop-color="#000000" style="paint-order:markers fill stroke"/></g></g></g></g></g></svg>
