<?xml version="1.0" encoding="UTF-8" standalone="no"?>
<!-- Generator: Adobe Illustrator 18.1.1, SVG Export Plug-In . SVG Version: 6.00 Build 0)  -->

<svg
   version="1.1"
   id="Capa_1"
   x="0px"
   y="0px"
   viewBox="0 0 64 64"
   xml:space="preserve"
   sodipodi:docname="c-zodiac.svg"
   inkscape:version="1.2 (dc2aeda, 2022-05-15)"
   width="64"
   height="64"
   inkscape:export-filename="c-zodiac.png"
   inkscape:export-xdpi="96"
   inkscape:export-ydpi="96"
   xmlns:inkscape="http://www.inkscape.org/namespaces/inkscape"
   xmlns:sodipodi="http://sodipodi.sourceforge.net/DTD/sodipodi-0.dtd"
   xmlns="http://www.w3.org/2000/svg"
   xmlns:svg="http://www.w3.org/2000/svg"
   xmlns:rdf="http://www.w3.org/1999/02/22-rdf-syntax-ns#"
   xmlns:cc="http://creativecommons.org/ns#"
   xmlns:dc="http://purl.org/dc/elements/1.1/"><metadata
     id="metadata41"><rdf:RDF><cc:Work
         rdf:about=""><dc:format>image/svg+xml</dc:format><dc:type
           rdf:resource="http://purl.org/dc/dcmitype/StillImage" /></cc:Work></rdf:RDF></metadata><defs
     id="defs39" /><sodipodi:namedview
     pagecolor="#ffffff"
     bordercolor="#666666"
     borderopacity="1"
     objecttolerance="10"
     gridtolerance="10"
     guidetolerance="10"
     inkscape:pageopacity="0"
     inkscape:pageshadow="2"
     inkscape:window-width="1903"
     inkscape:window-height="921"
     id="namedview37"
     showgrid="false"
     inkscape:zoom="3.7088463"
     inkscape:cx="-10.785025"
     inkscape:cy="24.401119"
     inkscape:window-x="0"
     inkscape:window-y="25"
     inkscape:window-maximized="0"
     inkscape:current-layer="g4"
     inkscape:showpageshadow="2"
     inkscape:pagecheckerboard="0"
     inkscape:deskcolor="#d1d1d1" /><g
     id="g4"><circle
       style="fill:#ffffff;stroke-width:3.46052;stroke-miterlimit:8.5;paint-order:markers fill stroke;stop-color:#000000;fill-opacity:1"
       id="path13914"
       cx="32"
       cy="32"
       r="32" /><path
       style="fill:#4da6bf;fill-opacity:1;stroke-width:0.695645"
       d="m 15.558787,21.26516 c 0.698428,0 1.373203,0.105738 2.008326,0.30191 2.398583,-2.687971 5.058032,-5.133162 7.938001,-7.304269 -0.120346,-0.508516 -0.191302,-1.035814 -0.191302,-1.581895 0,-0.754079 0.127998,-1.478245 0.354779,-2.156499 C 22.442886,8.2093021 18.933359,6.2670623 15.201226,4.7651656 11.701438,6.9279247 8.6496451,9.7473723 6.2176715,13.051684 c 1.8058935,3.197183 3.9526525,6.179411 6.3922785,8.893121 0.893208,-0.4313 1.892153,-0.679645 2.948837,-0.679645 z m -6.8075778,6.807578 c 0,-0.955815 0.19965,-1.865719 0.5551244,-2.690753 C 7.1206183,22.983402 5.142205,20.394213 3.407963,17.635982 1.2319866,21.955935 0,26.832404 0,31.998957 0,37.982891 1.6458952,43.579352 4.5049945,48.369561 5.5262008,42.611711 7.4642667,37.172466 10.141803,32.183302 9.2715514,31.041054 8.7512092,29.619852 8.7512092,28.072738 Z M 32.122086,5.8719362 c 1.798241,0 3.428832,0.7019054 4.645514,1.8406756 C 40.319562,6.1842806 44.061434,5.0128151 47.952174,4.2636058 43.255182,1.5568526 37.811067,0 31.999652,0 c -3.961,0 -7.753655,0.72555733 -11.25553,2.0424126 2.779796,1.3718112 5.428115,2.9745763 7.919914,4.7811654 1.01425,-0.6010369 2.194759,-0.9516418 3.45805,-0.9516418 z M 42.30354,37.939066 c 0.423648,-0.882077 1.02538,-1.661895 1.769024,-2.28241 -2.009021,-6.184976 -5.192987,-11.840567 -9.293116,-16.706601 -0.815991,0.346431 -1.714068,0.538429 -2.657362,0.538429 -1.476854,0 -2.839622,-0.475821 -3.955436,-1.274421 -2.467451,1.875458 -4.751252,3.978391 -6.827752,6.273323 0.648341,1.04138 1.028859,2.268497 1.028859,3.585352 0,0.711645 -0.109912,1.396159 -0.311649,2.040326 5.972109,3.990217 12.843687,6.725492 20.247432,7.826002 z m 8.831209,9.190161 c 0.09391,1.289029 0.143302,2.589885 0.143302,3.90187 0,2.310236 -0.147476,4.58569 -0.425734,6.820796 5.425332,-3.963783 9.557461,-9.590852 11.640917,-16.134086 -2.467452,0.596863 -5.000294,1.023294 -7.583918,1.271639 -0.607993,1.862936 -1.994413,3.370398 -3.774567,4.139781 z M 40.708427,42.515016 c -7.898349,-1.308507 -15.222791,-4.32204 -21.596983,-8.640602 -1.034423,0.634428 -2.248323,1.007989 -3.551265,1.007989 -0.478604,0 -0.944686,-0.05078 -1.396159,-0.144694 -3.051793,5.785677 -5.0016848,12.238476 -5.5623744,19.080141 3.0469234,3.266747 6.7644484,5.89837 10.9404024,7.665308 5.183248,-7.973479 12.432561,-14.568885 21.166379,-18.968142 z M 53.481158,8.2823448 c -5.127597,0.4946033 -10.02563,1.7815462 -14.585581,3.7161332 0.02435,0.224693 0.03548,0.451474 0.03548,0.681732 0,1.074771 -0.255997,2.087629 -0.699123,2.991967 4.555081,5.348116 8.093825,11.581092 10.32754,18.403974 2.76797,0.04939 5.135249,1.745373 6.152977,4.153694 3.080314,-0.312344 6.079934,-0.901555 8.969641,-1.751633 C 63.88661,35.014576 64,33.521027 64,31.998957 64,22.593841 59.941609,14.13689 53.481158,8.2823448 Z M 44.133781,46.152542 C 35.980826,49.971631 29.164205,55.853306 24.227215,63.044184 26.715536,63.665395 29.317942,64 31.999652,64 c 4.827078,0 9.400941,-1.075467 13.504549,-2.989185 0.659471,-3.225704 1.008685,-6.562016 1.008685,-9.979718 0,-1.234769 -0.05565,-2.457016 -0.148173,-3.668134 -0.822947,-0.263649 -1.577026,-0.676862 -2.230932,-1.210421 z"
       id="path2" /></g><g
     id="g6" /><g
     id="g8" /><g
     id="g10" /><g
     id="g12" /><g
     id="g14" /><g
     id="g16" /><g
     id="g18" /><g
     id="g20" /><g
     id="g22" /><g
     id="g24" /><g
     id="g26" /><g
     id="g28" /><g
     id="g30" /><g
     id="g32" /><g
     id="g34" /></svg>
