<?xml version="1.0" encoding="UTF-8"?>
<!-- Generator: Adobe Illustrator 18.1.1, SVG Export Plug-In . SVG Version: 6.00 Build 0)  -->
<svg id="Capa_1" width="64" height="64" version="1.1" viewBox="0 0 64 64" xml:space="preserve" xmlns="http://www.w3.org/2000/svg" xmlns:cc="http://creativecommons.org/ns#" xmlns:dc="http://purl.org/dc/elements/1.1/" xmlns:rdf="http://www.w3.org/1999/02/22-rdf-syntax-ns#"><metadata id="metadata41"><rdf:RDF><cc:Work rdf:about=""><dc:format>image/svg+xml</dc:format><dc:type rdf:resource="http://purl.org/dc/dcmitype/StillImage"/></cc:Work></rdf:RDF></metadata><g id="g4"><circle id="path13914" cx="32" cy="32" r="32" fill="#fff" stop-color="#000000" stroke-miterlimit="8.5" stroke-width="3.4605" style="paint-order:markers fill stroke"/><path id="path2" d="m15.559 21.265c0.69843 0 1.3732 0.10574 2.0083 0.30191 2.3986-2.688 5.058-5.1332 7.938-7.3043-0.12035-0.50852-0.1913-1.0358-0.1913-1.5819 0-0.75408 0.128-1.4782 0.35478-2.1565-3.2257-2.3151-6.7352-4.2573-10.467-5.7592-3.4998 2.1628-6.5516 4.9822-8.9836 8.2865 1.8059 3.1972 3.9527 6.1794 6.3923 8.8931 0.89321-0.4313 1.8922-0.67964 2.9488-0.67964zm-6.8076 6.8076c0-0.95582 0.19965-1.8657 0.55512-2.6908-2.1857-2.3986-4.1641-4.9878-5.8984-7.746-2.176 4.32-3.408 9.1964-3.408 14.363 0 5.9839 1.6459 11.58 4.505 16.371 1.0212-5.7578 2.9593-11.197 5.6368-16.186-0.87025-1.1422-1.3906-2.5634-1.3906-4.1106zm23.371-22.201c1.7982 0 3.4288 0.70191 4.6455 1.8407 3.552-1.5283 7.2938-2.6998 11.185-3.449-4.697-2.7068-10.141-4.2636-15.953-4.2636-3.961 0-7.7537 0.72556-11.256 2.0424 2.7798 1.3718 5.4281 2.9746 7.9199 4.7812 1.0142-0.60104 2.1948-0.95164 3.458-0.95164zm10.181 32.067c0.42365-0.88208 1.0254-1.6619 1.769-2.2824-2.009-6.185-5.193-11.841-9.2931-16.707-0.81599 0.34643-1.7141 0.53843-2.6574 0.53843-1.4769 0-2.8396-0.47582-3.9554-1.2744-2.4675 1.8755-4.7513 3.9784-6.8278 6.2733 0.64834 1.0414 1.0289 2.2685 1.0289 3.5854 0 0.71164-0.10991 1.3962-0.31165 2.0403 5.9721 3.9902 12.844 6.7255 20.247 7.826zm8.8312 9.1902c0.09391 1.289 0.1433 2.5899 0.1433 3.9019 0 2.3102-0.14748 4.5857-0.42573 6.8208 5.4253-3.9638 9.5575-9.5909 11.641-16.134-2.4675 0.59686-5.0003 1.0233-7.5839 1.2716-0.60799 1.8629-1.9944 3.3704-3.7746 4.1398zm-10.426-4.6142c-7.8983-1.3085-15.223-4.322-21.597-8.6406-1.0344 0.63443-2.2483 1.008-3.5513 1.008-0.4786 0-0.94469-0.05078-1.3962-0.14469-3.0518 5.7857-5.0017 12.238-5.5624 19.08 3.0469 3.2667 6.7644 5.8984 10.94 7.6653 5.1832-7.9735 12.433-14.569 21.166-18.968zm12.773-34.233c-5.1276 0.4946-10.026 1.7815-14.586 3.7161 0.02435 0.22469 0.03548 0.45147 0.03548 0.68173 0 1.0748-0.256 2.0876-0.69912 2.992 4.5551 5.3481 8.0938 11.581 10.328 18.404 2.768 0.04939 5.1352 1.7454 6.153 4.1537 3.0803-0.31234 6.0799-0.90156 8.9696-1.7516 0.20452-1.4636 0.31791-2.9572 0.31791-4.4793 0-9.4051-4.0584-17.862-10.519-23.717zm-9.3474 37.87c-8.153 3.8191-14.97 9.7008-19.907 16.892 2.4883 0.62121 5.0907 0.95582 7.7724 0.95582 4.8271 0 9.4009-1.0755 13.505-2.9892 0.65947-3.2257 1.0087-6.562 1.0087-9.9797 0-1.2348-0.05565-2.457-0.14817-3.6681-0.82295-0.26365-1.577-0.67686-2.2309-1.2104z" fill="#4da6bf" stroke-width=".69564"/></g></svg>
