<?xml version="1.0" encoding="UTF-8" standalone="no"?>
<!-- Generator: Adobe Illustrator 18.1.1, SVG Export Plug-In . SVG Version: 6.00 Build 0)  -->

<svg
   version="1.1"
   id="Capa_1"
   x="0px"
   y="0px"
   viewBox="0 0 3.6575 3.6575"
   xml:space="preserve"
   width="64"
   height="64"
   sodipodi:docname="db-lens.svg"
   inkscape:version="1.2 (dc2aeda, 2022-05-15)"
   xmlns:inkscape="http://www.inkscape.org/namespaces/inkscape"
   xmlns:sodipodi="http://sodipodi.sourceforge.net/DTD/sodipodi-0.dtd"
   xmlns="http://www.w3.org/2000/svg"
   xmlns:svg="http://www.w3.org/2000/svg"
   xmlns:sketch="http://www.bohemiancoding.com/sketch/ns"><defs
   id="defs18240" /><sodipodi:namedview
   id="namedview18238"
   pagecolor="#ffffff"
   bordercolor="#000000"
   borderopacity="0.25"
   inkscape:showpageshadow="2"
   inkscape:pageopacity="0.0"
   inkscape:pagecheckerboard="0"
   inkscape:deskcolor="#d1d1d1"
   showgrid="false"
   inkscape:zoom="3.4900039"
   inkscape:cx="39.828036"
   inkscape:cy="84.527126"
   inkscape:window-width="1710"
   inkscape:window-height="982"
   inkscape:window-x="0"
   inkscape:window-y="39"
   inkscape:window-maximized="0"
   inkscape:current-layer="Capa_1" />
<path
   d="M 1.82875,3.6575 C 2.838741,3.6575 3.6575,2.838741 3.6575,1.82875 3.6575,0.818759 2.838741,0 1.82875,0 0.818759,0 0,0.818759 0,1.82875 0,2.838741 0.818759,3.6575 1.82875,3.6575 Z"
   id="Oval-1"
   fill="#1191bb"
   sketch:type="MSShapeGroup"
   style="fill:#4da6bf;fill-opacity:1;fill-rule:evenodd;stroke:none;stroke-width:0.0571484" /><g
   id="g18205"
   transform="matrix(0.07812499,0,0,0.078125,0.34289079,0.80007812)">
	<path
   d="m 14.627,15.954 c -5.494,0 -10.098,-1.614 -11.355,-3.79 -0.221,0.383 -0.35,0.781 -0.35,1.194 v 3.561 c 0,2.751 5.242,4.983 11.705,4.983 6.467,0 11.711,-2.232 11.711,-4.983 v -3.561 c 0,-0.413 -0.131,-0.811 -0.354,-1.194 -1.257,2.175 -5.857,3.79 -11.357,3.79 z"
   fill="#ffffff"
   id="path18197" />
	<path
   d="m 14.627,23.31 c -5.494,0 -10.098,-1.616 -11.355,-3.788 -0.221,0.381 -0.35,0.779 -0.35,1.191 v 3.564 c 0,2.752 5.242,4.983 11.705,4.983 6.467,0 11.711,-2.23 11.711,-4.983 v -3.564 c 0,-0.412 -0.131,-0.81 -0.354,-1.19 -1.257,2.171 -5.857,3.787 -11.357,3.787 z"
   fill="#ffffff"
   id="path18199" />
	<path
   d="M 26.018,5.042 C 25.788,7.058 20.786,8.671 14.627,8.671 8.471,8.671 3.469,7.058 3.24,5.043 3.039,5.409 2.922,5.791 2.922,6.184 v 3.561 c 0,2.752 5.242,4.983 11.705,4.983 6.467,0 11.711,-2.23 11.711,-4.983 V 6.184 c 0,-0.393 -0.119,-0.775 -0.32,-1.142 z"
   fill="#ffffff"
   id="path18201" />
	<path
   d="m 14.627,7.541 c 6.303,0 11.41,-1.687 11.41,-3.771 C 26.037,1.688 20.93,0 14.627,0 8.328,0.001 3.219,1.689 3.219,3.771 c 0,2.083 5.109,3.77 11.408,3.77 z"
   fill="#ffffff"
   id="path18203" />
</g>
<g
   id="g18207"
   transform="translate(17.140657,-12.80125)">
</g>
<g
   id="g18209"
   transform="translate(17.140657,-12.80125)">
</g>
<g
   id="g18211"
   transform="translate(17.140657,-12.80125)">
</g>
<g
   id="g18213"
   transform="translate(17.140657,-12.80125)">
</g>
<g
   id="g18215"
   transform="translate(17.140657,-12.80125)">
</g>
<g
   id="g18217"
   transform="translate(17.140657,-12.80125)">
</g>
<g
   id="g18219"
   transform="translate(17.140657,-12.80125)">
</g>
<g
   id="g18221"
   transform="translate(17.140657,-12.80125)">
</g>
<g
   id="g18223"
   transform="translate(17.140657,-12.80125)">
</g>
<g
   id="g18225"
   transform="translate(17.140657,-12.80125)">
</g>
<g
   id="g18227"
   transform="translate(17.140657,-12.80125)">
</g>
<g
   id="g18229"
   transform="translate(17.140657,-12.80125)">
</g>
<g
   id="g18231"
   transform="translate(17.140657,-12.80125)">
</g>
<g
   id="g18233"
   transform="translate(17.140657,-12.80125)">
</g>
<g
   id="g18235"
   transform="translate(17.140657,-12.80125)">
</g>
<path
   id="path28517"
   style="color:#000000;fill:#ffc14c;fill-opacity:1;stroke-width:0.0571484;stroke-linejoin:round;stroke-miterlimit:8.5;-inkscape-stroke:none;paint-order:markers fill stroke"
   d="m 2.0900835,0.38684687 c -0.4075779,0 -0.7398043,0.3322264 -0.7398043,0.73980433 0,0.4075781 0.3322264,0.7398045 0.7398043,0.7398045 0.1433359,0 0.2772502,-0.041283 0.3907748,-0.1122878 L 3.1898562,2.4623844 3.4318441,2.2200617 2.7218417,1.5109522 C 2.7903397,1.3988467 2.829888,1.2672213 2.829888,1.1266512 c 0,-0.40757793 -0.3322265,-0.73980433 -0.7398045,-0.73980433 z m 0,0.17144529 c 0.3149223,0 0.5683592,0.25343681 0.5683592,0.56835904 0,0.3149223 -0.2534369,0.5683592 -0.5683592,0.5683592 -0.3149222,0 -0.568359,-0.2534369 -0.568359,-0.5683592 0,-0.31492223 0.2534368,-0.56835904 0.568359,-0.56835904 z" /></svg>
