<?xml version="1.0" encoding="UTF-8" standalone="no"?>
<!-- Generator: Adobe Illustrator 18.1.1, SVG Export Plug-In . SVG Version: 6.00 Build 0)  -->

<svg
   version="1.1"
   id="Capa_1"
   x="0px"
   y="0px"
   viewBox="0 0 3.7146484 3.7146484"
   xml:space="preserve"
   width="65"
   height="65"
   sodipodi:docname="red_exclamation-mark.svg"
   inkscape:version="1.3.1 (9b9bdc1480, 2023-11-25, custom)"
   xmlns:inkscape="http://www.inkscape.org/namespaces/inkscape"
   xmlns:sodipodi="http://sodipodi.sourceforge.net/DTD/sodipodi-0.dtd"
   xmlns="http://www.w3.org/2000/svg"
   xmlns:svg="http://www.w3.org/2000/svg"
   xmlns:sketch="http://www.bohemiancoding.com/sketch/ns"><defs
   id="defs18240" /><sodipodi:namedview
   id="namedview18238"
   pagecolor="#ffffff"
   bordercolor="#000000"
   borderopacity="0.25"
   inkscape:showpageshadow="2"
   inkscape:pageopacity="0.0"
   inkscape:pagecheckerboard="0"
   inkscape:deskcolor="#d1d1d1"
   showgrid="false"
   inkscape:zoom="3.4900039"
   inkscape:cx="-33.81085"
   inkscape:cy="15.472762"
   inkscape:window-width="1710"
   inkscape:window-height="982"
   inkscape:window-x="0"
   inkscape:window-y="960"
   inkscape:window-maximized="0"
   inkscape:current-layer="g2075" />

<g
   id="g18207"
   transform="translate(17.169231,-12.772676)">
</g>
<g
   id="g18209"
   transform="translate(17.169231,-12.772676)">
</g>
<g
   id="g18211"
   transform="translate(17.169231,-12.772676)">
</g>
<g
   id="g18213"
   transform="translate(17.169231,-12.772676)">
</g>
<g
   id="g18215"
   transform="translate(17.169231,-12.772676)">
</g>
<g
   id="g18217"
   transform="translate(17.169231,-12.772676)">
</g>
<g
   id="g18219"
   transform="translate(17.169231,-12.772676)">
</g>
<g
   id="g18221"
   transform="translate(17.169231,-12.772676)">
</g>
<g
   id="g18223"
   transform="translate(17.169231,-12.772676)">
</g>
<g
   id="g18225"
   transform="translate(17.169231,-12.772676)">
</g>
<g
   id="g18227"
   transform="translate(17.169231,-12.772676)">
</g>
<g
   id="g18229"
   transform="translate(17.169231,-12.772676)">
</g>
<g
   id="g18231"
   transform="translate(17.169231,-12.772676)">
</g>
<g
   id="g18233"
   transform="translate(17.169231,-12.772676)">
</g>
<g
   id="g18235"
   transform="translate(17.169231,-12.772676)">
</g>
<g
   id="g4227"
   transform="matrix(0.1759959,0,0,0.1759959,-1.5338868,4.3533933)"><g
     id="g2075"><path
       d="m 19.268693,-3.7916735 c 5.738718,0 10.390868,-4.6521498 10.390868,-10.3908675 0,-5.738717 -4.65215,-10.390867 -10.390868,-10.390867 -5.738717,0 -10.3908668,4.65215 -10.3908668,10.390867 0,5.7387177 4.6521498,10.3908675 10.3908668,10.3908675 z"
       id="Oval-1-4"
       fill="#1191bb"
       sketch:type="MSShapeGroup"
       style="fill:#f570a1;fill-opacity:1;fill-rule:evenodd;stroke:#000000;stroke-width:0.324715;stroke-dasharray:none;stroke-opacity:1" /><g
       aria-label="!"
       id="text48209"
       style="font-weight:bold;font-size:26.8906px;line-height:1;font-family:Roboto;-inkscape-font-specification:'Roboto Bold';text-align:center;text-anchor:middle;fill:#000000;fill-opacity:1;stroke-width:16.8068;stroke-linecap:square;stroke-linejoin:bevel;stroke-miterlimit:8.5;paint-order:markers fill stroke;stop-color:#000000"
       transform="matrix(0.69564461,0,0,0.69564461,77.587333,-56.998119)"><path
         d="m -82.264898,65.132604 h -3.151242 l -0.446426,-13.248347 h 4.044094 z m -1.575621,2.074568 q 0.958503,0 1.536231,0.564598 0.590857,0.564597 0.590857,1.444319 0,0.866592 -0.590857,1.431189 -0.577728,0.564598 -1.536231,0.564598 -0.945373,0 -1.536231,-0.564598 -0.577727,-0.564597 -0.577727,-1.431189 0,-0.866592 0.577727,-1.431189 0.590858,-0.577728 1.536231,-0.577728 z"
         id="path16320"
         style="fill:#000000;fill-opacity:1" /></g></g></g></svg>
