<?xml version="1.0" encoding="UTF-8"?>
<!-- Generator: Adobe Illustrator 18.1.1, SVG Export Plug-In . SVG Version: 6.00 Build 0)  -->
<svg id="Capa_1" width="67.5" height="67.5" version="1.1" viewBox="0 0 3.8575 3.8575" xml:space="preserve" xmlns="http://www.w3.org/2000/svg">
















<g id="g4227" transform="matrix(.176 0 0 .176 -1.4625 4.4248)"><g id="g2075"><path id="Oval-1-4" d="m19.269-3.7917c5.7387 0 10.391-4.6521 10.391-10.391 0-5.7387-4.6522-10.391-10.391-10.391-5.7387 0-10.391 4.6522-10.391 10.391 0 5.7387 4.6521 10.391 10.391 10.391z" fill="#f570a1" fill-rule="evenodd" stroke="#000" stroke-width="1.1365"/><g id="text48209" transform="matrix(.69564 0 0 .69564 77.587 -56.998)" stop-color="#000000" stroke-linecap="square" stroke-linejoin="bevel" stroke-miterlimit="8.5" stroke-width="16.807" style="paint-order:markers fill stroke" aria-label="!"><path id="path16320" d="m-82.265 65.133h-3.1512l-0.44643-13.248h4.0441zm-1.5756 2.0746q0.9585 0 1.5362 0.5646 0.59086 0.5646 0.59086 1.4443 0 0.86659-0.59086 1.4312-0.57773 0.5646-1.5362 0.5646-0.94537 0-1.5362-0.5646-0.57773-0.5646-0.57773-1.4312t0.57773-1.4312q0.59086-0.57773 1.5362-0.57773z"/></g></g></g></svg>
