<?xml version="1.0" encoding="UTF-8"?>
<svg width="800px" height="800px" version="1.1" viewBox="0 0 24 24" xmlns="http://www.w3.org/2000/svg" xmlns:cc="http://creativecommons.org/ns#" xmlns:dc="http://purl.org/dc/elements/1.1/" xmlns:rdf="http://www.w3.org/1999/02/22-rdf-syntax-ns#">
 <!-- Uploaded to: SVG Repo, www.svgrepo.com, Generator: SVG Repo Mixer Tools -->
 <title>ic_fluent_bug_report_24_filled</title>
 <desc>Created with Sketch.</desc>
 <g id="ðŸ”-Product-Icons" fill="#282828" fill-rule="evenodd">
  <g id="ic_fluent_bug_report_24_filled" fill="#282828" fill-rule="nonzero">
   <path id="ðŸŽ¨-Color" d="m14.25 2.0014c0.3797 0 0.69349 0.28215 0.74315 0.64823l0.0068466 0.10177v0.75211c0 0.63277-0.1959 1.2198-0.53037 1.7037 1.3949 0.47819 2.4187 1.7583 2.5218 3.2907l0.25545 8.2e-5c1.2426-0.0051367 2.2458-1.0167 2.2407-2.2593l-0.006141-1.4856c-0.0017123-0.41421 0.33268-0.75138 0.74689-0.75311 0.41421-0.0016992 0.75138 0.3327 0.75309 0.74691l0.0062063 1.4856c0.0082197 2.0042-1.5574 3.6477-3.5354 3.7594l-0.21464 0.0060533-0.23757-6.3673e-4v1.502l4.2528 6.329e-4c0.3797 0 0.69349 0.28215 0.74315 0.64823l0.0068466 0.10177c0 0.3797-0.28215 0.69349-0.64823 0.74315l-0.10177 0.0068466-4.2524-7e-7 -4.071e-4 1.9994 0.23757 6.329e-4 0.21464 0.0060533c1.9121 0.10798 3.4388 1.6473 3.531 3.5603l0.004381 0.19918-0.0062063 1.4856c-0.0017122 0.41421-0.33888 0.74861-0.75309 0.74691-0.37969-0.0015879-0.69232-0.28504-0.74047-0.65132l-0.0064258-0.1018 0.006141-1.4856c0.0049226-1.1909-0.9162-2.1695-2.0867-2.2535l-0.15403-0.0058276-0.4756-6.76e-5c-0.63696 2.0288-2.5322 3.5005-4.7713 3.5005-2.239 0-4.1343-1.4717-4.7713-3.5005l-0.488 6.76e-5c-1.2426 0.0051367-2.2458 1.0167-2.2407 2.2593l0.006141 1.4856c0.0017122 0.41421-0.33268 0.75138-0.74689 0.75311-0.41421 0.0016928-0.75138-0.3327-0.75309-0.74691l-0.0062062-1.4856c-0.0082198-2.0042 1.5574-3.6477 3.5354-3.7594l0.21464-0.0060533 0.24997-6.329e-4v-2l-4.25 6.329e-4c-0.3797 0-0.69349-0.28215-0.74315-0.64823l-0.0068466-0.10177c0-0.3797 0.28215-0.69349 0.64823-0.74315l0.10177-0.0068466 4.25-6.329e-4v-1.502l-0.25 6.3023e-4 -0.21464-0.0060533c-1.9121-0.10798-3.4388-1.6473-3.531-3.5603l-0.0043779-0.19918 0.0061738-1.4856c0.0017122-0.41421 0.33888-0.74861 0.75309-0.7469 0.37969 0.0015755 0.69232 0.28502 0.74047 0.6513l0.0064259 0.1018-0.006141 1.4856c-0.0049227 1.1909 0.9162 2.1695 2.0867 2.2535l0.15403 0.0058276 0.26787-7.55e-5c0.10314-1.5324 1.1269-2.8125 2.5228-3.292-0.29817-0.42905-0.48609-0.94054-0.52417-1.4933l-0.0071784-0.20915v-0.75211c0-0.41421 0.33579-0.75 0.75-0.75 0.3797 0 0.69349 0.28215 0.74315 0.64823l0.0068466 0.10177v0.75211c0 0.82843 0.67157 1.5 1.5 1.5 0.7797 0 1.4204-0.59489 1.4931-1.3555l0.0068666-0.14446v-0.75211c0-0.41421 0.33579-0.75 0.75-0.75z" fill="#282828"/>
  </g>
 </g>
 <metadata>
  <rdf:RDF>
   <cc:Work rdf:about="">
    <dc:title>ic_fluent_bug_report_24_filled</dc:title>
   </cc:Work>
  </rdf:RDF>
 </metadata>
</svg>
