<?xml version="1.0" encoding="UTF-8"?>
<svg width="360pt" height="360pt" version="1.1" viewBox="-2 0 360 360" xmlns="http://www.w3.org/2000/svg">
 <g fill="#282828">
  <path d="m187.08 74.312h-46.746c-5.5234 0-10-4.4766-10-10s4.4766-10 10-10h46.746c5.5234 0 10 4.4766 10 10s-4.4766 10-10 10z"/>
  <path d="m276.3 140.18h-135.96c-5.5234 0-10-4.4766-10-10s4.4766-10 10-10h135.96c5.5234 0 10 4.4766 10 10s-4.4766 10-10 10z"/>
  <path d="m276.3 206.05h-135.96c-5.5234 0-10-4.4766-10-10s4.4766-10 10-10h135.96c5.5234 0 10 4.4766 10 10s-4.4766 10-10 10z"/>
 </g>
 <path d="m345.54 0h-266.25c-5.4219-0.097656-9.9023 4.2188-10 9.6406v0.050781l-2.3789 235.31h-56.438c-5.6953 0.16016-10.285 4.7305-10.469 10.422v37.18c0 35.664 27.762 64.93 62.238 67.238 0.58203 0.10938 1.1719 0.16016 1.7617 0.16016h221.89c0.37109 0 0.74219-0.019531 1.1094-0.0625 0.83984 0.03125 1.6758 0.0625 2.5234 0.0625 36.48 0 66.48-30.238 66.48-67.398v-282.6c0-5.5195-4.9414-10-10.465-10zm-325.54 292.6v-27.602h203v27.602c-0.015625 17.727 6.9336 34.746 19.344 47.398h-175.95c-25.453 0-46.395-21.266-46.395-47.398zm316 0c0 26.141-21.027 47.398-46.516 47.398-25.453 0-46.484-21.266-46.484-47.398v-37.18c0-5.5195-4.3008-10.422-9.8203-10.422h-146.27l2.2734-225h246.82z" fill="#282828"/>
</svg>
