<?xml version="1.0" encoding="UTF-8"?>
<!DOCTYPE svg  PUBLIC '-//W3C//DTD SVG 1.1//EN'  'http://www.w3.org/Graphics/SVG/1.1/DTD/svg11.dtd'>
<!-- Uploaded to: SVG Repo, www.svgrepo.com, Transformed by: SVG Repo Mixer Tools -->
<svg width="800px" height="800px" fill="none" viewBox="0 0 24 24" xmlns="http://www.w3.org/2000/svg">
 <g id="SVGRepo_iconCarrier">
  <path d="m22 5.3652h0.75-0.75zm-12.545 7.9377 0.52921-0.5315-0.52921 0.5315zm0-4.7591 0.52921 0.53145-0.52921-0.53145zm5.9741 5.9488-0.5292-0.5314 0.5292 0.5314zm-4.7793 0-0.5292 0.5315 0.5292-0.5315zm9.866-5.0653 0.5292 0.53145-0.5292-0.53145zm1.4847-3.5693h-0.75 0.75zm-7.4588-2.3796-0.5292-0.53145 0.5292 0.53145zm-2.1679 9.166c0.2936-0.2922 0.2946-0.7671 0.0023-1.0606s-0.7672-0.2945-1.0607-0.0023l1.0584 1.0629zm-4.6644-2.3625 0.53001-0.53062-8e-4 -8e-4 -0.52921 0.53142zm3.7288-3.4878c0.3484 0.22399 0.8125 0.1231 1.0364-0.22533 0.224-0.34843 0.1231-0.81247-0.2253-1.0364l-0.8111 1.2618zm-0.1419-0.98278-0.4055 0.63089 0.4055-0.63089zm-2.2355-1.1457 0.10952-0.74196-0.10952 0.74196zm-4.2643 2.5681 0.5292 0.53146-0.5292-0.53146zm2.7094-2.3696 0.28713 0.69286-0.28713-0.69286zm-2.1543 3.5886 0.27599-0.69737-0.27599 0.69737zm0.1072 0.04284-0.28541 0.69358 0.28541-0.69358zm1.4148 0.95414 0.52921-0.53145-0.52921 0.53145zm-0.08195-0.08106-0.52195 0.53858 0.52195-0.53858zm-1.7695-1.0463-0.27599 0.69737 0.27599-0.69737zm8.7135 8.015-0.53 0.5307c0.0116 0.0116 0.0235 0.0228 0.0359 0.0336l0.4941-0.5643zm4.7133-4.6314c-0.2253-0.3476-0.6897-0.4467-1.0373-0.2214-0.3476 0.2254-0.4467 0.6898-0.2214 1.0373l1.2587-0.8159zm-0.276 0.9531-0.6293 0.408 0.6293-0.408zm1.1506 2.2261 0.7418-0.1104-0.7418 0.1104zm-2.5789 4.2463 0.5292 0.5315-0.5292-0.5315zm2.3796-2.698 0.692 0.2893-0.692-0.2893zm-3.432 2.5756 0.6966-0.278-0.6966 0.278zm-0.4125-0.9488-0.6574 0.3611 0.6574-0.3611zm-1.0892-1.3245 0.5292-0.5315-0.0171-0.0169-0.018-0.0158-0.4941 0.5642zm0.7115 0.7529 0.5901-0.463-0.5901 0.463zm1.7694 1.7156-0.5292-0.5314 0.5292 0.5314zm-3.1805-3.1112-0.2589-0.7039 0.2589 0.7039zm-5.6282-5.6579 0.69573 0.2801-0.69573-0.2801zm-1.784 2.982c0.29307-0.2928 0.29336-0.7676 6.5e-4 -1.0607-0.29272-0.2931-0.76759-0.2934-1.0607-6e-4l1.06 1.0613zm-2.2218 1.159-0.53-0.5307 0.53 0.5307zm-1.5379-1.5361-0.53001-0.5306 0.53001 0.5306zm0.6838 0.3771c0.29307-0.2928 0.29336-0.7676 6.5e-4 -1.0607-0.29272-0.2931-0.76759-0.2934-1.0607-6e-4l1.06 1.0613zm8.6034 5.5696c0.2931-0.2928 0.2934-0.7676 6e-4 -1.0607-0.2927-0.2931-0.7675-0.2934-1.0606-6e-4l1.06 1.0613zm-2.2218 1.159 0.53001 0.5306-0.53001-0.5306zm1.538 1.5361 0.53 0.5306-0.53-0.5306zm0.6838 0.377c0.2931-0.2927 0.2934-0.7676 6e-4 -1.0606-0.2927-0.2931-0.7675-0.2934-1.0606-7e-4l1.06 1.0613zm-0.9729-4.8731c0.2929-0.2929 0.2929-0.7678 0-1.0607s-0.76781-0.2929-1.0607 0l1.0607 1.0607zm-3.1631 1.0417c-0.29289 0.2929-0.29289 0.7678 0 1.0607s0.76777 0.2929 1.0607 0l-1.0607-1.0607zm0.38738-3.8141c0.29289-0.2929 0.29289-0.7677 0-1.0606-0.2929-0.2929-0.76777-0.2929-1.0607 0l1.0607 1.0606zm-3.1776 1.0563c-0.29289 0.2929-0.29289 0.7677 0 1.0606 0.2929 0.2929 0.76777 0.2929 1.0607 0l-1.0607-1.0606zm2.7809 2.1118c0.29614-0.2896 0.30142-0.7644 0.01181-1.0606-0.28962-0.2961-0.76446-0.3014-1.0606-0.0118l1.0488 1.0724zm-2.7584 0.5996c-0.29614 0.2896-0.30142 0.7644-0.0118 1.0606 0.28961 0.2961 0.76446 0.3014 1.0606 0.0118l-1.0488-1.0724zm15.284-9.2852-5.0867 5.0653 1.0584 1.0629 5.0867-5.0653-1.0584-1.0629zm-8.8076 5.0653-1.1948-1.1898-1.0584 1.0629 1.1948 1.1898 1.0584-1.0629zm-1.1948-4.886 5.0868-5.0653-1.0585-1.0629-5.0867 5.0653 1.0584 1.0629zm8.142-6.3252h0.4949v-1.5h-0.4949v1.5zm3.1243 2.6152v0.49282l1.5 1e-5v-0.49283h-1.5zm-2.6294-2.6152c0.8176 0 1.3557 0.00158 1.7545 0.05497 0.3776 0.05055 0.516 0.1349 0.6008 0.2193l1.0584-1.0629c-0.4101-0.40842-0.9174-0.57047-1.4601-0.64313-0.5215-0.06982-1.1782-0.06824-1.9536-0.06824v1.5zm4.1294 2.6152c0-0.77189 0.0016-1.4266-0.0686-1.9466-0.0732-0.54194-0.2365-1.0484-0.6471-1.4572l-1.0584 1.0629c0.0843 0.08396 0.1684 0.22056 0.219 0.59501 0.0535 0.39635 0.0551 0.93144 0.0551 1.7459h1.5zm-12.766 7.4062c-0.57829-0.5758-0.95736-0.9556-1.2012-1.2738-0.23064-0.301-0.26776-0.4567-0.26776-0.5743h-1.5c0 0.5794 0.24449 1.0526 0.57708 1.4866 0.31944 0.417 0.78522 0.8785 1.3334 1.4244l1.0584-1.0629zm0.13636 2.2527c0.5483 0.5459 1.0117 1.0097 1.4303 1.3277 0.436 0.3312 0.9096 0.5734 1.4885 0.5734v-1.5c-0.121 0-0.2789-0.0382-0.5811-0.2678-0.3196-0.2429-0.701-0.6204-1.2793-1.1962l-1.0584 1.0629zm10.924-5.0653c0.689-0.68612 1.1914-1.1675 1.455-1.8014l-1.3849-0.57609c-0.1222 0.29373-0.3524 0.54179-1.1285 1.3146l1.0584 1.0629zm0.2055-4.1008c0 1.093-0.0134 1.4298-0.1354 1.7232l1.3849 0.57609c0.2639-0.63424 0.2505-1.3291 0.2505-2.2993h-1.5zm-6.1795-1.8481c0.7757-0.77248 1.0253-1.0023 1.3214-1.1244l-0.572-1.3867c-0.6355 0.26211-1.1185 0.76175-1.8079 1.4482l1.0585 1.0629zm3.0552-2.7599c-0.975 0-1.6707-0.01318-2.3058 0.24878l0.572 1.3867c0.2964-0.12228 0.6368-0.13546 1.7338-0.13546v-1.5zm-7.5446 13.179 1.7922-1.7847-1.0584-1.0629-1.7922 1.7847 1.0584 1.0629zm1.6677-8.8968-0.5474-0.35189-0.8111 1.2618 0.5474 0.35189 0.8111-1.2618zm-0.5474-0.35189c-0.5394-0.34673-0.9794-0.63021-1.3591-0.83454-0.38905-0.2094-0.7597-0.36131-1.1725-0.42224l-0.21904 1.4839c0.17557 0.02592 0.37364 0.09391 0.68071 0.25917 0.31649 0.17034 0.70003 0.41629 1.2588 0.77547l0.8111-1.2618zm-6.3762 2.5847c0.49025-0.48817 1.014-1.0096 1.4843-1.438 0.23493-0.21406 0.44756-0.39667 0.62884-0.53622 0.19288-0.14849 0.30788-0.21477 0.35416-0.23395l-0.57426-1.3857c-0.2361 0.09784-0.47912 0.26495-0.69491 0.43108-0.2274 0.17505-0.47409 0.38825-0.72408 0.61603-0.49959 0.4552-1.0481 1.0016-1.5325 1.4839l1.0584 1.0629zm3.8446-3.8415c-0.65697-0.09697-1.3318-0.00924-1.9515 0.24757l0.57426 1.3857c0.37634-0.15596 0.77745-0.20557 1.1582-0.14937l0.21904-1.4839zm-4.4242 5.096 0.32942 0.13038 0.55198-1.3948-0.32942-0.13037-0.55198 1.3947zm1.5982 0.96143 0.83583 0.83233 1.0584-1.0629-0.83583-0.83231-1.0584 1.0629zm-1.2688-0.83106c0.0556 0.02201 0.07705 0.03051 0.09778 0.03905l0.57082-1.3872c-0.03227-0.01328-0.06462-0.02606-0.11662-0.04664l-0.55198 1.3947zm2.3272-0.23184c-0.03958-0.03941-0.06418-0.06393-0.08922-0.08819l-1.0439 1.0772c0.01606 0.01557 0.0324 0.03182 0.07469 0.07393l1.0584-1.0629zm-2.2294 0.27089c0.40811 0.16794 0.78016 0.41169 1.0963 0.71808l1.0439-1.0772c-0.45297-0.43898-0.98562-0.78784-1.5694-1.0281l-0.57082 1.3872zm-0.90604-2.4868c-0.72395 0.72088-0.46784 1.9427 0.47884 2.3174l0.55199-1.3947c0.05413 0.02142 0.07237 0.09565 0.02757 0.14026l-1.0584-1.0629zm12.923 5.8196 0.3534 0.5452 1.2587-0.816-0.3534-0.5451-1.2587 0.8159zm-0.9749 6.0782-0.0731 0.0728 1.0584 1.0629 0.0732-0.0728-1.0585-1.0629zm1.3283-5.533c0.3608 0.5564 0.6076 0.9382 0.7786 1.2532 0.1658 0.3055 0.2337 0.5019 0.2595 0.6753l1.4836-0.2208c-0.0614-0.4125-0.2144-0.7824-0.4248-1.1701-0.2053-0.3782-0.4901-0.8166-0.8382-1.3536l-1.2587 0.816zm-0.2698 6.5959c0.4843-0.4823 1.033-1.0286 1.4902-1.5261 0.2287-0.2489 0.4429-0.4946 0.6187-0.7211 0.1668-0.2148 0.3349-0.4572 0.4335-0.693l-1.384-0.5785c-0.0189 0.0454-0.0852 0.1595-0.2343 0.3516-0.1401 0.1805-0.3235 0.3922-0.5385 0.6261-0.4302 0.4683-0.9538 0.9899-1.4441 1.4781l1.0585 1.0629zm1.3079-4.6674c0.0562 0.3774 0.0066 0.7752-0.1495 1.1487l1.384 0.5785c0.2584-0.6183 0.3468-1.292 0.2491-1.948l-1.4836 0.2208zm-3.8971 1.176-0.4549-0.3984-0.9882 1.1285 0.4549 0.3983 0.9882-1.1284zm1.7042 2.5595c-0.186-0.4658-0.3006-0.7566-0.4517-1.0318l-1.3148 0.7221c0.0967 0.1761 0.1744 0.3674 0.3733 0.8657l1.3932-0.556zm-2.7275-1.4639c0.3807 0.3792 0.5265 0.5261 0.6507 0.6845l1.1801-0.926c-0.1938-0.247-0.4164-0.4669-0.7724-0.8214l-1.0584 1.0629zm2.2758 0.4321c-0.1298-0.2362-0.2786-0.4615-0.445-0.6736l-1.1801 0.926c0.1161 0.1479 0.2198 0.305 0.3103 0.4697l1.3148-0.7221zm1.3524-9.687c-0.3673 0.36569-0.964 0.36569-1.3312 0l-1.0584 1.0629c0.9525 0.94849 2.4955 0.94849 3.448 0l-1.0584-1.0629zm-1.3312 0c-0.3655-0.36395-0.3655-0.9527 0-1.3166l-1.0584-1.0629c-0.9543 0.95024-0.9543 2.4922 0 3.4424l1.0584-1.0629zm0-1.3166c0.3672-0.36569 0.9639-0.36569 1.3312 0l1.0584-1.0629c-0.9525-0.94849-2.4955-0.94849-3.448 0l1.0584 1.0629zm1.3312 0c0.3655 0.36395 0.3655 0.9527 0 1.3166l1.0584 1.0629c0.9542-0.95024 0.9542-2.4922 0-3.4424l-1.0584 1.0629zm-1.1473 11.977c0.0403-0.0402 0.0943-0.0491 0.1317-0.0417 0.0376 0.0076 0.0905 0.0387 0.1149 0.0999l-1.3932 0.556c0.3609 0.9041 1.5307 1.1202 2.2051 0.4487l-1.0585-1.0629zm-1.2423-4.7117c-0.4458 0.4439-0.7777 0.7738-1.0621 1.019-0.2855 0.2464-0.4696 0.3589-0.6058 0.409l0.5179 1.4078c0.3885-0.143 0.7348-0.3938 1.0677-0.6809 0.3341-0.2882 0.7089-0.662 1.1407-1.092l-1.0584-1.0629zm-1.6679 1.428c-0.0703 0.0258-0.1307 0.036-0.1926 0.036v1.5c0.2475 0 0.483-0.0446 0.7105-0.1282l-0.5179-1.4078zm1.0336 0.4176-0.2447-0.2444-1.06 1.0613 0.2447 0.2444 1.06-1.0613zm-5.3398-7.7945c-0.42152 0.41974-0.78887 0.78501-1.0746 1.1108-0.28442 0.32419-0.53418 0.65946-0.68417 1.032l1.3915 0.5602c0.05554-0.138 0.17393-0.3222 0.42027-0.603 0.24499-0.27924 0.57102-0.60444 1.0055-1.0371l-1.0584-1.0629zm-1.7588 2.1428c-0.09826 0.244-0.15168 0.4983-0.15168 0.7682h1.5c0-0.0648 0.01151-0.1295 0.04314-0.208l-1.3915-0.5602zm0.01239 0.6576 0.15333 0.1531 1.06-1.0613-0.15333-0.15314-1.06 1.0613zm-2.1607 1.5432-1.6917 1.6896 1.06 1.0613 1.6917-1.6896-1.06-1.0613zm-2.1697 1.2149 0.15379-0.1536-1.06-1.0613-0.1538 0.1536 1.06 1.0613zm0 0.4747c-0.13137-0.1312-0.13137-0.3435 0-0.4747l-1.06-1.0613c-0.71801 0.7171-0.71801 1.8802 0 2.5973l1.06-1.0613zm0.47793 0c-0.13188 0.1317-0.34606 0.1317-0.47793 0l-1.06 1.0613c0.71751 0.7167 1.8804 0.7167 2.598 0l-1.06-1.0613zm7.2192 3.88-1.6918 1.6896 1.06 1.0613 1.6917-1.6896-1.06-1.0613zm0.9062 4.287 0.1538-0.1536-1.06-1.0613-0.1538 0.1536 1.06 1.0613zm-2.598 0c0.71751 0.7167 1.8805 0.7167 2.598 0l-1.06-1.0613c-0.1319 0.1317-0.3461 0.1317-0.47794 0l-1.06 1.0613zm0-2.5974c-0.71801 0.7172-0.71801 1.8803 0 2.5974l1.06-1.0613c-0.13137-0.1312-0.13137-0.3435 0-0.4748l-1.06-1.0613zm0.71816-3.49-2.1024 2.1024 1.0607 1.0607 2.1025-2.1024-1.0607-1.0607zm-2.7757-2.7723-2.1169 2.1169 1.0607 1.0606 2.1169-2.1169-1.0607-1.0606zm-0.38476 3.1563-1.7096 1.672 1.0488 1.0724 1.7096-1.672-1.0488-1.0724z" fill="#282828"/>
 </g>
</svg>
