<?xml version="1.0" encoding="UTF-8"?>
<!-- Created with Inkscape (http://www.inkscape.org/) -->
<svg width="234.67" height="165.33" version="1.1" viewBox="0 0 234.67 165.33" xmlns="http://www.w3.org/2000/svg">
 <g transform="matrix(1.3333 0 0 -1.3333 0 165.33)">
  <g transform="scale(.1)" fill="#282828">
   <path d="m700 358.31v523.38l460-261.7zm1023.2 688.06c-20.24 76.22-79.88 136.24-155.6 156.61-137.25 37.02-687.62 37.02-687.62 37.02s-550.37 0-687.62-37.02c-75.723-20.37-135.36-80.39-155.6-156.61-36.777-138.14-36.777-426.37-36.777-426.37s0-288.22 36.777-426.37c20.238-76.219 79.879-136.24 155.6-156.62 137.25-37.012 687.62-37.012 687.62-37.012s550.37 0 687.62 37.012c75.72 20.379 135.36 80.398 155.6 156.62 36.78 138.15 36.78 426.37 36.78 426.37s0 288.23-36.78 426.37" fill="#282828"/>
  </g>
 </g>
</svg>
