<?xml version="1.0" encoding="UTF-8"?>
<svg width="438.25pt" height="166pt" version="1.2" viewBox="0 0 438.25 166" xmlns="http://www.w3.org/2000/svg" xmlns:cc="http://creativecommons.org/ns#" xmlns:dc="http://purl.org/dc/elements/1.1/" xmlns:rdf="http://www.w3.org/1999/02/22-rdf-syntax-ns#">
 <metadata>
  <rdf:RDF>
   <cc:Work rdf:about="">
    <dc:format>image/svg+xml</dc:format>
    <dc:type rdf:resource="http://purl.org/dc/dcmitype/StillImage"/>
   </cc:Work>
  </rdf:RDF>
 </metadata>
 <defs>
  <clipPath id="clip1">
   <path d="m411 110h27.254v28h-27.254z"/>
  </clipPath>
  <clipPath id="clip2">
   <path d="m411 139h27.254v26.996h-27.254z"/>
  </clipPath>
  <clipPath id="clip3">
   <path d="m382 139h28v26.996h-28z"/>
  </clipPath>
 </defs>
 <path d="m142.67 147.48 4.7148-34.09-10.055 34.09z" style="fill:#052738"/>
 <path d="m236.27 147.48 5.3789-34.98-10.719 34.98z" style="fill:#052738"/>
 <path d="m130.36 134.39-58.973 0.0625-1.1211-47.23-20.16 47.195 2.2891-61.355-23.785 61.391h-3.2852l-2.8398-25.66-22.488 33.211h7.8789l9.9922-15.379 1.5469 15.379h13.559l11.383-30.188-1.7227 30.188h12.012l9.9648-24.785-0.25781 24.785h72.02l17.863-59.883-8.2305 59.883h84.371l16.52-52.984-6.8906 52.984h159.74l3.1914-3.7227-3.1914-3.8281-150.72 0.023438 8.5078-95.734-33.352 95.711-69-0.0625 11.316-110.1z" style="fill:#052738"/>
 <g clip-path="url(#clip1)">
  <path d="m411.43 132.74 4.6484 4.6484 22.094-26.742z" style="fill:#052738"/>
 </g>
 <path d="m382.94 110.54 22.094 26.742 4.6484-4.6484z" style="fill:#052738"/>
 <g clip-path="url(#clip2)">
  <path d="m411.51 143.9 26.742 22.094-22.094-26.742z" style="fill:#052738"/>
 </g>
 <g clip-path="url(#clip3)">
  <path d="m382.99 165.83 26.742-22.094-4.6484-4.6484z" style="fill:#052738"/>
 </g>
 <path d="m186.66 8.0938-17.574 7.9727 1.8164 3.1719z" style="fill:#052738"/>
 <path d="m157.02 0 7.9766 17.578 3.1719-1.8203z" style="fill:#052738"/>
 <path d="m178.65 37.828-7.9727-17.574-3.1719 1.8203z" style="fill:#052738"/>
 <path d="m149 29.699 15.754-11.145 1.8242 3.1719z" style="fill:#052738"/>
 <path d="m277.82 22.328-17.578 7.9766 1.8242 3.1719z" style="fill:#052738"/>
 <path d="m248.17 14.238 7.9766 17.574 3.1719-1.8203z" style="fill:#052738"/>
 <path d="m269.8 52.066-7.9727-17.574-3.1758 1.8164z" style="fill:#052738"/>
 <path d="m240.15 43.938 15.758-11.148 1.8203 3.1758z" style="fill:#052738"/>
 <path d="m133.36 75.008c1.5469-7.7734 6.0195-25.844-17.41-25.844-15.551 0-24.68 7.3555-27.539 20.801-0.89062 4.2031-0.44141 8.5117 1.2148 12.086 4.3125 7.8789 12.961 12.188 19.355 18.176 3.2266 2.6289 4.6562 5.7812 3.6719 10.402-1.2695 5.9883-4.9062 9.2461-11.105 9.2461-6.8281 0-8.1953-4.9375-6.7227-11.871l1.2734-5.9922h-14.707l-1.2305 5.7812c-2.9922 14.078 1.2109 23.957 18.863 23.957 14.395 0 25.926-7.7773 29.098-22.695 1.4492-6.832 0.87891-11.559-3.1133-16.496-3.25-3.9961-10.93-9.8789-15.117-12.926-3.9961-2.9414-7.2891-5.2539-6.0156-11.242 1.1406-5.3594 4.7148-7.3555 9.6523-7.3555 7.6719 0 7.3008 6.1992 5.8945 12.82l-0.24609 1.1523zm56.32 20.91h1.9961c3.5703 0 7.1211 0.10547 10.285 1.0508 4.7266 1.4727 3.2188 8.0898 2.2969 12.926l-0.73828 3.4648c-1.1172 5.2539-2.5312 12.398-1.9336 16.496h16.184l0.3125-1.4688c-2.5391-1.8906 0.019531-14.922 1.4258-21.539l0.71484-3.3633c1.6094-7.5664 0.16406-13.133-8.3086-14.289l0.042969-0.21094c10.168-1.3672 14.293-10.402 16.125-19.02 3.082-14.496-5.6445-18.91-18.359-18.91h-27.844l-16.75 78.801h14.711l7.2148-33.938zm4.4531-33.305h10.926c5.5469 0.10547 8.9141 1.5742 7.0352 10.398-1.6758 7.8828-6.125 11.035-11.027 11.348h-11.559zm104.98 42.133c-1.6094 7.5625-3.7422 15.129-13.305 15.129-9.9805 0-8.8984-7.5664-7.293-15.129l11.414-53.691h-14.711l-11.68 54.953c-3.707 17.441 0.20312 25.742 19.641 25.742 19.227 0 26.668-8.3008 30.375-25.742l11.68-54.953h-14.711zm79.512-29.738c1.5469-7.7734 6.0195-25.844-17.41-25.844-15.551 0-24.68 7.3555-27.539 20.801-0.89453 4.2031-0.44531 8.5117 1.2148 12.086 4.3125 7.8789 12.961 12.188 19.355 18.176 3.2227 2.6289 4.6562 5.7812 3.6719 10.402-1.2734 5.9883-4.9062 9.2461-11.105 9.2461-6.8281 0-8.1953-4.9375-6.7227-11.871l1.2734-5.9922h-14.711l-1.2266 5.7812c-2.9961 14.078 1.2109 23.957 18.863 23.957 14.395 0 25.926-7.7773 29.094-22.695 1.4531-6.832 0.88281-11.559-3.1094-16.496-3.25-3.9961-10.93-9.8789-15.117-12.926-3.9961-2.9414-7.2891-5.2539-6.0156-11.242 1.1406-5.3594 4.7148-7.3555 9.6523-7.3555 7.6719 0 7.3008 6.1992 5.8945 12.82l-0.24609 1.1523z" style="fill:#052738"/>
</svg>
